%
M48
M72
T01C0.0276
T02C0.0320
T03C0.0354
T04C0.0360
T05C0.0400
T06C0.0900
%
T01
X7061Y10180
X8061Y10180
X8061Y14680
X7061Y14680
T02
X7561Y20680
X8561Y20680
X15061Y20680
X15061Y19680
X15061Y18680
X15061Y17680
X15061Y16680
X15061Y15680
X15061Y14680
X15061Y13680
X15061Y12680
X15061Y11680
X15061Y10680
X15061Y9680
X15061Y8680
X15061Y7680
X18061Y7680
X18061Y8680
X18061Y9680
X18061Y10680
X18061Y11680
X18061Y12680
X18061Y13680
X18061Y14680
X18061Y15680
X18061Y16680
X18061Y17680
X18061Y18680
X18061Y19680
X18061Y20680
X17511Y4680
X15611Y4680
X22561Y4180
X23561Y4180
T03
X14561Y1680
X11561Y1680
X10561Y4680
X10561Y7680
X10561Y9180
X10561Y12180
X10561Y13680
X10561Y16680
X10561Y18680
X10561Y21680
T04
X5061Y2680
X5061Y3680
X5061Y4680
X5061Y7180
X5061Y8180
X5061Y9180
X5061Y18188
X5841Y18188
X5841Y19172
X5061Y19172
T05
X4061Y13680
X4061Y12680
X4061Y11680
X7561Y3680
X7561Y2680
X7561Y1680
X23061Y6680
X23061Y7680
X23061Y8680
X23061Y9680
X23061Y10680
X23061Y11680
X23061Y12680
X23061Y13680
X23061Y14680
X23061Y15680
X23061Y16680
X23061Y17680
X23061Y18680
X23061Y19680
X23061Y20680
X23061Y21680
T06
X3991Y21050
X3991Y16310
M30
