G75*
G70*
%OFA0B0*%
%FSLAX24Y24*%
%IPPOS*%
%LPD*%
%AMOC8*
5,1,8,0,0,1.08239X$1,22.5*
%
%ADD10C,0.0060*%
%ADD11C,0.0050*%
%ADD12R,0.0300X0.4200*%
%ADD13R,0.0200X0.0750*%
%ADD14R,0.0200X0.0300*%
%ADD15C,0.0080*%
%ADD16C,0.0100*%
%ADD17C,0.0160*%
%ADD18C,0.0260*%
%ADD19R,0.0200X0.0240*%
%ADD20C,0.0010*%
D10*
X003461Y002280D02*
X003461Y003080D01*
X003561Y003180D01*
X003461Y003280D01*
X003461Y004080D01*
X003561Y004180D01*
X004361Y004180D01*
X004461Y004080D01*
X004461Y003280D01*
X004361Y003180D01*
X004461Y003080D01*
X004461Y002280D01*
X004361Y002180D01*
X003561Y002180D01*
X003461Y002280D01*
X003561Y003180D02*
X004361Y003180D01*
X004361Y004180D02*
X004461Y004280D01*
X004461Y005080D01*
X004361Y005180D01*
X003561Y005180D01*
X003461Y005080D01*
X003461Y004280D01*
X003561Y004180D01*
X003561Y006680D02*
X003461Y006780D01*
X003461Y007580D01*
X003561Y007680D01*
X003461Y007780D01*
X003461Y008580D01*
X003561Y008680D01*
X004361Y008680D01*
X004461Y008580D01*
X004461Y007780D01*
X004361Y007680D01*
X004461Y007580D01*
X004461Y006780D01*
X004361Y006680D01*
X003561Y006680D01*
X003561Y007680D02*
X004361Y007680D01*
X004361Y008680D02*
X004461Y008780D01*
X004461Y009580D01*
X004361Y009680D01*
X003561Y009680D01*
X003461Y009580D01*
X003461Y008780D01*
X003561Y008680D01*
X015461Y006880D02*
X017661Y006880D01*
X017661Y021480D01*
X016811Y021480D01*
X016809Y021450D01*
X016804Y021420D01*
X016795Y021391D01*
X016782Y021364D01*
X016767Y021338D01*
X016748Y021314D01*
X016727Y021293D01*
X016703Y021274D01*
X016677Y021259D01*
X016650Y021246D01*
X016621Y021237D01*
X016591Y021232D01*
X016561Y021230D01*
X016531Y021232D01*
X016501Y021237D01*
X016472Y021246D01*
X016445Y021259D01*
X016419Y021274D01*
X016395Y021293D01*
X016374Y021314D01*
X016355Y021338D01*
X016340Y021364D01*
X016327Y021391D01*
X016318Y021420D01*
X016313Y021450D01*
X016311Y021480D01*
X015461Y021480D01*
X015461Y006880D01*
X015411Y005380D02*
X017711Y005380D01*
X017762Y005378D01*
X017813Y005373D01*
X017863Y005363D01*
X017913Y005350D01*
X017961Y005334D01*
X018008Y005314D01*
X018054Y005290D01*
X018097Y005264D01*
X018139Y005234D01*
X018178Y005201D01*
X018215Y005166D01*
X018249Y005128D01*
X018280Y005087D01*
X018309Y005045D01*
X018334Y005000D01*
X018355Y004954D01*
X018374Y004906D01*
X018388Y004857D01*
X018399Y004807D01*
X018407Y004757D01*
X018411Y004706D01*
X018411Y004654D01*
X018407Y004603D01*
X018399Y004553D01*
X018388Y004503D01*
X018374Y004454D01*
X018355Y004406D01*
X018334Y004360D01*
X018309Y004315D01*
X018280Y004273D01*
X018249Y004232D01*
X018215Y004194D01*
X018178Y004159D01*
X018139Y004126D01*
X018097Y004096D01*
X018054Y004070D01*
X018008Y004046D01*
X017961Y004026D01*
X017913Y004010D01*
X017863Y003997D01*
X017813Y003987D01*
X017762Y003982D01*
X017711Y003980D01*
X015411Y003980D01*
X015360Y003982D01*
X015309Y003987D01*
X015259Y003997D01*
X015209Y004010D01*
X015161Y004026D01*
X015114Y004046D01*
X015068Y004070D01*
X015025Y004096D01*
X014983Y004126D01*
X014944Y004159D01*
X014907Y004194D01*
X014873Y004232D01*
X014842Y004273D01*
X014813Y004315D01*
X014788Y004360D01*
X014767Y004406D01*
X014748Y004454D01*
X014734Y004503D01*
X014723Y004553D01*
X014715Y004603D01*
X014711Y004654D01*
X014711Y004706D01*
X014715Y004757D01*
X014723Y004807D01*
X014734Y004857D01*
X014748Y004906D01*
X014767Y004954D01*
X014788Y005000D01*
X014813Y005045D01*
X014842Y005087D01*
X014873Y005128D01*
X014907Y005166D01*
X014944Y005201D01*
X014983Y005234D01*
X015025Y005264D01*
X015068Y005290D01*
X015114Y005314D01*
X015161Y005334D01*
X015209Y005350D01*
X015259Y005363D01*
X015309Y005373D01*
X015360Y005378D01*
X015411Y005380D01*
X016061Y004680D02*
X016311Y004680D01*
X016311Y004330D01*
X016461Y004330D02*
X016461Y005030D01*
X016661Y005030D01*
X016661Y004330D01*
X016461Y004330D01*
X016811Y004330D02*
X016811Y004680D01*
X017061Y004680D01*
X016811Y004680D02*
X016811Y005030D01*
X016311Y005030D02*
X016311Y004680D01*
X022561Y006430D02*
X022811Y006180D01*
X023311Y006180D01*
X023561Y006430D01*
X023561Y006930D01*
X023311Y007180D01*
X023561Y007430D01*
X023561Y007930D01*
X023311Y008180D01*
X022811Y008180D01*
X022561Y007930D01*
X022561Y007430D01*
X022811Y007180D01*
X023311Y007180D01*
X022811Y007180D02*
X022561Y006930D01*
X022561Y006430D01*
X022811Y008180D02*
X022561Y008430D01*
X022561Y008930D01*
X022811Y009180D01*
X022561Y009430D01*
X022561Y009930D01*
X022811Y010180D01*
X022561Y010430D01*
X022561Y010930D01*
X022811Y011180D01*
X023311Y011180D01*
X023561Y010930D01*
X023561Y010430D01*
X023311Y010180D01*
X023561Y009930D01*
X023561Y009430D01*
X023311Y009180D01*
X023561Y008930D01*
X023561Y008430D01*
X023311Y008180D01*
X023311Y009180D02*
X022811Y009180D01*
X022811Y010180D02*
X023311Y010180D01*
X023311Y011180D02*
X023561Y011430D01*
X023561Y011930D01*
X023311Y012180D01*
X023561Y012430D01*
X023561Y012930D01*
X023311Y013180D01*
X023561Y013430D01*
X023561Y013930D01*
X023311Y014180D01*
X022811Y014180D01*
X022561Y013930D01*
X022561Y013430D01*
X022811Y013180D01*
X023311Y013180D01*
X022811Y013180D02*
X022561Y012930D01*
X022561Y012430D01*
X022811Y012180D01*
X023311Y012180D01*
X022811Y012180D02*
X022561Y011930D01*
X022561Y011430D01*
X022811Y011180D01*
X022811Y014180D02*
X022561Y014430D01*
X022561Y014930D01*
X022811Y015180D01*
X022561Y015430D01*
X022561Y015930D01*
X022811Y016180D01*
X022561Y016430D01*
X022561Y016930D01*
X022811Y017180D01*
X023311Y017180D01*
X023561Y016930D01*
X023561Y016430D01*
X023311Y016180D01*
X023561Y015930D01*
X023561Y015430D01*
X023311Y015180D01*
X023561Y014930D01*
X023561Y014430D01*
X023311Y014180D01*
X023311Y015180D02*
X022811Y015180D01*
X022811Y016180D02*
X023311Y016180D01*
X023311Y017180D02*
X023561Y017430D01*
X023561Y017930D01*
X023311Y018180D01*
X023561Y018430D01*
X023561Y018930D01*
X023311Y019180D01*
X023561Y019430D01*
X023561Y019930D01*
X023311Y020180D01*
X022811Y020180D01*
X022561Y019930D01*
X022561Y019430D01*
X022811Y019180D01*
X023311Y019180D01*
X022811Y019180D02*
X022561Y018930D01*
X022561Y018430D01*
X022811Y018180D01*
X023311Y018180D01*
X022811Y018180D02*
X022561Y017930D01*
X022561Y017430D01*
X022811Y017180D01*
X022811Y020180D02*
X022561Y020430D01*
X022561Y020930D01*
X022811Y021180D01*
X022561Y021430D01*
X022561Y021930D01*
X022811Y022180D01*
X023311Y022180D01*
X023561Y021930D01*
X023561Y021430D01*
X023311Y021180D01*
X023561Y020930D01*
X023561Y020430D01*
X023311Y020180D01*
X023311Y021180D02*
X022811Y021180D01*
X007061Y020680D02*
X007063Y020743D01*
X007069Y020805D01*
X007079Y020867D01*
X007092Y020929D01*
X007110Y020989D01*
X007131Y021048D01*
X007156Y021106D01*
X007185Y021162D01*
X007217Y021216D01*
X007252Y021268D01*
X007290Y021317D01*
X007332Y021365D01*
X007376Y021409D01*
X007424Y021451D01*
X007473Y021489D01*
X007525Y021524D01*
X007579Y021556D01*
X007635Y021585D01*
X007693Y021610D01*
X007752Y021631D01*
X007812Y021649D01*
X007874Y021662D01*
X007936Y021672D01*
X007998Y021678D01*
X008061Y021680D01*
X008124Y021678D01*
X008186Y021672D01*
X008248Y021662D01*
X008310Y021649D01*
X008370Y021631D01*
X008429Y021610D01*
X008487Y021585D01*
X008543Y021556D01*
X008597Y021524D01*
X008649Y021489D01*
X008698Y021451D01*
X008746Y021409D01*
X008790Y021365D01*
X008832Y021317D01*
X008870Y021268D01*
X008905Y021216D01*
X008937Y021162D01*
X008966Y021106D01*
X008991Y021048D01*
X009012Y020989D01*
X009030Y020929D01*
X009043Y020867D01*
X009053Y020805D01*
X009059Y020743D01*
X009061Y020680D01*
X009059Y020617D01*
X009053Y020555D01*
X009043Y020493D01*
X009030Y020431D01*
X009012Y020371D01*
X008991Y020312D01*
X008966Y020254D01*
X008937Y020198D01*
X008905Y020144D01*
X008870Y020092D01*
X008832Y020043D01*
X008790Y019995D01*
X008746Y019951D01*
X008698Y019909D01*
X008649Y019871D01*
X008597Y019836D01*
X008543Y019804D01*
X008487Y019775D01*
X008429Y019750D01*
X008370Y019729D01*
X008310Y019711D01*
X008248Y019698D01*
X008186Y019688D01*
X008124Y019682D01*
X008061Y019680D01*
X007998Y019682D01*
X007936Y019688D01*
X007874Y019698D01*
X007812Y019711D01*
X007752Y019729D01*
X007693Y019750D01*
X007635Y019775D01*
X007579Y019804D01*
X007525Y019836D01*
X007473Y019871D01*
X007424Y019909D01*
X007376Y019951D01*
X007332Y019995D01*
X007290Y020043D01*
X007252Y020092D01*
X007217Y020144D01*
X007185Y020198D01*
X007156Y020254D01*
X007131Y020312D01*
X007110Y020371D01*
X007092Y020431D01*
X007079Y020493D01*
X007069Y020555D01*
X007063Y020617D01*
X007061Y020680D01*
X022061Y004180D02*
X022063Y004243D01*
X022069Y004305D01*
X022079Y004367D01*
X022092Y004429D01*
X022110Y004489D01*
X022131Y004548D01*
X022156Y004606D01*
X022185Y004662D01*
X022217Y004716D01*
X022252Y004768D01*
X022290Y004817D01*
X022332Y004865D01*
X022376Y004909D01*
X022424Y004951D01*
X022473Y004989D01*
X022525Y005024D01*
X022579Y005056D01*
X022635Y005085D01*
X022693Y005110D01*
X022752Y005131D01*
X022812Y005149D01*
X022874Y005162D01*
X022936Y005172D01*
X022998Y005178D01*
X023061Y005180D01*
X023124Y005178D01*
X023186Y005172D01*
X023248Y005162D01*
X023310Y005149D01*
X023370Y005131D01*
X023429Y005110D01*
X023487Y005085D01*
X023543Y005056D01*
X023597Y005024D01*
X023649Y004989D01*
X023698Y004951D01*
X023746Y004909D01*
X023790Y004865D01*
X023832Y004817D01*
X023870Y004768D01*
X023905Y004716D01*
X023937Y004662D01*
X023966Y004606D01*
X023991Y004548D01*
X024012Y004489D01*
X024030Y004429D01*
X024043Y004367D01*
X024053Y004305D01*
X024059Y004243D01*
X024061Y004180D01*
X024059Y004117D01*
X024053Y004055D01*
X024043Y003993D01*
X024030Y003931D01*
X024012Y003871D01*
X023991Y003812D01*
X023966Y003754D01*
X023937Y003698D01*
X023905Y003644D01*
X023870Y003592D01*
X023832Y003543D01*
X023790Y003495D01*
X023746Y003451D01*
X023698Y003409D01*
X023649Y003371D01*
X023597Y003336D01*
X023543Y003304D01*
X023487Y003275D01*
X023429Y003250D01*
X023370Y003229D01*
X023310Y003211D01*
X023248Y003198D01*
X023186Y003188D01*
X023124Y003182D01*
X023061Y003180D01*
X022998Y003182D01*
X022936Y003188D01*
X022874Y003198D01*
X022812Y003211D01*
X022752Y003229D01*
X022693Y003250D01*
X022635Y003275D01*
X022579Y003304D01*
X022525Y003336D01*
X022473Y003371D01*
X022424Y003409D01*
X022376Y003451D01*
X022332Y003495D01*
X022290Y003543D01*
X022252Y003592D01*
X022217Y003644D01*
X022185Y003698D01*
X022156Y003754D01*
X022131Y003812D01*
X022110Y003871D01*
X022092Y003931D01*
X022079Y003993D01*
X022069Y004055D01*
X022063Y004117D01*
X022061Y004180D01*
D11*
X014234Y001640D02*
X014234Y001505D01*
X014144Y001505D02*
X014144Y001640D01*
X014189Y001685D01*
X014234Y001640D01*
X014144Y001640D02*
X014099Y001685D01*
X014054Y001685D01*
X014054Y001505D01*
X013940Y001505D02*
X013940Y001640D01*
X013895Y001685D01*
X013805Y001685D01*
X013760Y001640D01*
X013645Y001640D02*
X013645Y001550D01*
X013600Y001505D01*
X013510Y001505D01*
X013465Y001550D01*
X013465Y001640D01*
X013510Y001685D01*
X013600Y001685D01*
X013645Y001640D01*
X013760Y001775D02*
X013760Y001505D01*
X013056Y001550D02*
X013011Y001505D01*
X012921Y001505D01*
X012876Y001550D01*
X013056Y001730D01*
X013056Y001550D01*
X013056Y001730D02*
X013011Y001775D01*
X012921Y001775D01*
X012876Y001730D01*
X012876Y001550D01*
X012761Y001550D02*
X012716Y001505D01*
X012626Y001505D01*
X012581Y001550D01*
X012581Y001640D02*
X012671Y001685D01*
X012716Y001685D01*
X012761Y001640D01*
X012761Y001550D01*
X012581Y001640D02*
X012581Y001775D01*
X012761Y001775D01*
X012466Y001505D02*
X012286Y001505D01*
X012376Y001505D02*
X012376Y001775D01*
X012286Y001685D01*
X010736Y005405D02*
X010736Y005585D01*
X010736Y005495D02*
X010466Y005495D01*
X010556Y005405D01*
X010511Y005700D02*
X010466Y005745D01*
X010466Y005835D01*
X010511Y005880D01*
X010691Y005700D01*
X010736Y005745D01*
X010736Y005835D01*
X010691Y005880D01*
X010511Y005880D01*
X010466Y005994D02*
X010736Y005994D01*
X010646Y005994D02*
X010556Y006129D01*
X010601Y006240D02*
X010691Y006240D01*
X010736Y006285D01*
X010736Y006375D01*
X010691Y006420D01*
X010601Y006420D01*
X010556Y006375D01*
X010556Y006285D01*
X010601Y006240D01*
X010736Y006129D02*
X010646Y005994D01*
X010691Y005700D02*
X010511Y005700D01*
X010466Y006534D02*
X010736Y006534D01*
X010601Y006534D02*
X010556Y006580D01*
X010556Y006670D01*
X010601Y006715D01*
X010736Y006715D01*
X010736Y006829D02*
X010556Y006829D01*
X010556Y006874D01*
X010601Y006919D01*
X010556Y006964D01*
X010601Y007009D01*
X010736Y007009D01*
X010736Y006919D02*
X010601Y006919D01*
X008111Y004680D02*
X006961Y004630D01*
X006861Y004530D01*
X006861Y000830D01*
X006961Y000730D01*
X008111Y000680D01*
X004036Y002605D02*
X004036Y002832D01*
X004036Y002718D02*
X003696Y002718D01*
X003809Y002605D01*
X003753Y003555D02*
X003696Y003612D01*
X003696Y003725D01*
X003753Y003782D01*
X003809Y003782D01*
X004036Y003555D01*
X004036Y003782D01*
X003980Y004505D02*
X004036Y004562D01*
X004036Y004675D01*
X003980Y004732D01*
X003923Y004732D01*
X003866Y004675D01*
X003866Y004618D01*
X003866Y004675D02*
X003809Y004732D01*
X003753Y004732D01*
X003696Y004675D01*
X003696Y004562D01*
X003753Y004505D01*
X003809Y007105D02*
X003696Y007218D01*
X004036Y007218D01*
X004036Y007105D02*
X004036Y007332D01*
X004036Y008055D02*
X003809Y008282D01*
X003753Y008282D01*
X003696Y008225D01*
X003696Y008112D01*
X003753Y008055D01*
X004036Y008055D02*
X004036Y008282D01*
X003980Y009005D02*
X004036Y009062D01*
X004036Y009175D01*
X003980Y009232D01*
X003923Y009232D01*
X003866Y009175D01*
X003866Y009118D01*
X003866Y009175D02*
X003809Y009232D01*
X003753Y009232D01*
X003696Y009175D01*
X003696Y009062D01*
X003753Y009005D01*
X007001Y004450D02*
X007003Y004470D01*
X007009Y004488D01*
X007018Y004506D01*
X007030Y004521D01*
X007045Y004533D01*
X007063Y004542D01*
X007081Y004548D01*
X007101Y004550D01*
X007121Y004548D01*
X007139Y004542D01*
X007157Y004533D01*
X007172Y004521D01*
X007184Y004506D01*
X007193Y004488D01*
X007199Y004470D01*
X007201Y004450D01*
X007199Y004430D01*
X007193Y004412D01*
X007184Y004394D01*
X007172Y004379D01*
X007157Y004367D01*
X007139Y004358D01*
X007121Y004352D01*
X007101Y004350D01*
X007081Y004352D01*
X007063Y004358D01*
X007045Y004367D01*
X007030Y004379D01*
X007018Y004394D01*
X007009Y004412D01*
X007003Y004430D01*
X007001Y004450D01*
X010511Y009905D02*
X010466Y009950D01*
X010466Y010040D01*
X010511Y010085D01*
X010556Y010085D01*
X010736Y009905D01*
X010736Y010085D01*
X010736Y010200D02*
X010556Y010380D01*
X010511Y010380D01*
X010466Y010335D01*
X010466Y010245D01*
X010511Y010200D01*
X010736Y010200D02*
X010736Y010380D01*
X010736Y010494D02*
X010736Y010629D01*
X010691Y010674D01*
X010601Y010674D01*
X010556Y010629D01*
X010556Y010494D01*
X010826Y010494D01*
X010736Y010834D02*
X010511Y010834D01*
X010466Y010879D01*
X010601Y010879D02*
X010601Y010789D01*
X010511Y014405D02*
X010466Y014450D01*
X010466Y014540D01*
X010511Y014585D01*
X010556Y014585D01*
X010736Y014405D01*
X010736Y014585D01*
X010736Y014700D02*
X010556Y014880D01*
X010511Y014880D01*
X010466Y014835D01*
X010466Y014745D01*
X010511Y014700D01*
X010736Y014700D02*
X010736Y014880D01*
X010736Y014994D02*
X010736Y015129D01*
X010691Y015174D01*
X010601Y015174D01*
X010556Y015129D01*
X010556Y014994D01*
X010826Y014994D01*
X010601Y015289D02*
X010601Y015379D01*
X010511Y015334D02*
X010736Y015334D01*
X010511Y015334D02*
X010466Y015379D01*
X010556Y019405D02*
X010466Y019495D01*
X010736Y019495D01*
X010736Y019405D02*
X010736Y019585D01*
X010691Y019700D02*
X010736Y019745D01*
X010736Y019835D01*
X010691Y019880D01*
X010601Y019880D01*
X010556Y019835D01*
X010556Y019790D01*
X010601Y019700D01*
X010466Y019700D01*
X010466Y019880D01*
X010511Y019994D02*
X010466Y020039D01*
X010466Y020129D01*
X010511Y020174D01*
X010691Y019994D01*
X010736Y020039D01*
X010736Y020129D01*
X010691Y020174D01*
X010511Y020174D01*
X010601Y020289D02*
X010691Y020289D01*
X010736Y020334D01*
X010736Y020424D01*
X010691Y020469D01*
X010601Y020469D01*
X010556Y020424D01*
X010556Y020334D01*
X010601Y020289D01*
X010691Y019994D02*
X010511Y019994D01*
X010466Y020584D02*
X010736Y020584D01*
X010601Y020584D02*
X010556Y020629D01*
X010556Y020719D01*
X010601Y020764D01*
X010736Y020764D01*
X010736Y020878D02*
X010556Y020878D01*
X010556Y020923D01*
X010601Y020968D01*
X010556Y021013D01*
X010601Y021058D01*
X010736Y021058D01*
X010736Y020968D02*
X010601Y020968D01*
D12*
X008411Y002680D03*
D13*
X008161Y000955D03*
X008161Y004405D03*
D14*
X008161Y003180D03*
X008161Y002180D03*
D15*
X010261Y005180D02*
X010561Y005180D01*
X010561Y005080D01*
X010561Y005180D02*
X010861Y005180D01*
X010861Y007180D01*
X010561Y007180D01*
X010561Y007280D01*
X010561Y007180D02*
X010261Y007180D01*
X010261Y005180D01*
X012061Y001980D02*
X012061Y001680D01*
X011961Y001680D01*
X012061Y001680D02*
X012061Y001380D01*
X014061Y001380D01*
X014061Y001680D01*
X014161Y001680D01*
X014061Y001680D02*
X014061Y001980D01*
X012061Y001980D01*
X010561Y009580D02*
X010561Y009680D01*
X010261Y009680D01*
X010261Y011680D01*
X010561Y011680D01*
X010561Y011780D01*
X010561Y011680D02*
X010861Y011680D01*
X010861Y009680D01*
X010561Y009680D01*
X006281Y010180D02*
X006283Y010251D01*
X006289Y010322D01*
X006299Y010393D01*
X006313Y010462D01*
X006330Y010531D01*
X006352Y010599D01*
X006377Y010666D01*
X006406Y010731D01*
X006438Y010794D01*
X006474Y010856D01*
X006513Y010915D01*
X006556Y010972D01*
X006601Y011027D01*
X006650Y011079D01*
X006701Y011128D01*
X006755Y011174D01*
X006812Y011218D01*
X006870Y011258D01*
X006931Y011294D01*
X006994Y011328D01*
X007059Y011357D01*
X007125Y011383D01*
X007193Y011406D01*
X007261Y011424D01*
X007331Y011439D01*
X007401Y011450D01*
X007472Y011457D01*
X007543Y011460D01*
X007614Y011459D01*
X007685Y011454D01*
X007756Y011445D01*
X007826Y011432D01*
X007895Y011416D01*
X007963Y011395D01*
X008030Y011371D01*
X008096Y011343D01*
X008159Y011311D01*
X008221Y011276D01*
X008281Y011238D01*
X008339Y011196D01*
X008394Y011152D01*
X008447Y011104D01*
X008497Y011053D01*
X008544Y011000D01*
X008588Y010944D01*
X008629Y010886D01*
X008667Y010825D01*
X008701Y010763D01*
X008731Y010698D01*
X008758Y010633D01*
X008782Y010565D01*
X008801Y010497D01*
X008817Y010428D01*
X008829Y010357D01*
X008837Y010287D01*
X008841Y010216D01*
X008841Y010144D01*
X008837Y010073D01*
X008829Y010003D01*
X008817Y009932D01*
X008801Y009863D01*
X008782Y009795D01*
X008758Y009727D01*
X008731Y009662D01*
X008701Y009597D01*
X008667Y009535D01*
X008629Y009474D01*
X008588Y009416D01*
X008544Y009360D01*
X008497Y009307D01*
X008447Y009256D01*
X008394Y009208D01*
X008339Y009164D01*
X008281Y009122D01*
X008221Y009084D01*
X008159Y009049D01*
X008096Y009017D01*
X008030Y008989D01*
X007963Y008965D01*
X007895Y008944D01*
X007826Y008928D01*
X007756Y008915D01*
X007685Y008906D01*
X007614Y008901D01*
X007543Y008900D01*
X007472Y008903D01*
X007401Y008910D01*
X007331Y008921D01*
X007261Y008936D01*
X007193Y008954D01*
X007125Y008977D01*
X007059Y009003D01*
X006994Y009032D01*
X006931Y009066D01*
X006870Y009102D01*
X006812Y009142D01*
X006755Y009186D01*
X006701Y009232D01*
X006650Y009281D01*
X006601Y009333D01*
X006556Y009388D01*
X006513Y009445D01*
X006474Y009504D01*
X006438Y009566D01*
X006406Y009629D01*
X006377Y009694D01*
X006352Y009761D01*
X006330Y009829D01*
X006313Y009898D01*
X006299Y009967D01*
X006289Y010038D01*
X006283Y010109D01*
X006281Y010180D01*
X006811Y010680D02*
X007311Y010680D01*
X004561Y011430D02*
X004561Y011930D01*
X004311Y012180D01*
X004561Y012430D01*
X004561Y012930D01*
X004311Y013180D01*
X004561Y013430D01*
X004561Y013930D01*
X004311Y014180D01*
X003811Y014180D01*
X003561Y013930D01*
X003561Y013430D01*
X003811Y013180D01*
X003561Y012930D01*
X003561Y012430D01*
X003811Y012180D01*
X003561Y011930D01*
X003561Y011430D01*
X003811Y011180D01*
X004311Y011180D01*
X004561Y011430D01*
X006281Y014680D02*
X006283Y014751D01*
X006289Y014822D01*
X006299Y014893D01*
X006313Y014962D01*
X006330Y015031D01*
X006352Y015099D01*
X006377Y015166D01*
X006406Y015231D01*
X006438Y015294D01*
X006474Y015356D01*
X006513Y015415D01*
X006556Y015472D01*
X006601Y015527D01*
X006650Y015579D01*
X006701Y015628D01*
X006755Y015674D01*
X006812Y015718D01*
X006870Y015758D01*
X006931Y015794D01*
X006994Y015828D01*
X007059Y015857D01*
X007125Y015883D01*
X007193Y015906D01*
X007261Y015924D01*
X007331Y015939D01*
X007401Y015950D01*
X007472Y015957D01*
X007543Y015960D01*
X007614Y015959D01*
X007685Y015954D01*
X007756Y015945D01*
X007826Y015932D01*
X007895Y015916D01*
X007963Y015895D01*
X008030Y015871D01*
X008096Y015843D01*
X008159Y015811D01*
X008221Y015776D01*
X008281Y015738D01*
X008339Y015696D01*
X008394Y015652D01*
X008447Y015604D01*
X008497Y015553D01*
X008544Y015500D01*
X008588Y015444D01*
X008629Y015386D01*
X008667Y015325D01*
X008701Y015263D01*
X008731Y015198D01*
X008758Y015133D01*
X008782Y015065D01*
X008801Y014997D01*
X008817Y014928D01*
X008829Y014857D01*
X008837Y014787D01*
X008841Y014716D01*
X008841Y014644D01*
X008837Y014573D01*
X008829Y014503D01*
X008817Y014432D01*
X008801Y014363D01*
X008782Y014295D01*
X008758Y014227D01*
X008731Y014162D01*
X008701Y014097D01*
X008667Y014035D01*
X008629Y013974D01*
X008588Y013916D01*
X008544Y013860D01*
X008497Y013807D01*
X008447Y013756D01*
X008394Y013708D01*
X008339Y013664D01*
X008281Y013622D01*
X008221Y013584D01*
X008159Y013549D01*
X008096Y013517D01*
X008030Y013489D01*
X007963Y013465D01*
X007895Y013444D01*
X007826Y013428D01*
X007756Y013415D01*
X007685Y013406D01*
X007614Y013401D01*
X007543Y013400D01*
X007472Y013403D01*
X007401Y013410D01*
X007331Y013421D01*
X007261Y013436D01*
X007193Y013454D01*
X007125Y013477D01*
X007059Y013503D01*
X006994Y013532D01*
X006931Y013566D01*
X006870Y013602D01*
X006812Y013642D01*
X006755Y013686D01*
X006701Y013732D01*
X006650Y013781D01*
X006601Y013833D01*
X006556Y013888D01*
X006513Y013945D01*
X006474Y014004D01*
X006438Y014066D01*
X006406Y014129D01*
X006377Y014194D01*
X006352Y014261D01*
X006330Y014329D01*
X006313Y014398D01*
X006299Y014467D01*
X006289Y014538D01*
X006283Y014609D01*
X006281Y014680D01*
X006811Y015180D02*
X007311Y015180D01*
X006360Y016318D02*
X006360Y021042D01*
X004825Y021042D01*
X003171Y021042D02*
X001675Y021042D01*
X001675Y016318D02*
X003171Y016318D01*
X004825Y016318D02*
X006360Y016318D01*
X010261Y016180D02*
X010261Y014180D01*
X010561Y014180D01*
X010561Y014080D01*
X010561Y014180D02*
X010861Y014180D01*
X010861Y016180D01*
X010561Y016180D01*
X010561Y016280D01*
X010561Y016180D02*
X010261Y016180D01*
X010561Y019080D02*
X010561Y019180D01*
X010261Y019180D01*
X010261Y021180D01*
X010561Y021180D01*
X010561Y021280D01*
X010561Y021180D02*
X010861Y021180D01*
X010861Y019180D01*
X010561Y019180D01*
X009061Y019930D02*
X009061Y021430D01*
X024061Y004930D02*
X024061Y003430D01*
D16*
X009061Y019930D02*
X009018Y019876D01*
X008972Y019824D01*
X008923Y019775D01*
X008871Y019728D01*
X008817Y019685D01*
X008761Y019644D01*
X008702Y019607D01*
X008642Y019573D01*
X008579Y019543D01*
X008516Y019516D01*
X008450Y019492D01*
X008384Y019472D01*
X008316Y019456D01*
X008248Y019444D01*
X008179Y019436D01*
X008110Y019431D01*
X008040Y019430D01*
X007971Y019433D01*
X007902Y019440D01*
X007834Y019451D01*
X007766Y019465D01*
X007699Y019484D01*
X007633Y019506D01*
X007568Y019531D01*
X007505Y019560D01*
X007444Y019593D01*
X007385Y019629D01*
X007328Y019668D01*
X007272Y019710D01*
X007220Y019755D01*
X007170Y019803D01*
X007123Y019854D01*
X007078Y019908D01*
X007037Y019963D01*
X006999Y020021D01*
X006964Y020081D01*
X006932Y020143D01*
X006904Y020206D01*
X006880Y020271D01*
X006859Y020337D01*
X006842Y020405D01*
X006828Y020473D01*
X006819Y020542D01*
X006813Y020611D01*
X006811Y020680D01*
X006813Y020749D01*
X006819Y020818D01*
X006828Y020887D01*
X006842Y020955D01*
X006859Y021023D01*
X006880Y021089D01*
X006904Y021154D01*
X006932Y021217D01*
X006964Y021279D01*
X006999Y021339D01*
X007037Y021397D01*
X007078Y021452D01*
X007123Y021506D01*
X007170Y021557D01*
X007220Y021605D01*
X007272Y021650D01*
X007328Y021692D01*
X007385Y021731D01*
X007444Y021767D01*
X007505Y021800D01*
X007568Y021829D01*
X007633Y021854D01*
X007699Y021876D01*
X007766Y021895D01*
X007834Y021909D01*
X007902Y021920D01*
X007971Y021927D01*
X008040Y021930D01*
X008110Y021929D01*
X008179Y021924D01*
X008248Y021916D01*
X008316Y021904D01*
X008384Y021888D01*
X008450Y021868D01*
X008516Y021844D01*
X008579Y021817D01*
X008642Y021787D01*
X008702Y021753D01*
X008761Y021716D01*
X008817Y021675D01*
X008871Y021632D01*
X008923Y021585D01*
X008972Y021536D01*
X009018Y021484D01*
X009061Y021430D01*
D17*
X015411Y005580D02*
X017711Y005580D01*
X017770Y005578D01*
X017828Y005572D01*
X017887Y005563D01*
X017944Y005549D01*
X018000Y005532D01*
X018055Y005511D01*
X018109Y005487D01*
X018161Y005459D01*
X018211Y005428D01*
X018259Y005394D01*
X018304Y005357D01*
X018347Y005316D01*
X018388Y005273D01*
X018425Y005228D01*
X018459Y005180D01*
X018490Y005130D01*
X018518Y005078D01*
X018542Y005024D01*
X018563Y004969D01*
X018580Y004913D01*
X018594Y004856D01*
X018603Y004797D01*
X018609Y004739D01*
X018611Y004680D01*
X018609Y004621D01*
X018603Y004563D01*
X018594Y004504D01*
X018580Y004447D01*
X018563Y004391D01*
X018542Y004336D01*
X018518Y004282D01*
X018490Y004230D01*
X018459Y004180D01*
X018425Y004132D01*
X018388Y004087D01*
X018347Y004044D01*
X018304Y004003D01*
X018259Y003966D01*
X018211Y003932D01*
X018161Y003901D01*
X018109Y003873D01*
X018055Y003849D01*
X018000Y003828D01*
X017944Y003811D01*
X017887Y003797D01*
X017828Y003788D01*
X017770Y003782D01*
X017711Y003780D01*
X015411Y003780D01*
X015352Y003782D01*
X015294Y003788D01*
X015235Y003797D01*
X015178Y003811D01*
X015122Y003828D01*
X015067Y003849D01*
X015013Y003873D01*
X014961Y003901D01*
X014911Y003932D01*
X014863Y003966D01*
X014818Y004003D01*
X014775Y004044D01*
X014734Y004087D01*
X014697Y004132D01*
X014663Y004180D01*
X014632Y004230D01*
X014604Y004282D01*
X014580Y004336D01*
X014559Y004391D01*
X014542Y004447D01*
X014528Y004504D01*
X014519Y004563D01*
X014513Y004621D01*
X014511Y004680D01*
X014513Y004739D01*
X014519Y004797D01*
X014528Y004856D01*
X014542Y004913D01*
X014559Y004969D01*
X014580Y005024D01*
X014604Y005078D01*
X014632Y005130D01*
X014663Y005180D01*
X014697Y005228D01*
X014734Y005273D01*
X014775Y005316D01*
X014818Y005357D01*
X014863Y005394D01*
X014911Y005428D01*
X014961Y005459D01*
X015013Y005487D01*
X015067Y005511D01*
X015122Y005532D01*
X015178Y005549D01*
X015235Y005563D01*
X015294Y005572D01*
X015352Y005578D01*
X015411Y005580D01*
D18*
X003261Y002680D02*
X001311Y002680D01*
X001311Y003680D02*
X003261Y003680D01*
X003261Y004680D02*
X001311Y004680D01*
X001311Y007180D02*
X003261Y007180D01*
X003261Y008180D02*
X001311Y008180D01*
X001311Y009180D02*
X003261Y009180D01*
D19*
X003361Y009180D03*
X003361Y008180D03*
X003361Y007180D03*
X004561Y007180D03*
X004561Y008180D03*
X004561Y009180D03*
X004561Y004680D03*
X004561Y003680D03*
X004561Y002680D03*
X003361Y002680D03*
X003361Y003680D03*
X003361Y004680D03*
D20*
X024093Y004960D02*
X024021Y004906D01*
X024022Y004907D02*
X023979Y004960D01*
X023934Y005011D01*
X023885Y005059D01*
X023834Y005104D01*
X023780Y005147D01*
X023724Y005186D01*
X023666Y005222D01*
X023606Y005255D01*
X023545Y005284D01*
X023481Y005309D01*
X023417Y005331D01*
X023351Y005350D01*
X023284Y005364D01*
X023217Y005375D01*
X023149Y005382D01*
X023081Y005385D01*
X023012Y005384D01*
X022944Y005379D01*
X022876Y005371D01*
X022809Y005358D01*
X022743Y005342D01*
X022678Y005322D01*
X022613Y005299D01*
X022551Y005272D01*
X022490Y005241D01*
X022431Y005207D01*
X022373Y005170D01*
X022318Y005129D01*
X022266Y005085D01*
X022216Y005039D01*
X022169Y004990D01*
X022124Y004938D01*
X022083Y004884D01*
X022044Y004827D01*
X022009Y004768D01*
X021978Y004708D01*
X021950Y004646D01*
X021925Y004582D01*
X021904Y004517D01*
X021887Y004451D01*
X021873Y004384D01*
X021864Y004316D01*
X021858Y004248D01*
X021856Y004180D01*
X021858Y004112D01*
X021864Y004044D01*
X021873Y003976D01*
X021887Y003909D01*
X021904Y003843D01*
X021925Y003778D01*
X021950Y003714D01*
X021978Y003652D01*
X022009Y003592D01*
X022044Y003533D01*
X022083Y003476D01*
X022124Y003422D01*
X022169Y003370D01*
X022216Y003321D01*
X022266Y003275D01*
X022318Y003231D01*
X022373Y003190D01*
X022431Y003153D01*
X022490Y003119D01*
X022551Y003088D01*
X022613Y003061D01*
X022678Y003038D01*
X022743Y003018D01*
X022809Y003002D01*
X022876Y002989D01*
X022944Y002981D01*
X023012Y002976D01*
X023081Y002975D01*
X023149Y002978D01*
X023217Y002985D01*
X023284Y002996D01*
X023351Y003010D01*
X023417Y003029D01*
X023481Y003051D01*
X023545Y003076D01*
X023606Y003105D01*
X023666Y003138D01*
X023724Y003174D01*
X023780Y003213D01*
X023834Y003256D01*
X023885Y003301D01*
X023934Y003349D01*
X023979Y003400D01*
X024022Y003453D01*
X024093Y003400D01*
X024094Y003399D01*
X024050Y003344D01*
X024002Y003291D01*
X023952Y003240D01*
X023899Y003193D01*
X023844Y003149D01*
X023786Y003107D01*
X023726Y003069D01*
X023665Y003034D01*
X023601Y003003D01*
X023536Y002975D01*
X023469Y002951D01*
X023401Y002930D01*
X023332Y002914D01*
X023262Y002901D01*
X023192Y002892D01*
X023121Y002886D01*
X023050Y002885D01*
X022979Y002888D01*
X022908Y002894D01*
X022838Y002904D01*
X022769Y002918D01*
X022700Y002936D01*
X022632Y002958D01*
X022566Y002983D01*
X022501Y003012D01*
X022438Y003045D01*
X022377Y003081D01*
X022318Y003120D01*
X022261Y003162D01*
X022206Y003207D01*
X022154Y003256D01*
X022105Y003307D01*
X022058Y003360D01*
X022015Y003417D01*
X021975Y003475D01*
X021938Y003536D01*
X021904Y003598D01*
X021874Y003662D01*
X021847Y003728D01*
X021824Y003795D01*
X021805Y003864D01*
X021790Y003933D01*
X021778Y004003D01*
X021770Y004074D01*
X021766Y004145D01*
X021766Y004215D01*
X021770Y004286D01*
X021778Y004357D01*
X021790Y004427D01*
X021805Y004496D01*
X021824Y004565D01*
X021847Y004632D01*
X021874Y004698D01*
X021904Y004762D01*
X021938Y004824D01*
X021975Y004885D01*
X022015Y004943D01*
X022058Y005000D01*
X022105Y005053D01*
X022154Y005104D01*
X022206Y005153D01*
X022261Y005198D01*
X022318Y005240D01*
X022377Y005279D01*
X022438Y005315D01*
X022501Y005348D01*
X022566Y005377D01*
X022632Y005402D01*
X022700Y005424D01*
X022769Y005442D01*
X022838Y005456D01*
X022908Y005466D01*
X022979Y005472D01*
X023050Y005475D01*
X023121Y005474D01*
X023192Y005468D01*
X023262Y005459D01*
X023332Y005446D01*
X023401Y005430D01*
X023469Y005409D01*
X023536Y005385D01*
X023601Y005357D01*
X023665Y005326D01*
X023726Y005291D01*
X023786Y005253D01*
X023844Y005211D01*
X023899Y005167D01*
X023952Y005120D01*
X024002Y005069D01*
X024050Y005016D01*
X024094Y004961D01*
X024087Y004956D01*
X024042Y005011D01*
X023995Y005064D01*
X023944Y005115D01*
X023891Y005162D01*
X023835Y005207D01*
X023777Y005248D01*
X023717Y005286D01*
X023655Y005321D01*
X023591Y005352D01*
X023525Y005379D01*
X023458Y005403D01*
X023389Y005423D01*
X023320Y005440D01*
X023250Y005452D01*
X023179Y005461D01*
X023108Y005465D01*
X023037Y005466D01*
X022966Y005462D01*
X022895Y005455D01*
X022824Y005444D01*
X022755Y005429D01*
X022686Y005410D01*
X022618Y005387D01*
X022552Y005361D01*
X022487Y005331D01*
X022425Y005297D01*
X022364Y005261D01*
X022305Y005220D01*
X022248Y005177D01*
X022194Y005130D01*
X022143Y005081D01*
X022095Y005028D01*
X022049Y004974D01*
X022007Y004916D01*
X021968Y004857D01*
X021932Y004795D01*
X021899Y004732D01*
X021871Y004667D01*
X021845Y004600D01*
X021824Y004532D01*
X021806Y004463D01*
X021793Y004393D01*
X021783Y004322D01*
X021777Y004251D01*
X021775Y004180D01*
X021777Y004109D01*
X021783Y004038D01*
X021793Y003967D01*
X021806Y003897D01*
X021824Y003828D01*
X021845Y003760D01*
X021871Y003693D01*
X021899Y003628D01*
X021932Y003565D01*
X021968Y003503D01*
X022007Y003444D01*
X022049Y003386D01*
X022095Y003332D01*
X022143Y003279D01*
X022194Y003230D01*
X022248Y003183D01*
X022305Y003140D01*
X022364Y003099D01*
X022425Y003063D01*
X022487Y003029D01*
X022552Y002999D01*
X022618Y002973D01*
X022686Y002950D01*
X022755Y002931D01*
X022824Y002916D01*
X022895Y002905D01*
X022966Y002898D01*
X023037Y002894D01*
X023108Y002895D01*
X023179Y002899D01*
X023250Y002908D01*
X023320Y002920D01*
X023389Y002937D01*
X023458Y002957D01*
X023525Y002981D01*
X023591Y003008D01*
X023655Y003039D01*
X023717Y003074D01*
X023777Y003112D01*
X023835Y003153D01*
X023891Y003198D01*
X023944Y003245D01*
X023995Y003296D01*
X024042Y003349D01*
X024087Y003404D01*
X024080Y003410D01*
X024035Y003355D01*
X023988Y003302D01*
X023938Y003252D01*
X023885Y003205D01*
X023830Y003161D01*
X023772Y003119D01*
X023713Y003082D01*
X023651Y003047D01*
X023587Y003016D01*
X023522Y002989D01*
X023455Y002965D01*
X023387Y002945D01*
X023318Y002929D01*
X023249Y002917D01*
X023178Y002908D01*
X023108Y002904D01*
X023037Y002903D01*
X022966Y002907D01*
X022896Y002914D01*
X022826Y002925D01*
X022757Y002940D01*
X022689Y002959D01*
X022621Y002981D01*
X022556Y003007D01*
X022491Y003037D01*
X022429Y003070D01*
X022369Y003107D01*
X022310Y003147D01*
X022254Y003190D01*
X022200Y003236D01*
X022150Y003286D01*
X022101Y003337D01*
X022056Y003392D01*
X022014Y003449D01*
X021975Y003508D01*
X021940Y003569D01*
X021907Y003632D01*
X021879Y003697D01*
X021854Y003763D01*
X021833Y003831D01*
X021815Y003899D01*
X021802Y003969D01*
X021792Y004039D01*
X021786Y004109D01*
X021784Y004180D01*
X021786Y004251D01*
X021792Y004321D01*
X021802Y004391D01*
X021815Y004461D01*
X021833Y004529D01*
X021854Y004597D01*
X021879Y004663D01*
X021907Y004728D01*
X021940Y004791D01*
X021975Y004852D01*
X022014Y004911D01*
X022056Y004968D01*
X022101Y005023D01*
X022150Y005074D01*
X022200Y005124D01*
X022254Y005170D01*
X022310Y005213D01*
X022369Y005253D01*
X022429Y005290D01*
X022491Y005323D01*
X022556Y005353D01*
X022621Y005379D01*
X022689Y005401D01*
X022757Y005420D01*
X022826Y005435D01*
X022896Y005446D01*
X022966Y005453D01*
X023037Y005457D01*
X023108Y005456D01*
X023178Y005452D01*
X023249Y005443D01*
X023318Y005431D01*
X023387Y005415D01*
X023455Y005395D01*
X023522Y005371D01*
X023587Y005344D01*
X023651Y005313D01*
X023713Y005278D01*
X023772Y005241D01*
X023830Y005199D01*
X023885Y005155D01*
X023938Y005108D01*
X023988Y005058D01*
X024035Y005005D01*
X024080Y004950D01*
X024072Y004945D01*
X024028Y005000D01*
X023980Y005053D01*
X023930Y005103D01*
X023877Y005151D01*
X023821Y005195D01*
X023763Y005236D01*
X023703Y005273D01*
X023641Y005308D01*
X023577Y005338D01*
X023511Y005365D01*
X023444Y005389D01*
X023376Y005408D01*
X023306Y005424D01*
X023236Y005436D01*
X023166Y005444D01*
X023095Y005448D01*
X023024Y005447D01*
X022953Y005443D01*
X022882Y005435D01*
X022812Y005423D01*
X022743Y005407D01*
X022675Y005388D01*
X022607Y005364D01*
X022542Y005337D01*
X022478Y005306D01*
X022416Y005272D01*
X022356Y005234D01*
X022298Y005192D01*
X022242Y005148D01*
X022189Y005101D01*
X022139Y005050D01*
X022092Y004997D01*
X022047Y004942D01*
X022006Y004884D01*
X021969Y004824D01*
X021934Y004761D01*
X021903Y004697D01*
X021876Y004632D01*
X021853Y004565D01*
X021833Y004496D01*
X021817Y004427D01*
X021805Y004357D01*
X021797Y004286D01*
X021793Y004216D01*
X021793Y004144D01*
X021797Y004074D01*
X021805Y004003D01*
X021817Y003933D01*
X021833Y003864D01*
X021853Y003795D01*
X021876Y003728D01*
X021903Y003663D01*
X021934Y003599D01*
X021969Y003536D01*
X022006Y003476D01*
X022047Y003418D01*
X022092Y003363D01*
X022139Y003310D01*
X022189Y003259D01*
X022242Y003212D01*
X022298Y003168D01*
X022356Y003126D01*
X022416Y003088D01*
X022478Y003054D01*
X022542Y003023D01*
X022607Y002996D01*
X022675Y002972D01*
X022743Y002953D01*
X022812Y002937D01*
X022882Y002925D01*
X022953Y002917D01*
X023024Y002913D01*
X023095Y002912D01*
X023166Y002916D01*
X023236Y002924D01*
X023306Y002936D01*
X023376Y002952D01*
X023444Y002971D01*
X023511Y002995D01*
X023577Y003022D01*
X023641Y003052D01*
X023703Y003087D01*
X023763Y003124D01*
X023821Y003165D01*
X023877Y003209D01*
X023930Y003257D01*
X023980Y003307D01*
X024028Y003360D01*
X024072Y003415D01*
X024065Y003421D01*
X024021Y003366D01*
X023974Y003313D01*
X023924Y003263D01*
X023871Y003216D01*
X023816Y003172D01*
X023758Y003132D01*
X023699Y003094D01*
X023637Y003060D01*
X023573Y003030D01*
X023508Y003003D01*
X023441Y002980D01*
X023373Y002960D01*
X023305Y002945D01*
X023235Y002933D01*
X023165Y002925D01*
X023094Y002921D01*
X023024Y002922D01*
X022953Y002926D01*
X022883Y002934D01*
X022814Y002946D01*
X022745Y002961D01*
X022677Y002981D01*
X022611Y003004D01*
X022546Y003031D01*
X022482Y003062D01*
X022420Y003096D01*
X022361Y003134D01*
X022303Y003175D01*
X022248Y003219D01*
X022195Y003266D01*
X022146Y003316D01*
X022099Y003368D01*
X022055Y003424D01*
X022014Y003481D01*
X021976Y003541D01*
X021942Y003603D01*
X021912Y003666D01*
X021885Y003731D01*
X021861Y003798D01*
X021842Y003866D01*
X021826Y003935D01*
X021814Y004004D01*
X021806Y004074D01*
X021802Y004145D01*
X021802Y004215D01*
X021806Y004286D01*
X021814Y004356D01*
X021826Y004425D01*
X021842Y004494D01*
X021861Y004562D01*
X021885Y004629D01*
X021912Y004694D01*
X021942Y004757D01*
X021976Y004819D01*
X022014Y004879D01*
X022055Y004936D01*
X022099Y004992D01*
X022146Y005044D01*
X022195Y005094D01*
X022248Y005141D01*
X022303Y005185D01*
X022361Y005226D01*
X022420Y005264D01*
X022482Y005298D01*
X022546Y005329D01*
X022611Y005356D01*
X022677Y005379D01*
X022745Y005399D01*
X022814Y005414D01*
X022883Y005426D01*
X022953Y005434D01*
X023024Y005438D01*
X023094Y005439D01*
X023165Y005435D01*
X023235Y005427D01*
X023305Y005415D01*
X023373Y005400D01*
X023441Y005380D01*
X023508Y005357D01*
X023573Y005330D01*
X023637Y005300D01*
X023699Y005266D01*
X023758Y005228D01*
X023816Y005188D01*
X023871Y005144D01*
X023924Y005097D01*
X023974Y005047D01*
X024021Y004994D01*
X024065Y004939D01*
X024058Y004934D01*
X024014Y004989D01*
X023967Y005041D01*
X023918Y005090D01*
X023865Y005137D01*
X023811Y005180D01*
X023753Y005221D01*
X023694Y005258D01*
X023633Y005292D01*
X023569Y005322D01*
X023505Y005349D01*
X023438Y005372D01*
X023371Y005391D01*
X023303Y005406D01*
X023234Y005418D01*
X023164Y005426D01*
X023094Y005430D01*
X023024Y005429D01*
X022954Y005425D01*
X022885Y005417D01*
X022816Y005406D01*
X022747Y005390D01*
X022680Y005371D01*
X022614Y005347D01*
X022549Y005320D01*
X022486Y005290D01*
X022425Y005256D01*
X022366Y005219D01*
X022308Y005178D01*
X022254Y005134D01*
X022202Y005088D01*
X022152Y005038D01*
X022105Y004986D01*
X022062Y004931D01*
X022021Y004874D01*
X021984Y004815D01*
X021950Y004753D01*
X021920Y004690D01*
X021893Y004625D01*
X021870Y004559D01*
X021851Y004492D01*
X021835Y004424D01*
X021823Y004355D01*
X021815Y004285D01*
X021811Y004215D01*
X021811Y004145D01*
X021815Y004075D01*
X021823Y004005D01*
X021835Y003936D01*
X021851Y003868D01*
X021870Y003801D01*
X021893Y003735D01*
X021920Y003670D01*
X021950Y003607D01*
X021984Y003545D01*
X022021Y003486D01*
X022062Y003429D01*
X022105Y003374D01*
X022152Y003322D01*
X022202Y003272D01*
X022254Y003226D01*
X022308Y003182D01*
X022366Y003141D01*
X022425Y003104D01*
X022486Y003070D01*
X022549Y003040D01*
X022614Y003013D01*
X022680Y002989D01*
X022747Y002970D01*
X022816Y002954D01*
X022885Y002943D01*
X022954Y002935D01*
X023024Y002931D01*
X023094Y002930D01*
X023164Y002934D01*
X023234Y002942D01*
X023303Y002954D01*
X023371Y002969D01*
X023438Y002988D01*
X023505Y003011D01*
X023569Y003038D01*
X023633Y003068D01*
X023694Y003102D01*
X023753Y003139D01*
X023811Y003180D01*
X023865Y003223D01*
X023918Y003270D01*
X023967Y003319D01*
X024014Y003371D01*
X024058Y003426D01*
X024051Y003431D01*
X024007Y003377D01*
X023961Y003325D01*
X023912Y003276D01*
X023860Y003230D01*
X023805Y003187D01*
X023748Y003147D01*
X023689Y003110D01*
X023628Y003076D01*
X023566Y003046D01*
X023501Y003020D01*
X023436Y002997D01*
X023369Y002978D01*
X023301Y002962D01*
X023232Y002951D01*
X023163Y002943D01*
X023094Y002939D01*
X023024Y002940D01*
X022955Y002944D01*
X022886Y002951D01*
X022817Y002963D01*
X022750Y002979D01*
X022683Y002998D01*
X022617Y003021D01*
X022553Y003048D01*
X022490Y003078D01*
X022429Y003112D01*
X022371Y003149D01*
X022314Y003189D01*
X022260Y003232D01*
X022208Y003279D01*
X022159Y003328D01*
X022112Y003380D01*
X022069Y003434D01*
X022029Y003491D01*
X021992Y003550D01*
X021958Y003611D01*
X021928Y003674D01*
X021901Y003738D01*
X021878Y003803D01*
X021859Y003870D01*
X021844Y003938D01*
X021832Y004007D01*
X021824Y004076D01*
X021820Y004145D01*
X021820Y004215D01*
X021824Y004284D01*
X021832Y004353D01*
X021844Y004422D01*
X021859Y004490D01*
X021878Y004557D01*
X021901Y004622D01*
X021928Y004686D01*
X021958Y004749D01*
X021992Y004810D01*
X022029Y004869D01*
X022069Y004926D01*
X022112Y004980D01*
X022159Y005032D01*
X022208Y005081D01*
X022260Y005128D01*
X022314Y005171D01*
X022371Y005211D01*
X022429Y005248D01*
X022490Y005282D01*
X022553Y005312D01*
X022617Y005339D01*
X022683Y005362D01*
X022750Y005381D01*
X022817Y005397D01*
X022886Y005409D01*
X022955Y005416D01*
X023024Y005420D01*
X023094Y005421D01*
X023163Y005417D01*
X023232Y005409D01*
X023301Y005398D01*
X023369Y005382D01*
X023436Y005363D01*
X023501Y005340D01*
X023566Y005314D01*
X023628Y005284D01*
X023689Y005250D01*
X023748Y005213D01*
X023805Y005173D01*
X023860Y005130D01*
X023912Y005084D01*
X023961Y005035D01*
X024007Y004983D01*
X024051Y004929D01*
X024044Y004923D01*
X024000Y004977D01*
X023954Y005028D01*
X023905Y005077D01*
X023854Y005123D01*
X023800Y005166D01*
X023743Y005206D01*
X023685Y005242D01*
X023624Y005276D01*
X023562Y005306D01*
X023498Y005332D01*
X023433Y005354D01*
X023367Y005373D01*
X023299Y005389D01*
X023231Y005400D01*
X023163Y005408D01*
X023094Y005412D01*
X023025Y005411D01*
X022956Y005407D01*
X022887Y005400D01*
X022819Y005388D01*
X022752Y005373D01*
X022685Y005353D01*
X022620Y005330D01*
X022557Y005304D01*
X022494Y005274D01*
X022434Y005241D01*
X022376Y005204D01*
X022319Y005164D01*
X022265Y005121D01*
X022214Y005075D01*
X022165Y005026D01*
X022119Y004974D01*
X022076Y004920D01*
X022036Y004864D01*
X022000Y004805D01*
X021966Y004745D01*
X021936Y004683D01*
X021910Y004619D01*
X021887Y004554D01*
X021868Y004487D01*
X021853Y004420D01*
X021841Y004352D01*
X021833Y004283D01*
X021829Y004215D01*
X021829Y004145D01*
X021833Y004077D01*
X021841Y004008D01*
X021853Y003940D01*
X021868Y003873D01*
X021887Y003806D01*
X021910Y003741D01*
X021936Y003677D01*
X021966Y003615D01*
X022000Y003555D01*
X022036Y003496D01*
X022076Y003440D01*
X022119Y003386D01*
X022165Y003334D01*
X022214Y003285D01*
X022265Y003239D01*
X022319Y003196D01*
X022376Y003156D01*
X022434Y003119D01*
X022494Y003086D01*
X022557Y003056D01*
X022620Y003030D01*
X022685Y003007D01*
X022752Y002987D01*
X022819Y002972D01*
X022887Y002960D01*
X022956Y002953D01*
X023025Y002949D01*
X023094Y002948D01*
X023163Y002952D01*
X023231Y002960D01*
X023299Y002971D01*
X023367Y002987D01*
X023433Y003006D01*
X023498Y003028D01*
X023562Y003054D01*
X023624Y003084D01*
X023685Y003118D01*
X023743Y003154D01*
X023800Y003194D01*
X023854Y003237D01*
X023905Y003283D01*
X023954Y003332D01*
X024000Y003383D01*
X024044Y003437D01*
X024036Y003442D01*
X023993Y003388D01*
X023947Y003337D01*
X023897Y003288D01*
X023846Y003242D01*
X023791Y003199D01*
X023734Y003159D01*
X023676Y003123D01*
X023615Y003089D01*
X023552Y003060D01*
X023488Y003034D01*
X023422Y003012D01*
X023355Y002993D01*
X023288Y002978D01*
X023219Y002967D01*
X023150Y002960D01*
X023081Y002957D01*
X023012Y002958D01*
X022942Y002963D01*
X022874Y002971D01*
X022806Y002984D01*
X022738Y003000D01*
X022672Y003021D01*
X022607Y003044D01*
X022543Y003072D01*
X022481Y003103D01*
X022421Y003138D01*
X022363Y003176D01*
X022307Y003217D01*
X022254Y003261D01*
X022203Y003308D01*
X022155Y003358D01*
X022110Y003411D01*
X022068Y003466D01*
X022029Y003523D01*
X021994Y003583D01*
X021962Y003644D01*
X021933Y003707D01*
X021908Y003772D01*
X021887Y003838D01*
X021869Y003905D01*
X021856Y003973D01*
X021846Y004042D01*
X021840Y004111D01*
X021838Y004180D01*
X021840Y004249D01*
X021846Y004318D01*
X021856Y004387D01*
X021869Y004455D01*
X021887Y004522D01*
X021908Y004588D01*
X021933Y004653D01*
X021962Y004716D01*
X021994Y004777D01*
X022029Y004837D01*
X022068Y004894D01*
X022110Y004949D01*
X022155Y005002D01*
X022203Y005052D01*
X022254Y005099D01*
X022307Y005143D01*
X022363Y005184D01*
X022421Y005222D01*
X022481Y005257D01*
X022543Y005288D01*
X022607Y005316D01*
X022672Y005339D01*
X022738Y005360D01*
X022806Y005376D01*
X022874Y005389D01*
X022942Y005397D01*
X023012Y005402D01*
X023081Y005403D01*
X023150Y005400D01*
X023219Y005393D01*
X023288Y005382D01*
X023355Y005367D01*
X023422Y005348D01*
X023488Y005326D01*
X023552Y005300D01*
X023615Y005271D01*
X023676Y005237D01*
X023734Y005201D01*
X023791Y005161D01*
X023846Y005118D01*
X023897Y005072D01*
X023947Y005023D01*
X023993Y004972D01*
X024036Y004918D01*
X024029Y004912D01*
X023986Y004966D01*
X023940Y005017D01*
X023891Y005066D01*
X023840Y005111D01*
X023786Y005154D01*
X023729Y005193D01*
X023671Y005230D01*
X023611Y005263D01*
X023548Y005292D01*
X023485Y005318D01*
X023419Y005340D01*
X023353Y005358D01*
X023286Y005373D01*
X023218Y005384D01*
X023149Y005391D01*
X023081Y005394D01*
X023012Y005393D01*
X022943Y005388D01*
X022875Y005380D01*
X022807Y005367D01*
X022741Y005351D01*
X022675Y005331D01*
X022610Y005307D01*
X022547Y005280D01*
X022486Y005249D01*
X022426Y005215D01*
X022368Y005177D01*
X022313Y005136D01*
X022260Y005092D01*
X022210Y005045D01*
X022162Y004996D01*
X022117Y004944D01*
X022075Y004889D01*
X022037Y004832D01*
X022002Y004773D01*
X021970Y004712D01*
X021941Y004649D01*
X021917Y004585D01*
X021895Y004519D01*
X021878Y004453D01*
X021865Y004385D01*
X021855Y004317D01*
X021849Y004249D01*
X021847Y004180D01*
X021849Y004111D01*
X021855Y004043D01*
X021865Y003975D01*
X021878Y003907D01*
X021895Y003841D01*
X021917Y003775D01*
X021941Y003711D01*
X021970Y003648D01*
X022002Y003587D01*
X022037Y003528D01*
X022075Y003471D01*
X022117Y003416D01*
X022162Y003364D01*
X022210Y003315D01*
X022260Y003268D01*
X022313Y003224D01*
X022368Y003183D01*
X022426Y003145D01*
X022486Y003111D01*
X022547Y003080D01*
X022610Y003053D01*
X022675Y003029D01*
X022741Y003009D01*
X022807Y002993D01*
X022875Y002980D01*
X022943Y002972D01*
X023012Y002967D01*
X023081Y002966D01*
X023149Y002969D01*
X023218Y002976D01*
X023286Y002987D01*
X023353Y003002D01*
X023419Y003020D01*
X023485Y003042D01*
X023548Y003068D01*
X023611Y003097D01*
X023671Y003130D01*
X023729Y003167D01*
X023786Y003206D01*
X023840Y003249D01*
X023891Y003294D01*
X023940Y003343D01*
X023986Y003394D01*
X024029Y003448D01*
M02*
