G75*
G70*
%OFA0B0*%
%FSLAX24Y24*%
%IPPOS*%
%LPD*%
%AMOC8*
5,1,8,0,0,1.08239X$1,22.5*
%
%ADD10C,0.0000*%
%ADD11C,0.0560*%
%ADD12C,0.0640*%
%ADD13C,0.0650*%
%ADD14R,0.0650X0.0650*%
%ADD15OC8,0.0560*%
%ADD16C,0.0560*%
%ADD17C,0.0740*%
%ADD18C,0.0660*%
%ADD19C,0.1300*%
%ADD20C,0.0600*%
%ADD21C,0.0100*%
%ADD22C,0.0080*%
%ADD23C,0.0160*%
D10*
X002561Y000180D02*
X002561Y022676D01*
X025431Y022676D01*
X025431Y000180D01*
X002561Y000180D01*
D11*
X014781Y007680D02*
X015341Y007680D01*
X015341Y008680D02*
X014781Y008680D01*
X014781Y009680D02*
X015341Y009680D01*
X015341Y010680D02*
X014781Y010680D01*
X014781Y011680D02*
X015341Y011680D01*
X015341Y012680D02*
X014781Y012680D01*
X014781Y013680D02*
X015341Y013680D01*
X015341Y014680D02*
X014781Y014680D01*
X014781Y015680D02*
X015341Y015680D01*
X015341Y016680D02*
X014781Y016680D01*
X014781Y017680D02*
X015341Y017680D01*
X015341Y018680D02*
X014781Y018680D01*
X014781Y019680D02*
X015341Y019680D01*
X015341Y020680D02*
X014781Y020680D01*
X017781Y020680D02*
X018341Y020680D01*
X018341Y019680D02*
X017781Y019680D01*
X017781Y018680D02*
X018341Y018680D01*
X018341Y017680D02*
X017781Y017680D01*
X017781Y016680D02*
X018341Y016680D01*
X018341Y015680D02*
X017781Y015680D01*
X017781Y014680D02*
X018341Y014680D01*
X018341Y013680D02*
X017781Y013680D01*
X017781Y012680D02*
X018341Y012680D01*
X018341Y011680D02*
X017781Y011680D01*
X017781Y010680D02*
X018341Y010680D01*
X018341Y009680D02*
X017781Y009680D01*
X017781Y008680D02*
X018341Y008680D01*
X018341Y007680D02*
X017781Y007680D01*
D12*
X022741Y007680D02*
X023381Y007680D01*
X023381Y006680D02*
X022741Y006680D01*
X022741Y008680D02*
X023381Y008680D01*
X023381Y009680D02*
X022741Y009680D01*
X022741Y010680D02*
X023381Y010680D01*
X023381Y011680D02*
X022741Y011680D01*
X022741Y012680D02*
X023381Y012680D01*
X023381Y013680D02*
X022741Y013680D01*
X022741Y014680D02*
X023381Y014680D01*
X023381Y015680D02*
X022741Y015680D01*
X022741Y016680D02*
X023381Y016680D01*
X023381Y017680D02*
X022741Y017680D01*
X022741Y018680D02*
X023381Y018680D01*
X023381Y019680D02*
X022741Y019680D01*
X022741Y020680D02*
X023381Y020680D01*
X023381Y021680D02*
X022741Y021680D01*
X007881Y003680D02*
X007241Y003680D01*
X007241Y002680D02*
X007881Y002680D01*
X007881Y001680D02*
X007241Y001680D01*
D13*
X007061Y010180D03*
X007061Y014680D03*
D14*
X008061Y014680D03*
X008061Y010180D03*
D15*
X007561Y020680D03*
X008561Y020680D03*
D16*
X015611Y004680D03*
X017511Y004680D03*
D17*
X014561Y001680D03*
X011561Y001680D03*
X010561Y004680D03*
X010561Y007680D03*
X010561Y009180D03*
X010561Y012180D03*
X010561Y013680D03*
X010561Y016680D03*
X010561Y018680D03*
X010561Y021680D03*
X004061Y013680D03*
X004061Y012680D03*
X004061Y011680D03*
X022561Y004180D03*
X023561Y004180D03*
D18*
X005841Y018188D03*
X005061Y018188D03*
X005061Y019172D03*
X005841Y019172D03*
D19*
X003991Y021050D03*
X003991Y016310D03*
D20*
X004761Y009180D02*
X005361Y009180D01*
X005361Y008180D02*
X004761Y008180D01*
X004761Y007180D02*
X005361Y007180D01*
X005361Y004680D02*
X004761Y004680D01*
X004761Y003680D02*
X005361Y003680D01*
X005361Y002680D02*
X004761Y002680D01*
D21*
X005061Y003680D02*
X006061Y002680D01*
X006061Y001180D01*
X009561Y001180D01*
X016061Y007680D01*
X016061Y014680D01*
X018061Y016680D01*
X019061Y015680D02*
X018061Y014680D01*
X019061Y015680D02*
X019061Y017680D01*
X023061Y021680D01*
X023061Y020680D02*
X022061Y019680D01*
X022061Y008680D01*
X023061Y007680D01*
X023061Y006680D02*
X024061Y007680D01*
X024061Y009680D01*
X023061Y010680D01*
X023061Y011680D02*
X024561Y010180D01*
X024561Y006180D01*
X021561Y006180D01*
X018061Y009680D01*
X015061Y011680D02*
X010561Y016180D01*
X010561Y016680D01*
X010061Y018180D02*
X010061Y014180D01*
X010561Y013680D01*
X009061Y013680D02*
X009061Y006180D01*
X010561Y004680D01*
X008561Y002680D02*
X008561Y009680D01*
X008061Y010180D01*
X007561Y010680D01*
X007561Y020680D01*
X009561Y020680D02*
X009561Y008680D01*
X010561Y007680D01*
X007061Y006680D02*
X007061Y009180D01*
X005061Y009180D01*
X005061Y010680D01*
X004061Y011680D01*
X007061Y014680D01*
X007061Y016180D01*
X005061Y018180D01*
X005061Y018188D01*
X008061Y014680D02*
X009061Y013680D01*
X007061Y010180D02*
X007061Y009180D01*
X005061Y007180D02*
X003561Y008680D01*
X003561Y013180D01*
X004061Y013680D01*
X010061Y018180D02*
X010561Y018680D01*
X009561Y020680D02*
X015061Y020680D01*
X007061Y006680D02*
X005561Y005180D01*
X005561Y004680D01*
X007561Y002680D01*
X008561Y002680D02*
X007561Y001680D01*
X005061Y004680D02*
X005561Y005180D01*
X015561Y004680D02*
X015611Y004680D01*
X017511Y004680D01*
X017561Y004680D01*
D22*
X015561Y004680D02*
X015561Y002680D01*
X014561Y001680D01*
X020561Y004180D02*
X017061Y007680D01*
X017061Y010680D01*
X018061Y011680D01*
X020561Y004180D02*
X022561Y004180D01*
X004239Y012180D02*
X004061Y012180D01*
D23*
X003861Y012171D02*
X003771Y012134D01*
X003771Y012226D01*
X003861Y012189D01*
X003861Y012171D01*
X003351Y012102D02*
X002741Y012102D01*
X002741Y011944D02*
X003351Y011944D01*
X003351Y011785D02*
X002741Y011785D01*
X002741Y011627D02*
X003351Y011627D01*
X003351Y011468D02*
X002741Y011468D01*
X002741Y011310D02*
X003351Y011310D01*
X003351Y011151D02*
X002741Y011151D01*
X002741Y010993D02*
X003351Y010993D01*
X003351Y010834D02*
X002741Y010834D01*
X002741Y010676D02*
X003351Y010676D01*
X003351Y010517D02*
X002741Y010517D01*
X002741Y010359D02*
X003351Y010359D01*
X003351Y010200D02*
X002741Y010200D01*
X002741Y010042D02*
X003351Y010042D01*
X003351Y009883D02*
X002741Y009883D01*
X002741Y009725D02*
X003351Y009725D01*
X003351Y009566D02*
X002741Y009566D01*
X002741Y009408D02*
X003351Y009408D01*
X003351Y009249D02*
X002741Y009249D01*
X002741Y009091D02*
X003351Y009091D01*
X003351Y008932D02*
X002741Y008932D01*
X002741Y008774D02*
X003351Y008774D01*
X003351Y008615D02*
X002741Y008615D01*
X002741Y008457D02*
X003488Y008457D01*
X003351Y008593D02*
X004437Y007507D01*
X004371Y007441D01*
X004301Y007271D01*
X004301Y007088D01*
X004371Y006919D01*
X004501Y006790D01*
X004670Y006720D01*
X005453Y006720D01*
X005622Y006790D01*
X005751Y006919D01*
X005821Y007088D01*
X005821Y007271D01*
X005751Y007441D01*
X005622Y007570D01*
X005453Y007640D01*
X004898Y007640D01*
X004818Y007720D01*
X005453Y007720D01*
X005622Y007790D01*
X005751Y007919D01*
X005821Y008088D01*
X005821Y008271D01*
X005751Y008441D01*
X005622Y008570D01*
X005453Y008640D01*
X004670Y008640D01*
X004501Y008570D01*
X004371Y008441D01*
X004301Y008271D01*
X004301Y008237D01*
X003771Y008767D01*
X003771Y011226D01*
X003956Y011150D01*
X004167Y011150D01*
X004257Y011187D01*
X004851Y010593D01*
X004851Y009640D01*
X004670Y009640D01*
X004501Y009570D01*
X004371Y009441D01*
X004301Y009271D01*
X004301Y009088D01*
X004371Y008919D01*
X004501Y008790D01*
X004670Y008720D01*
X005453Y008720D01*
X005622Y008790D01*
X005751Y008919D01*
X005772Y008970D01*
X006851Y008970D01*
X006851Y006767D01*
X005474Y005390D01*
X005351Y005267D01*
X005224Y005140D01*
X004670Y005140D01*
X004501Y005070D01*
X004371Y004941D01*
X004301Y004771D01*
X004301Y004588D01*
X004371Y004419D01*
X004501Y004290D01*
X004670Y004220D01*
X005453Y004220D01*
X005622Y004290D01*
X005638Y004306D01*
X006913Y003031D01*
X006834Y002952D01*
X006761Y002775D01*
X006761Y002585D01*
X006834Y002408D01*
X006969Y002273D01*
X007146Y002200D01*
X007784Y002200D01*
X007744Y002160D01*
X007146Y002160D01*
X006969Y002087D01*
X006834Y001952D01*
X006761Y001775D01*
X006761Y001585D01*
X006834Y001408D01*
X006852Y001390D01*
X006271Y001390D01*
X006271Y002767D01*
X005685Y003353D01*
X005751Y003419D01*
X005821Y003588D01*
X005821Y003771D01*
X005751Y003941D01*
X005622Y004070D01*
X005453Y004140D01*
X004670Y004140D01*
X004501Y004070D01*
X004371Y003941D01*
X004301Y003771D01*
X004301Y003588D01*
X004371Y003419D01*
X004501Y003290D01*
X004670Y003220D01*
X005224Y003220D01*
X005304Y003140D01*
X004670Y003140D01*
X004501Y003070D01*
X004371Y002941D01*
X004301Y002771D01*
X004301Y002588D01*
X004371Y002419D01*
X004501Y002290D01*
X004670Y002220D01*
X005453Y002220D01*
X005622Y002290D01*
X005751Y002419D01*
X005821Y002588D01*
X005821Y002623D01*
X005851Y002593D01*
X005851Y001093D01*
X005974Y000970D01*
X009648Y000970D01*
X009771Y001093D01*
X016271Y007593D01*
X016271Y014593D01*
X017341Y015663D01*
X017341Y015592D01*
X017408Y015431D01*
X017532Y015307D01*
X017694Y015240D01*
X018324Y015240D01*
X018204Y015120D01*
X017694Y015120D01*
X017532Y015053D01*
X017408Y014929D01*
X017341Y014768D01*
X017341Y014592D01*
X017408Y014431D01*
X017532Y014307D01*
X017694Y014240D01*
X018429Y014240D01*
X018590Y014307D01*
X018714Y014431D01*
X018781Y014592D01*
X018781Y014768D01*
X018714Y014929D01*
X018661Y014983D01*
X019271Y015593D01*
X019271Y017593D01*
X022262Y020583D01*
X022334Y020408D01*
X022413Y020329D01*
X021974Y019890D01*
X021851Y019767D01*
X021851Y008593D01*
X022413Y008031D01*
X022334Y007952D01*
X022261Y007775D01*
X022261Y007585D01*
X022334Y007408D01*
X022469Y007273D01*
X022646Y007200D01*
X023284Y007200D01*
X023244Y007160D01*
X022646Y007160D01*
X022469Y007087D01*
X022334Y006952D01*
X022261Y006775D01*
X022261Y006585D01*
X022334Y006408D01*
X022352Y006390D01*
X021648Y006390D01*
X018661Y009377D01*
X018714Y009431D01*
X018781Y009592D01*
X018781Y009768D01*
X018714Y009929D01*
X018590Y010053D01*
X018429Y010120D01*
X017694Y010120D01*
X017532Y010053D01*
X017408Y009929D01*
X017341Y009768D01*
X017341Y009592D01*
X017408Y009431D01*
X017532Y009307D01*
X017694Y009240D01*
X018204Y009240D01*
X018324Y009120D01*
X017694Y009120D01*
X017532Y009053D01*
X017408Y008929D01*
X017341Y008768D01*
X017341Y008592D01*
X017408Y008431D01*
X017532Y008307D01*
X017694Y008240D01*
X018429Y008240D01*
X018590Y008307D01*
X018714Y008431D01*
X018781Y008592D01*
X018781Y008663D01*
X021351Y006093D01*
X021474Y005970D01*
X024648Y005970D01*
X024771Y006093D01*
X024771Y010267D01*
X023709Y011329D01*
X023788Y011408D01*
X023861Y011585D01*
X023861Y011775D01*
X023788Y011952D01*
X023653Y012087D01*
X023477Y012160D01*
X022646Y012160D01*
X022469Y012087D01*
X022334Y011952D01*
X022271Y011800D01*
X022271Y012560D01*
X022334Y012408D01*
X022469Y012273D01*
X022646Y012200D01*
X023477Y012200D01*
X023653Y012273D01*
X023788Y012408D01*
X023861Y012585D01*
X023861Y012775D01*
X023788Y012952D01*
X023653Y013087D01*
X023477Y013160D01*
X022646Y013160D01*
X022469Y013087D01*
X022334Y012952D01*
X022271Y012800D01*
X022271Y013560D01*
X022334Y013408D01*
X022469Y013273D01*
X022646Y013200D01*
X023477Y013200D01*
X023653Y013273D01*
X023788Y013408D01*
X023861Y013585D01*
X023861Y013775D01*
X023788Y013952D01*
X023653Y014087D01*
X023477Y014160D01*
X022646Y014160D01*
X022469Y014087D01*
X022334Y013952D01*
X022271Y013800D01*
X022271Y014560D01*
X022334Y014408D01*
X022469Y014273D01*
X022646Y014200D01*
X023477Y014200D01*
X023653Y014273D01*
X023788Y014408D01*
X023861Y014585D01*
X023861Y014775D01*
X023788Y014952D01*
X023653Y015087D01*
X023477Y015160D01*
X022646Y015160D01*
X022469Y015087D01*
X022334Y014952D01*
X022271Y014800D01*
X022271Y015560D01*
X022334Y015408D01*
X022469Y015273D01*
X022646Y015200D01*
X023477Y015200D01*
X023653Y015273D01*
X023788Y015408D01*
X023861Y015585D01*
X023861Y015775D01*
X023788Y015952D01*
X023653Y016087D01*
X023477Y016160D01*
X022646Y016160D01*
X022469Y016087D01*
X022334Y015952D01*
X022271Y015800D01*
X022271Y016560D01*
X022334Y016408D01*
X022469Y016273D01*
X022646Y016200D01*
X023477Y016200D01*
X023653Y016273D01*
X023788Y016408D01*
X023861Y016585D01*
X023861Y016775D01*
X023788Y016952D01*
X023653Y017087D01*
X023477Y017160D01*
X022646Y017160D01*
X022469Y017087D01*
X022334Y016952D01*
X022271Y016800D01*
X022271Y017560D01*
X022334Y017408D01*
X022469Y017273D01*
X022646Y017200D01*
X023477Y017200D01*
X023653Y017273D01*
X023788Y017408D01*
X023861Y017585D01*
X023861Y017775D01*
X023788Y017952D01*
X023653Y018087D01*
X023477Y018160D01*
X022646Y018160D01*
X022469Y018087D01*
X022334Y017952D01*
X022271Y017800D01*
X022271Y018560D01*
X022334Y018408D01*
X022469Y018273D01*
X022646Y018200D01*
X023477Y018200D01*
X023653Y018273D01*
X023788Y018408D01*
X023861Y018585D01*
X023861Y018775D01*
X023788Y018952D01*
X023653Y019087D01*
X023477Y019160D01*
X022646Y019160D01*
X022469Y019087D01*
X022334Y018952D01*
X022271Y018800D01*
X022271Y019560D01*
X022334Y019408D01*
X022469Y019273D01*
X022646Y019200D01*
X023477Y019200D01*
X023653Y019273D01*
X023788Y019408D01*
X023861Y019585D01*
X023861Y019775D01*
X023788Y019952D01*
X023653Y020087D01*
X023477Y020160D01*
X022838Y020160D01*
X022878Y020200D01*
X023477Y020200D01*
X023653Y020273D01*
X023788Y020408D01*
X023861Y020585D01*
X023861Y020775D01*
X023788Y020952D01*
X023653Y021087D01*
X023477Y021160D01*
X022838Y021160D01*
X022878Y021200D01*
X023477Y021200D01*
X023653Y021273D01*
X023788Y021408D01*
X023861Y021585D01*
X023861Y021775D01*
X023788Y021952D01*
X023653Y022087D01*
X023477Y022160D01*
X022646Y022160D01*
X022469Y022087D01*
X022334Y021952D01*
X022261Y021775D01*
X022261Y021585D01*
X022334Y021408D01*
X022413Y021329D01*
X018974Y017890D01*
X018851Y017767D01*
X018851Y015767D01*
X018781Y015697D01*
X018781Y015768D01*
X018714Y015929D01*
X018590Y016053D01*
X018429Y016120D01*
X017798Y016120D01*
X017918Y016240D01*
X018429Y016240D01*
X018590Y016307D01*
X018714Y016431D01*
X018781Y016592D01*
X018781Y016768D01*
X018714Y016929D01*
X018590Y017053D01*
X018429Y017120D01*
X017694Y017120D01*
X017532Y017053D01*
X017408Y016929D01*
X017341Y016768D01*
X017341Y016592D01*
X017408Y016431D01*
X017462Y016377D01*
X015974Y014890D01*
X015851Y014767D01*
X015851Y007767D01*
X015781Y007697D01*
X015781Y007768D01*
X015714Y007929D01*
X015590Y008053D01*
X015429Y008120D01*
X014694Y008120D01*
X014532Y008053D01*
X014408Y007929D01*
X014341Y007768D01*
X014341Y007592D01*
X014408Y007431D01*
X014532Y007307D01*
X014694Y007240D01*
X015324Y007240D01*
X009474Y001390D01*
X008270Y001390D01*
X008288Y001408D01*
X008361Y001585D01*
X008361Y001775D01*
X008288Y001952D01*
X008209Y002031D01*
X008648Y002470D01*
X008771Y002593D01*
X008771Y009767D01*
X008546Y009992D01*
X008546Y010571D01*
X008453Y010665D01*
X007873Y010665D01*
X007771Y010767D01*
X007771Y014195D01*
X008249Y014195D01*
X008851Y013593D01*
X008851Y006093D01*
X010069Y004876D01*
X010031Y004785D01*
X010031Y004575D01*
X010112Y004380D01*
X010261Y004231D01*
X010456Y004150D01*
X010667Y004150D01*
X010861Y004231D01*
X011011Y004380D01*
X011091Y004575D01*
X011091Y004785D01*
X011011Y004980D01*
X010861Y005129D01*
X010667Y005210D01*
X010456Y005210D01*
X010366Y005173D01*
X009271Y006267D01*
X009271Y013767D01*
X009148Y013890D01*
X008546Y014492D01*
X008546Y015071D01*
X008453Y015165D01*
X007771Y015165D01*
X007771Y020268D01*
X008001Y020498D01*
X008001Y020862D01*
X007744Y021120D01*
X007379Y021120D01*
X007121Y020862D01*
X007121Y020498D01*
X007351Y020268D01*
X007351Y015076D01*
X007336Y015091D01*
X007271Y015118D01*
X007271Y016267D01*
X007148Y016390D01*
X005840Y017698D01*
X005939Y017698D01*
X006119Y017772D01*
X006257Y017910D01*
X006331Y018090D01*
X006331Y018285D01*
X006257Y018465D01*
X006119Y018603D01*
X005939Y018678D01*
X005744Y018678D01*
X005564Y018603D01*
X005451Y018491D01*
X005339Y018603D01*
X005159Y018678D01*
X004964Y018678D01*
X004784Y018603D01*
X004646Y018465D01*
X004571Y018285D01*
X004571Y018090D01*
X004646Y017910D01*
X004784Y017772D01*
X004964Y017698D01*
X005159Y017698D01*
X005221Y017724D01*
X006851Y016093D01*
X006851Y015118D01*
X006787Y015091D01*
X006650Y014955D01*
X006576Y014776D01*
X006576Y014584D01*
X006603Y014519D01*
X004543Y012459D01*
X004591Y012575D01*
X004591Y012785D01*
X004511Y012980D01*
X004361Y013129D01*
X004239Y013180D01*
X004361Y013231D01*
X004511Y013380D01*
X004591Y013575D01*
X004591Y013785D01*
X004511Y013980D01*
X004361Y014129D01*
X004167Y014210D01*
X003956Y014210D01*
X003761Y014129D01*
X003612Y013980D01*
X003531Y013785D01*
X003531Y013575D01*
X003569Y013484D01*
X003474Y013390D01*
X003351Y013267D01*
X003351Y008593D01*
X003646Y008298D02*
X002741Y008298D01*
X002741Y008140D02*
X003805Y008140D01*
X003963Y007981D02*
X002741Y007981D01*
X002741Y007823D02*
X004122Y007823D01*
X004280Y007664D02*
X002741Y007664D01*
X002741Y007506D02*
X004436Y007506D01*
X004333Y007347D02*
X002741Y007347D01*
X002741Y007189D02*
X004301Y007189D01*
X004325Y007030D02*
X002741Y007030D01*
X002741Y006872D02*
X004419Y006872D01*
X004874Y007664D02*
X006851Y007664D01*
X006851Y007506D02*
X005686Y007506D01*
X005790Y007347D02*
X006851Y007347D01*
X006851Y007189D02*
X005821Y007189D01*
X005797Y007030D02*
X006851Y007030D01*
X006851Y006872D02*
X005703Y006872D01*
X006322Y006238D02*
X002741Y006238D01*
X002741Y006396D02*
X006480Y006396D01*
X006639Y006555D02*
X002741Y006555D01*
X002741Y006713D02*
X006797Y006713D01*
X007074Y006396D02*
X008351Y006396D01*
X008351Y006238D02*
X006916Y006238D01*
X006757Y006079D02*
X008351Y006079D01*
X008351Y005921D02*
X006599Y005921D01*
X006440Y005762D02*
X008351Y005762D01*
X008351Y005604D02*
X006282Y005604D01*
X006123Y005445D02*
X008351Y005445D01*
X008351Y005287D02*
X005965Y005287D01*
X005806Y005128D02*
X008351Y005128D01*
X008351Y004970D02*
X005771Y004970D01*
X005771Y004892D02*
X005771Y005093D01*
X007148Y006470D01*
X007148Y006470D01*
X007271Y006593D01*
X007271Y009742D01*
X007336Y009769D01*
X007472Y009905D01*
X007546Y010084D01*
X007546Y010276D01*
X007472Y010455D01*
X007336Y010591D01*
X007158Y010665D01*
X006965Y010665D01*
X006787Y010591D01*
X006650Y010455D01*
X006576Y010276D01*
X006576Y010084D01*
X006650Y009905D01*
X006787Y009769D01*
X006851Y009742D01*
X006851Y009390D01*
X005772Y009390D01*
X005751Y009441D01*
X005622Y009570D01*
X005453Y009640D01*
X005271Y009640D01*
X005271Y010767D01*
X005148Y010890D01*
X004554Y011484D01*
X004591Y011575D01*
X004591Y011785D01*
X007351Y011785D01*
X007351Y011627D02*
X004591Y011627D01*
X004591Y011785D02*
X004554Y011876D01*
X006900Y014222D01*
X006965Y014195D01*
X007158Y014195D01*
X007336Y014269D01*
X007351Y014284D01*
X007351Y010593D01*
X007576Y010368D01*
X007576Y009789D01*
X007670Y009695D01*
X008249Y009695D01*
X008351Y009593D01*
X008351Y003800D01*
X008288Y003952D01*
X008153Y004087D01*
X007977Y004160D01*
X007146Y004160D01*
X006969Y004087D01*
X006834Y003952D01*
X006762Y003777D01*
X005821Y004717D01*
X005821Y004771D01*
X005771Y004892D01*
X005805Y004811D02*
X008351Y004811D01*
X008351Y004653D02*
X005886Y004653D01*
X006044Y004494D02*
X008351Y004494D01*
X008351Y004336D02*
X006203Y004336D01*
X006361Y004177D02*
X008351Y004177D01*
X008351Y004019D02*
X008222Y004019D01*
X008326Y003860D02*
X008351Y003860D01*
X008351Y003560D02*
X008351Y002800D01*
X008288Y002952D01*
X008153Y003087D01*
X007977Y003160D01*
X007378Y003160D01*
X007338Y003200D01*
X007977Y003200D01*
X008153Y003273D01*
X008288Y003408D01*
X008351Y003560D01*
X008351Y003543D02*
X008344Y003543D01*
X008351Y003385D02*
X008265Y003385D01*
X008351Y003226D02*
X008040Y003226D01*
X008173Y003068D02*
X008351Y003068D01*
X008351Y002909D02*
X008306Y002909D01*
X008771Y002909D02*
X010993Y002909D01*
X010835Y002751D02*
X008771Y002751D01*
X008770Y002592D02*
X010676Y002592D01*
X010518Y002434D02*
X008612Y002434D01*
X008453Y002275D02*
X010359Y002275D01*
X010201Y002117D02*
X008295Y002117D01*
X008282Y001958D02*
X010042Y001958D01*
X009884Y001800D02*
X008351Y001800D01*
X008361Y001641D02*
X009725Y001641D01*
X009567Y001483D02*
X008319Y001483D01*
X007041Y002117D02*
X006271Y002117D01*
X006271Y002275D02*
X006967Y002275D01*
X006824Y002434D02*
X006271Y002434D01*
X006271Y002592D02*
X006761Y002592D01*
X006761Y002751D02*
X006271Y002751D01*
X006129Y002909D02*
X006817Y002909D01*
X006877Y003068D02*
X005971Y003068D01*
X005812Y003226D02*
X006718Y003226D01*
X006560Y003385D02*
X005716Y003385D01*
X005802Y003543D02*
X006401Y003543D01*
X006243Y003702D02*
X005821Y003702D01*
X005785Y003860D02*
X006084Y003860D01*
X005926Y004019D02*
X005673Y004019D01*
X005767Y004177D02*
X002741Y004177D01*
X002741Y004019D02*
X004449Y004019D01*
X004338Y003860D02*
X002741Y003860D01*
X002741Y003702D02*
X004301Y003702D01*
X004320Y003543D02*
X002741Y003543D01*
X002741Y003385D02*
X004406Y003385D01*
X004655Y003226D02*
X002741Y003226D01*
X002741Y003068D02*
X004498Y003068D01*
X004358Y002909D02*
X002741Y002909D01*
X002741Y002751D02*
X004301Y002751D01*
X004301Y002592D02*
X002741Y002592D01*
X002741Y002434D02*
X004365Y002434D01*
X004537Y002275D02*
X002741Y002275D01*
X002741Y002117D02*
X005851Y002117D01*
X005851Y002275D02*
X005586Y002275D01*
X005757Y002434D02*
X005851Y002434D01*
X005851Y002592D02*
X005821Y002592D01*
X005851Y001958D02*
X002741Y001958D01*
X002741Y001800D02*
X005851Y001800D01*
X005851Y001641D02*
X002741Y001641D01*
X002741Y001483D02*
X005851Y001483D01*
X005851Y001324D02*
X002741Y001324D01*
X002741Y001166D02*
X005851Y001166D01*
X005937Y001007D02*
X002741Y001007D01*
X002741Y000849D02*
X025251Y000849D01*
X025251Y001007D02*
X009685Y001007D01*
X009844Y001166D02*
X011418Y001166D01*
X011456Y001150D02*
X011667Y001150D01*
X011861Y001231D01*
X012011Y001380D01*
X012091Y001575D01*
X012091Y001785D01*
X012011Y001980D01*
X011861Y002129D01*
X011667Y002210D01*
X011456Y002210D01*
X011261Y002129D01*
X011112Y001980D01*
X011031Y001785D01*
X011031Y001575D01*
X011112Y001380D01*
X011261Y001231D01*
X011456Y001150D01*
X011704Y001166D02*
X014418Y001166D01*
X014456Y001150D02*
X014667Y001150D01*
X014861Y001231D01*
X015011Y001380D01*
X015091Y001575D01*
X015091Y001785D01*
X015050Y001886D01*
X015644Y002480D01*
X015761Y002597D01*
X015761Y004266D01*
X015860Y004307D01*
X015984Y004431D01*
X016001Y004470D01*
X017122Y004470D01*
X017138Y004431D01*
X017262Y004307D01*
X017424Y004240D01*
X017599Y004240D01*
X017760Y004307D01*
X017884Y004431D01*
X017951Y004592D01*
X017951Y004768D01*
X017884Y004929D01*
X017760Y005053D01*
X017599Y005120D01*
X017424Y005120D01*
X017262Y005053D01*
X017138Y004929D01*
X017122Y004890D01*
X016001Y004890D01*
X015984Y004929D01*
X015860Y005053D01*
X015699Y005120D01*
X015524Y005120D01*
X015362Y005053D01*
X015238Y004929D01*
X015171Y004768D01*
X015171Y004592D01*
X015238Y004431D01*
X015361Y004308D01*
X015361Y002763D01*
X014767Y002168D01*
X014667Y002210D01*
X014456Y002210D01*
X014261Y002129D01*
X014112Y001980D01*
X014031Y001785D01*
X014031Y001575D01*
X014112Y001380D01*
X014261Y001231D01*
X014456Y001150D01*
X014704Y001166D02*
X025251Y001166D01*
X025251Y001324D02*
X014955Y001324D01*
X015053Y001483D02*
X025251Y001483D01*
X025251Y001641D02*
X015091Y001641D01*
X015085Y001800D02*
X025251Y001800D01*
X025251Y001958D02*
X015122Y001958D01*
X015281Y002117D02*
X025251Y002117D01*
X025251Y002275D02*
X015439Y002275D01*
X015598Y002434D02*
X025251Y002434D01*
X025251Y002592D02*
X015756Y002592D01*
X015761Y002751D02*
X025251Y002751D01*
X025251Y002909D02*
X015761Y002909D01*
X015761Y003068D02*
X025251Y003068D01*
X025251Y003226D02*
X015761Y003226D01*
X015761Y003385D02*
X025251Y003385D01*
X025251Y003543D02*
X015761Y003543D01*
X015761Y003702D02*
X022331Y003702D01*
X022261Y003731D02*
X022456Y003650D01*
X022667Y003650D01*
X022861Y003731D01*
X023011Y003880D01*
X023061Y004002D01*
X023112Y003880D01*
X023261Y003731D01*
X023456Y003650D01*
X023667Y003650D01*
X023861Y003731D01*
X024011Y003880D01*
X024091Y004075D01*
X024091Y004285D01*
X024011Y004480D01*
X023861Y004629D01*
X023667Y004710D01*
X023456Y004710D01*
X023261Y004629D01*
X023112Y004480D01*
X023061Y004358D01*
X023011Y004480D01*
X022861Y004629D01*
X022667Y004710D01*
X022456Y004710D01*
X022261Y004629D01*
X022112Y004480D01*
X022070Y004380D01*
X020644Y004380D01*
X017784Y007240D01*
X018429Y007240D01*
X018590Y007307D01*
X018714Y007431D01*
X018781Y007592D01*
X018781Y007768D01*
X018714Y007929D01*
X018590Y008053D01*
X018429Y008120D01*
X017694Y008120D01*
X017532Y008053D01*
X017408Y007929D01*
X017341Y007768D01*
X017341Y007683D01*
X017261Y007763D01*
X017261Y010597D01*
X017341Y010677D01*
X017341Y010592D01*
X017408Y010431D01*
X017532Y010307D01*
X017694Y010240D01*
X018429Y010240D01*
X018590Y010307D01*
X018714Y010431D01*
X018781Y010592D01*
X018781Y010768D01*
X018714Y010929D01*
X018590Y011053D01*
X018429Y011120D01*
X017784Y011120D01*
X017904Y011240D01*
X018429Y011240D01*
X018590Y011307D01*
X018714Y011431D01*
X018781Y011592D01*
X018781Y011768D01*
X018714Y011929D01*
X018590Y012053D01*
X018429Y012120D01*
X017694Y012120D01*
X017532Y012053D01*
X017408Y011929D01*
X017341Y011768D01*
X017341Y011592D01*
X017408Y011431D01*
X017469Y011370D01*
X016978Y010880D01*
X016861Y010763D01*
X016861Y007597D01*
X016978Y007480D01*
X016978Y007480D01*
X020361Y004097D01*
X020478Y003980D01*
X022070Y003980D01*
X022112Y003880D01*
X022261Y003731D01*
X022132Y003860D02*
X015761Y003860D01*
X015761Y004019D02*
X020440Y004019D01*
X020361Y004097D02*
X020361Y004097D01*
X020281Y004177D02*
X015761Y004177D01*
X015889Y004336D02*
X017233Y004336D01*
X017789Y004336D02*
X020123Y004336D01*
X019964Y004494D02*
X017910Y004494D01*
X017951Y004653D02*
X019806Y004653D01*
X019647Y004811D02*
X017933Y004811D01*
X017844Y004970D02*
X019489Y004970D01*
X019330Y005128D02*
X013806Y005128D01*
X013648Y004970D02*
X015279Y004970D01*
X015189Y004811D02*
X013489Y004811D01*
X013331Y004653D02*
X015171Y004653D01*
X015212Y004494D02*
X013172Y004494D01*
X013014Y004336D02*
X015333Y004336D01*
X015361Y004177D02*
X012855Y004177D01*
X012697Y004019D02*
X015361Y004019D01*
X015361Y003860D02*
X012538Y003860D01*
X012380Y003702D02*
X015361Y003702D01*
X015361Y003543D02*
X012221Y003543D01*
X012063Y003385D02*
X015361Y003385D01*
X015361Y003226D02*
X011904Y003226D01*
X011746Y003068D02*
X015361Y003068D01*
X015361Y002909D02*
X011587Y002909D01*
X011429Y002751D02*
X015349Y002751D01*
X015190Y002592D02*
X011270Y002592D01*
X011112Y002434D02*
X015032Y002434D01*
X014873Y002275D02*
X010953Y002275D01*
X010795Y002117D02*
X011248Y002117D01*
X011103Y001958D02*
X010636Y001958D01*
X010478Y001800D02*
X011037Y001800D01*
X011031Y001641D02*
X010319Y001641D01*
X010161Y001483D02*
X011069Y001483D01*
X011168Y001324D02*
X010002Y001324D01*
X011955Y001324D02*
X014168Y001324D01*
X014069Y001483D02*
X012053Y001483D01*
X012091Y001641D02*
X014031Y001641D01*
X014037Y001800D02*
X012085Y001800D01*
X012020Y001958D02*
X014103Y001958D01*
X014248Y002117D02*
X011874Y002117D01*
X011152Y003068D02*
X008771Y003068D01*
X008771Y003226D02*
X011310Y003226D01*
X011469Y003385D02*
X008771Y003385D01*
X008771Y003543D02*
X011627Y003543D01*
X011786Y003702D02*
X008771Y003702D01*
X008771Y003860D02*
X011944Y003860D01*
X012103Y004019D02*
X008771Y004019D01*
X008771Y004177D02*
X010391Y004177D01*
X010156Y004336D02*
X008771Y004336D01*
X008771Y004494D02*
X010065Y004494D01*
X010031Y004653D02*
X008771Y004653D01*
X008771Y004811D02*
X010042Y004811D01*
X009975Y004970D02*
X008771Y004970D01*
X008771Y005128D02*
X009816Y005128D01*
X009658Y005287D02*
X008771Y005287D01*
X008771Y005445D02*
X009499Y005445D01*
X009341Y005604D02*
X008771Y005604D01*
X008771Y005762D02*
X009182Y005762D01*
X009024Y005921D02*
X008771Y005921D01*
X008771Y006079D02*
X008865Y006079D01*
X008851Y006238D02*
X008771Y006238D01*
X008771Y006396D02*
X008851Y006396D01*
X008851Y006555D02*
X008771Y006555D01*
X008771Y006713D02*
X008851Y006713D01*
X008851Y006872D02*
X008771Y006872D01*
X008771Y007030D02*
X008851Y007030D01*
X008851Y007189D02*
X008771Y007189D01*
X008771Y007347D02*
X008851Y007347D01*
X008851Y007506D02*
X008771Y007506D01*
X008771Y007664D02*
X008851Y007664D01*
X008851Y007823D02*
X008771Y007823D01*
X008771Y007981D02*
X008851Y007981D01*
X008851Y008140D02*
X008771Y008140D01*
X008771Y008298D02*
X008851Y008298D01*
X008851Y008457D02*
X008771Y008457D01*
X008771Y008615D02*
X008851Y008615D01*
X008851Y008774D02*
X008771Y008774D01*
X008771Y008932D02*
X008851Y008932D01*
X008851Y009091D02*
X008771Y009091D01*
X008771Y009249D02*
X008851Y009249D01*
X008851Y009408D02*
X008771Y009408D01*
X008771Y009566D02*
X008851Y009566D01*
X008851Y009725D02*
X008771Y009725D01*
X008851Y009883D02*
X008655Y009883D01*
X008546Y010042D02*
X008851Y010042D01*
X008851Y010200D02*
X008546Y010200D01*
X008546Y010359D02*
X008851Y010359D01*
X008851Y010517D02*
X008546Y010517D01*
X008851Y010676D02*
X007863Y010676D01*
X007771Y010834D02*
X008851Y010834D01*
X008851Y010993D02*
X007771Y010993D01*
X007771Y011151D02*
X008851Y011151D01*
X008851Y011310D02*
X007771Y011310D01*
X007771Y011468D02*
X008851Y011468D01*
X008851Y011627D02*
X007771Y011627D01*
X007771Y011785D02*
X008851Y011785D01*
X008851Y011944D02*
X007771Y011944D01*
X007771Y012102D02*
X008851Y012102D01*
X008851Y012261D02*
X007771Y012261D01*
X007771Y012419D02*
X008851Y012419D01*
X008851Y012578D02*
X007771Y012578D01*
X007771Y012736D02*
X008851Y012736D01*
X008851Y012895D02*
X007771Y012895D01*
X007771Y013053D02*
X008851Y013053D01*
X008851Y013212D02*
X007771Y013212D01*
X007771Y013370D02*
X008851Y013370D01*
X008851Y013529D02*
X007771Y013529D01*
X007771Y013687D02*
X008757Y013687D01*
X008599Y013846D02*
X007771Y013846D01*
X007771Y014004D02*
X008440Y014004D01*
X008282Y014163D02*
X007771Y014163D01*
X007351Y014163D02*
X006841Y014163D01*
X006682Y014004D02*
X007351Y014004D01*
X007351Y013846D02*
X006524Y013846D01*
X006365Y013687D02*
X007351Y013687D01*
X007351Y013529D02*
X006207Y013529D01*
X006048Y013370D02*
X007351Y013370D01*
X007351Y013212D02*
X005890Y013212D01*
X005731Y013053D02*
X007351Y013053D01*
X007351Y012895D02*
X005573Y012895D01*
X005414Y012736D02*
X007351Y012736D01*
X007351Y012578D02*
X005256Y012578D01*
X005097Y012419D02*
X007351Y012419D01*
X007351Y012261D02*
X004939Y012261D01*
X004780Y012102D02*
X007351Y012102D01*
X007351Y011944D02*
X004622Y011944D01*
X004570Y011468D02*
X007351Y011468D01*
X007351Y011310D02*
X004729Y011310D01*
X004887Y011151D02*
X007351Y011151D01*
X007351Y010993D02*
X005046Y010993D01*
X005204Y010834D02*
X007351Y010834D01*
X007351Y010676D02*
X005271Y010676D01*
X005271Y010517D02*
X006712Y010517D01*
X006610Y010359D02*
X005271Y010359D01*
X005271Y010200D02*
X006576Y010200D01*
X006594Y010042D02*
X005271Y010042D01*
X005271Y009883D02*
X006672Y009883D01*
X006851Y009725D02*
X005271Y009725D01*
X004851Y009725D02*
X003771Y009725D01*
X003771Y009883D02*
X004851Y009883D01*
X004851Y010042D02*
X003771Y010042D01*
X003771Y010200D02*
X004851Y010200D01*
X004851Y010359D02*
X003771Y010359D01*
X003771Y010517D02*
X004851Y010517D01*
X004769Y010676D02*
X003771Y010676D01*
X003771Y010834D02*
X004610Y010834D01*
X004452Y010993D02*
X003771Y010993D01*
X003771Y011151D02*
X003953Y011151D01*
X004169Y011151D02*
X004293Y011151D01*
X003351Y012261D02*
X002741Y012261D01*
X002741Y012419D02*
X003351Y012419D01*
X003351Y012578D02*
X002741Y012578D01*
X002741Y012736D02*
X003351Y012736D01*
X003351Y012895D02*
X002741Y012895D01*
X002741Y013053D02*
X003351Y013053D01*
X003351Y013212D02*
X002741Y013212D01*
X002741Y013370D02*
X003454Y013370D01*
X003550Y013529D02*
X002741Y013529D01*
X002741Y013687D02*
X003531Y013687D01*
X003556Y013846D02*
X002741Y013846D01*
X002741Y014004D02*
X003636Y014004D01*
X003841Y014163D02*
X002741Y014163D01*
X002741Y014321D02*
X006405Y014321D01*
X006247Y014163D02*
X004281Y014163D01*
X004487Y014004D02*
X006088Y014004D01*
X005930Y013846D02*
X004566Y013846D01*
X004591Y013687D02*
X005771Y013687D01*
X005613Y013529D02*
X004572Y013529D01*
X004501Y013370D02*
X005454Y013370D01*
X005296Y013212D02*
X004315Y013212D01*
X004438Y013053D02*
X005137Y013053D01*
X004979Y012895D02*
X004546Y012895D01*
X004591Y012736D02*
X004820Y012736D01*
X004662Y012578D02*
X004591Y012578D01*
X003883Y013180D02*
X003866Y013187D01*
X003840Y013162D01*
X003883Y013180D01*
X002741Y014480D02*
X006564Y014480D01*
X006576Y014638D02*
X002741Y014638D01*
X002741Y014797D02*
X006585Y014797D01*
X006650Y014955D02*
X002741Y014955D01*
X002741Y015114D02*
X006841Y015114D01*
X006851Y015272D02*
X002741Y015272D01*
X002741Y015431D02*
X006851Y015431D01*
X006851Y015589D02*
X004367Y015589D01*
X004450Y015623D02*
X004678Y015851D01*
X004801Y016149D01*
X004801Y016471D01*
X004678Y016769D01*
X004450Y016997D01*
X004152Y017120D01*
X003830Y017120D01*
X003532Y016997D01*
X003305Y016769D01*
X003181Y016471D01*
X003181Y016149D01*
X003305Y015851D01*
X003532Y015623D01*
X003830Y015500D01*
X004152Y015500D01*
X004450Y015623D01*
X004574Y015748D02*
X006851Y015748D01*
X006851Y015906D02*
X004701Y015906D01*
X004766Y016065D02*
X006851Y016065D01*
X006721Y016223D02*
X004801Y016223D01*
X004801Y016382D02*
X006563Y016382D01*
X006404Y016540D02*
X004773Y016540D01*
X004707Y016699D02*
X006246Y016699D01*
X006087Y016857D02*
X004590Y016857D01*
X004405Y017016D02*
X005929Y017016D01*
X005770Y017174D02*
X002741Y017174D01*
X002741Y017016D02*
X003578Y017016D01*
X003393Y016857D02*
X002741Y016857D01*
X002741Y016699D02*
X003275Y016699D01*
X003210Y016540D02*
X002741Y016540D01*
X002741Y016382D02*
X003181Y016382D01*
X003181Y016223D02*
X002741Y016223D01*
X002741Y016065D02*
X003216Y016065D01*
X003282Y015906D02*
X002741Y015906D01*
X002741Y015748D02*
X003408Y015748D01*
X003615Y015589D02*
X002741Y015589D01*
X002741Y017333D02*
X005612Y017333D01*
X005453Y017491D02*
X002741Y017491D01*
X002741Y017650D02*
X005295Y017650D01*
X004748Y017808D02*
X002741Y017808D01*
X002741Y017967D02*
X004623Y017967D01*
X004571Y018125D02*
X002741Y018125D01*
X002741Y018284D02*
X004571Y018284D01*
X004636Y018442D02*
X002741Y018442D01*
X002741Y018601D02*
X004781Y018601D01*
X004784Y018757D02*
X004964Y018682D01*
X005159Y018682D01*
X005339Y018757D01*
X005451Y018869D01*
X005564Y018757D01*
X005744Y018682D01*
X005939Y018682D01*
X006119Y018757D01*
X006257Y018895D01*
X006331Y019075D01*
X006331Y019270D01*
X006257Y019450D01*
X006119Y019588D01*
X005939Y019662D01*
X005744Y019662D01*
X005564Y019588D01*
X005451Y019475D01*
X005339Y019588D01*
X005159Y019662D01*
X004964Y019662D01*
X004784Y019588D01*
X004646Y019450D01*
X004571Y019270D01*
X004571Y019075D01*
X004646Y018895D01*
X004784Y018757D01*
X004781Y018759D02*
X002741Y018759D01*
X002741Y018918D02*
X004636Y018918D01*
X004571Y019076D02*
X002741Y019076D01*
X002741Y019235D02*
X004571Y019235D01*
X004622Y019393D02*
X002741Y019393D01*
X002741Y019552D02*
X004748Y019552D01*
X005375Y019552D02*
X005528Y019552D01*
X006155Y019552D02*
X007351Y019552D01*
X007351Y019710D02*
X002741Y019710D01*
X002741Y019869D02*
X007351Y019869D01*
X007351Y020027D02*
X002741Y020027D01*
X002741Y020186D02*
X007351Y020186D01*
X007275Y020344D02*
X004404Y020344D01*
X004450Y020363D02*
X004678Y020591D01*
X004801Y020889D01*
X004801Y021211D01*
X004678Y021509D01*
X004450Y021737D01*
X004152Y021860D01*
X003830Y021860D01*
X003532Y021737D01*
X003305Y021509D01*
X003181Y021211D01*
X003181Y020889D01*
X003305Y020591D01*
X003532Y020363D01*
X003830Y020240D01*
X004152Y020240D01*
X004450Y020363D01*
X004589Y020503D02*
X007121Y020503D01*
X007121Y020661D02*
X004707Y020661D01*
X004773Y020820D02*
X007121Y020820D01*
X007237Y020978D02*
X004801Y020978D01*
X004801Y021137D02*
X022221Y021137D01*
X022379Y021295D02*
X010926Y021295D01*
X010861Y021231D02*
X011011Y021380D01*
X011091Y021575D01*
X011091Y021785D01*
X011011Y021980D01*
X010861Y022129D01*
X010667Y022210D01*
X010456Y022210D01*
X010261Y022129D01*
X010112Y021980D01*
X010031Y021785D01*
X010031Y021575D01*
X010112Y021380D01*
X010261Y021231D01*
X010456Y021150D01*
X010667Y021150D01*
X010861Y021231D01*
X011041Y021454D02*
X022316Y021454D01*
X022261Y021612D02*
X011091Y021612D01*
X011091Y021771D02*
X022261Y021771D01*
X022325Y021929D02*
X011032Y021929D01*
X010903Y022088D02*
X022471Y022088D01*
X023652Y022088D02*
X025251Y022088D01*
X025251Y022246D02*
X002741Y022246D01*
X002741Y022088D02*
X010219Y022088D01*
X010091Y021929D02*
X002741Y021929D01*
X002741Y021771D02*
X003614Y021771D01*
X003408Y021612D02*
X002741Y021612D01*
X002741Y021454D02*
X003282Y021454D01*
X003216Y021295D02*
X002741Y021295D01*
X002741Y021137D02*
X003181Y021137D01*
X003181Y020978D02*
X002741Y020978D01*
X002741Y020820D02*
X003210Y020820D01*
X003276Y020661D02*
X002741Y020661D01*
X002741Y020503D02*
X003393Y020503D01*
X003579Y020344D02*
X002741Y020344D01*
X004368Y021771D02*
X010031Y021771D01*
X010031Y021612D02*
X004575Y021612D01*
X004701Y021454D02*
X010081Y021454D01*
X010197Y021295D02*
X004766Y021295D01*
X002741Y022405D02*
X025251Y022405D01*
X025251Y022496D02*
X025251Y000360D01*
X002741Y000360D01*
X002741Y022496D01*
X025251Y022496D01*
X025251Y021929D02*
X023798Y021929D01*
X023861Y021771D02*
X025251Y021771D01*
X025251Y021612D02*
X023861Y021612D01*
X023807Y021454D02*
X025251Y021454D01*
X025251Y021295D02*
X023675Y021295D01*
X023533Y021137D02*
X025251Y021137D01*
X025251Y020978D02*
X023762Y020978D01*
X023843Y020820D02*
X025251Y020820D01*
X025251Y020661D02*
X023861Y020661D01*
X023827Y020503D02*
X025251Y020503D01*
X025251Y020344D02*
X023724Y020344D01*
X023713Y020027D02*
X025251Y020027D01*
X025251Y019869D02*
X023823Y019869D01*
X023861Y019710D02*
X025251Y019710D01*
X025251Y019552D02*
X023848Y019552D01*
X023773Y019393D02*
X025251Y019393D01*
X025251Y019235D02*
X023560Y019235D01*
X023664Y019076D02*
X025251Y019076D01*
X025251Y018918D02*
X023802Y018918D01*
X023861Y018759D02*
X025251Y018759D01*
X025251Y018601D02*
X023861Y018601D01*
X023802Y018442D02*
X025251Y018442D01*
X025251Y018284D02*
X023664Y018284D01*
X023561Y018125D02*
X025251Y018125D01*
X025251Y017967D02*
X023774Y017967D01*
X023848Y017808D02*
X025251Y017808D01*
X025251Y017650D02*
X023861Y017650D01*
X023823Y017491D02*
X025251Y017491D01*
X025251Y017333D02*
X023713Y017333D01*
X023725Y017016D02*
X025251Y017016D01*
X025251Y017174D02*
X022271Y017174D01*
X022271Y017016D02*
X022398Y017016D01*
X022295Y016857D02*
X022271Y016857D01*
X022271Y016540D02*
X022280Y016540D01*
X022271Y016382D02*
X022361Y016382D01*
X022271Y016223D02*
X022590Y016223D01*
X022447Y016065D02*
X022271Y016065D01*
X022271Y015906D02*
X022315Y015906D01*
X021851Y015906D02*
X019271Y015906D01*
X019271Y015748D02*
X021851Y015748D01*
X021851Y015589D02*
X019267Y015589D01*
X019109Y015431D02*
X021851Y015431D01*
X021851Y015272D02*
X018950Y015272D01*
X018792Y015114D02*
X021851Y015114D01*
X021851Y014955D02*
X018688Y014955D01*
X018769Y014797D02*
X021851Y014797D01*
X021851Y014638D02*
X018781Y014638D01*
X018734Y014480D02*
X021851Y014480D01*
X021851Y014321D02*
X018605Y014321D01*
X018429Y014120D02*
X018590Y014053D01*
X018714Y013929D01*
X018781Y013768D01*
X018781Y013592D01*
X018714Y013431D01*
X018590Y013307D01*
X018429Y013240D01*
X017694Y013240D01*
X017532Y013307D01*
X017408Y013431D01*
X017341Y013592D01*
X017341Y013768D01*
X017408Y013929D01*
X017532Y014053D01*
X017694Y014120D01*
X018429Y014120D01*
X018639Y014004D02*
X021851Y014004D01*
X021851Y013846D02*
X018749Y013846D01*
X018781Y013687D02*
X021851Y013687D01*
X021851Y013529D02*
X018755Y013529D01*
X018654Y013370D02*
X021851Y013370D01*
X021851Y013212D02*
X016271Y013212D01*
X016271Y013370D02*
X017469Y013370D01*
X017368Y013529D02*
X016271Y013529D01*
X016271Y013687D02*
X017341Y013687D01*
X017374Y013846D02*
X016271Y013846D01*
X016271Y014004D02*
X017483Y014004D01*
X017518Y014321D02*
X016271Y014321D01*
X016271Y014163D02*
X021851Y014163D01*
X022271Y014163D02*
X025251Y014163D01*
X025251Y014321D02*
X023701Y014321D01*
X023818Y014480D02*
X025251Y014480D01*
X025251Y014638D02*
X023861Y014638D01*
X023853Y014797D02*
X025251Y014797D01*
X025251Y014955D02*
X023785Y014955D01*
X023589Y015114D02*
X025251Y015114D01*
X025251Y015272D02*
X023651Y015272D01*
X023797Y015431D02*
X025251Y015431D01*
X025251Y015589D02*
X023861Y015589D01*
X023861Y015748D02*
X025251Y015748D01*
X025251Y015906D02*
X023807Y015906D01*
X023676Y016065D02*
X025251Y016065D01*
X025251Y016223D02*
X023532Y016223D01*
X023762Y016382D02*
X025251Y016382D01*
X025251Y016540D02*
X023843Y016540D01*
X023861Y016699D02*
X025251Y016699D01*
X025251Y016857D02*
X023827Y016857D01*
X022410Y017333D02*
X022271Y017333D01*
X022271Y017491D02*
X022300Y017491D01*
X022275Y017808D02*
X022271Y017808D01*
X022271Y017967D02*
X022349Y017967D01*
X022271Y018125D02*
X022561Y018125D01*
X022459Y018284D02*
X022271Y018284D01*
X022271Y018442D02*
X022320Y018442D01*
X021851Y018442D02*
X020120Y018442D01*
X019962Y018284D02*
X021851Y018284D01*
X021851Y018125D02*
X019803Y018125D01*
X019645Y017967D02*
X021851Y017967D01*
X021851Y017808D02*
X019486Y017808D01*
X019328Y017650D02*
X021851Y017650D01*
X021851Y017491D02*
X019271Y017491D01*
X019271Y017333D02*
X021851Y017333D01*
X021851Y017174D02*
X019271Y017174D01*
X019271Y017016D02*
X021851Y017016D01*
X021851Y016857D02*
X019271Y016857D01*
X019271Y016699D02*
X021851Y016699D01*
X021851Y016540D02*
X019271Y016540D01*
X019271Y016382D02*
X021851Y016382D01*
X021851Y016223D02*
X019271Y016223D01*
X019271Y016065D02*
X021851Y016065D01*
X022271Y015431D02*
X022325Y015431D01*
X022271Y015272D02*
X022472Y015272D01*
X022534Y015114D02*
X022271Y015114D01*
X022271Y014955D02*
X022337Y014955D01*
X022305Y014480D02*
X022271Y014480D01*
X022271Y014321D02*
X022421Y014321D01*
X022386Y014004D02*
X022271Y014004D01*
X022271Y013846D02*
X022290Y013846D01*
X022271Y013529D02*
X022284Y013529D01*
X022271Y013370D02*
X022372Y013370D01*
X022271Y013212D02*
X022618Y013212D01*
X022435Y013053D02*
X022271Y013053D01*
X022271Y012895D02*
X022311Y012895D01*
X021851Y012895D02*
X018729Y012895D01*
X018714Y012929D02*
X018590Y013053D01*
X021851Y013053D01*
X021851Y012736D02*
X018781Y012736D01*
X018781Y012768D02*
X018714Y012929D01*
X018781Y012768D02*
X018781Y012592D01*
X018714Y012431D01*
X018590Y012307D01*
X018429Y012240D01*
X017694Y012240D01*
X017532Y012307D01*
X017408Y012431D01*
X017341Y012592D01*
X017341Y012768D01*
X017408Y012929D01*
X017532Y013053D01*
X017694Y013120D01*
X018429Y013120D01*
X018590Y013053D01*
X018775Y012578D02*
X021851Y012578D01*
X021851Y012419D02*
X018703Y012419D01*
X018478Y012261D02*
X021851Y012261D01*
X021851Y012102D02*
X018472Y012102D01*
X018700Y011944D02*
X021851Y011944D01*
X021851Y011785D02*
X018774Y011785D01*
X018781Y011627D02*
X021851Y011627D01*
X021851Y011468D02*
X018730Y011468D01*
X018593Y011310D02*
X021851Y011310D01*
X021851Y011151D02*
X017815Y011151D01*
X017408Y011310D02*
X016271Y011310D01*
X016271Y011468D02*
X017393Y011468D01*
X017341Y011627D02*
X016271Y011627D01*
X016271Y011785D02*
X017349Y011785D01*
X017423Y011944D02*
X016271Y011944D01*
X016271Y012102D02*
X017650Y012102D01*
X017644Y012261D02*
X016271Y012261D01*
X016271Y012419D02*
X017420Y012419D01*
X017347Y012578D02*
X016271Y012578D01*
X016271Y012736D02*
X017341Y012736D01*
X017394Y012895D02*
X016271Y012895D01*
X016271Y013053D02*
X017532Y013053D01*
X017388Y014480D02*
X016271Y014480D01*
X016316Y014638D02*
X017341Y014638D01*
X017353Y014797D02*
X016475Y014797D01*
X016633Y014955D02*
X017434Y014955D01*
X017678Y015114D02*
X016792Y015114D01*
X016950Y015272D02*
X017616Y015272D01*
X017408Y015431D02*
X017109Y015431D01*
X017267Y015589D02*
X017343Y015589D01*
X016990Y015906D02*
X015724Y015906D01*
X015714Y015929D02*
X015590Y016053D01*
X015429Y016120D01*
X014694Y016120D01*
X014532Y016053D01*
X014408Y015929D01*
X014341Y015768D01*
X014341Y015592D01*
X014408Y015431D01*
X014532Y015307D01*
X014694Y015240D01*
X015429Y015240D01*
X015590Y015307D01*
X015714Y015431D01*
X015781Y015592D01*
X015781Y015768D01*
X015714Y015929D01*
X015781Y015748D02*
X016832Y015748D01*
X016673Y015589D02*
X015780Y015589D01*
X015714Y015431D02*
X016515Y015431D01*
X016356Y015272D02*
X015506Y015272D01*
X015444Y015114D02*
X016198Y015114D01*
X016039Y014955D02*
X015688Y014955D01*
X015714Y014929D02*
X015590Y015053D01*
X015429Y015120D01*
X014694Y015120D01*
X014532Y015053D01*
X014408Y014929D01*
X014341Y014768D01*
X014341Y014592D01*
X014408Y014431D01*
X014532Y014307D01*
X014694Y014240D01*
X015429Y014240D01*
X015590Y014307D01*
X015714Y014431D01*
X015781Y014592D01*
X015781Y014768D01*
X015714Y014929D01*
X015769Y014797D02*
X015881Y014797D01*
X015851Y014638D02*
X015781Y014638D01*
X015734Y014480D02*
X015851Y014480D01*
X015851Y014321D02*
X015605Y014321D01*
X015429Y014120D02*
X015590Y014053D01*
X015714Y013929D01*
X015781Y013768D01*
X015781Y013592D01*
X015714Y013431D01*
X015590Y013307D01*
X015429Y013240D01*
X014694Y013240D01*
X014532Y013307D01*
X014408Y013431D01*
X014341Y013592D01*
X014341Y013768D01*
X014408Y013929D01*
X014532Y014053D01*
X014694Y014120D01*
X015429Y014120D01*
X015639Y014004D02*
X015851Y014004D01*
X015851Y013846D02*
X015749Y013846D01*
X015781Y013687D02*
X015851Y013687D01*
X015851Y013529D02*
X015755Y013529D01*
X015851Y013370D02*
X015654Y013370D01*
X015851Y013212D02*
X013827Y013212D01*
X013668Y013370D02*
X014469Y013370D01*
X014368Y013529D02*
X013510Y013529D01*
X013351Y013687D02*
X014341Y013687D01*
X014374Y013846D02*
X013193Y013846D01*
X013034Y014004D02*
X014483Y014004D01*
X014518Y014321D02*
X012717Y014321D01*
X012559Y014480D02*
X014388Y014480D01*
X014341Y014638D02*
X012400Y014638D01*
X012242Y014797D02*
X014353Y014797D01*
X014434Y014955D02*
X012083Y014955D01*
X011925Y015114D02*
X014678Y015114D01*
X014616Y015272D02*
X011766Y015272D01*
X011608Y015431D02*
X014408Y015431D01*
X014343Y015589D02*
X011449Y015589D01*
X011291Y015748D02*
X014341Y015748D01*
X014399Y015906D02*
X011132Y015906D01*
X010974Y016065D02*
X014560Y016065D01*
X014694Y016240D02*
X015429Y016240D01*
X015590Y016307D01*
X015714Y016431D01*
X015781Y016592D01*
X015781Y016768D01*
X015714Y016929D01*
X015590Y017053D01*
X015429Y017120D01*
X014694Y017120D01*
X014532Y017053D01*
X014408Y016929D01*
X014341Y016768D01*
X014341Y016592D01*
X014408Y016431D01*
X014532Y016307D01*
X014694Y016240D01*
X014457Y016382D02*
X011011Y016382D01*
X011011Y016380D02*
X011091Y016575D01*
X011091Y016785D01*
X011011Y016980D01*
X010861Y017129D01*
X010667Y017210D01*
X010456Y017210D01*
X010271Y017134D01*
X010271Y018093D01*
X010366Y018187D01*
X010456Y018150D01*
X010667Y018150D01*
X010861Y018231D01*
X011011Y018380D01*
X011091Y018575D01*
X011091Y018785D01*
X011011Y018980D01*
X010861Y019129D01*
X010667Y019210D01*
X010456Y019210D01*
X010261Y019129D01*
X010112Y018980D01*
X010031Y018785D01*
X010031Y018575D01*
X010069Y018484D01*
X009974Y018390D01*
X009851Y018267D01*
X009851Y014093D01*
X009974Y013970D01*
X009974Y013970D01*
X010069Y013876D01*
X010031Y013785D01*
X010031Y013575D01*
X010112Y013380D01*
X010261Y013231D01*
X010456Y013150D01*
X010667Y013150D01*
X010861Y013231D01*
X011011Y013380D01*
X011091Y013575D01*
X011091Y013785D01*
X011011Y013980D01*
X010861Y014129D01*
X010667Y014210D01*
X010456Y014210D01*
X010366Y014173D01*
X010271Y014267D01*
X010271Y016226D01*
X010351Y016193D01*
X010351Y016093D01*
X010474Y015970D01*
X014462Y011983D01*
X014408Y011929D01*
X014341Y011768D01*
X014341Y011592D01*
X014408Y011431D01*
X014532Y011307D01*
X014694Y011240D01*
X015429Y011240D01*
X015590Y011307D01*
X015714Y011431D01*
X015781Y011592D01*
X015781Y011768D01*
X015714Y011929D01*
X015590Y012053D01*
X015429Y012120D01*
X014918Y012120D01*
X014798Y012240D01*
X015429Y012240D01*
X015590Y012307D01*
X015714Y012431D01*
X015781Y012592D01*
X015781Y012768D01*
X015714Y012929D01*
X015590Y013053D01*
X015851Y013053D01*
X015851Y012895D02*
X015729Y012895D01*
X015781Y012736D02*
X015851Y012736D01*
X015851Y012578D02*
X015775Y012578D01*
X015703Y012419D02*
X015851Y012419D01*
X015851Y012261D02*
X015478Y012261D01*
X015472Y012102D02*
X015851Y012102D01*
X015851Y011944D02*
X015700Y011944D01*
X015774Y011785D02*
X015851Y011785D01*
X015851Y011627D02*
X015781Y011627D01*
X015730Y011468D02*
X015851Y011468D01*
X015851Y011310D02*
X015593Y011310D01*
X015429Y011120D02*
X015590Y011053D01*
X015714Y010929D01*
X015781Y010768D01*
X015781Y010592D01*
X015714Y010431D01*
X015590Y010307D01*
X015429Y010240D01*
X014694Y010240D01*
X014532Y010307D01*
X014408Y010431D01*
X014341Y010592D01*
X014341Y010768D01*
X014408Y010929D01*
X014532Y011053D01*
X014694Y011120D01*
X015429Y011120D01*
X015651Y010993D02*
X015851Y010993D01*
X015851Y011151D02*
X009771Y011151D01*
X009771Y010993D02*
X014472Y010993D01*
X014369Y010834D02*
X009771Y010834D01*
X009771Y010676D02*
X014341Y010676D01*
X014373Y010517D02*
X009771Y010517D01*
X009771Y010359D02*
X014480Y010359D01*
X014532Y010053D02*
X014694Y010120D01*
X015429Y010120D01*
X015590Y010053D01*
X015714Y009929D01*
X015781Y009768D01*
X015781Y009592D01*
X015714Y009431D01*
X015590Y009307D01*
X015429Y009240D01*
X014694Y009240D01*
X014532Y009307D01*
X014408Y009431D01*
X014341Y009592D01*
X014341Y009768D01*
X014408Y009929D01*
X014532Y010053D01*
X014521Y010042D02*
X009771Y010042D01*
X009771Y010200D02*
X015851Y010200D01*
X015851Y010042D02*
X015602Y010042D01*
X015733Y009883D02*
X015851Y009883D01*
X015851Y009725D02*
X015781Y009725D01*
X015770Y009566D02*
X015851Y009566D01*
X015851Y009408D02*
X015691Y009408D01*
X015851Y009249D02*
X015451Y009249D01*
X015429Y009120D02*
X015590Y009053D01*
X015714Y008929D01*
X015781Y008768D01*
X015781Y008592D01*
X015714Y008431D01*
X015590Y008307D01*
X015429Y008240D01*
X014694Y008240D01*
X014532Y008307D01*
X014408Y008431D01*
X014341Y008592D01*
X014341Y008768D01*
X014408Y008929D01*
X014532Y009053D01*
X014694Y009120D01*
X015429Y009120D01*
X015500Y009091D02*
X015851Y009091D01*
X015851Y008932D02*
X015711Y008932D01*
X015779Y008774D02*
X015851Y008774D01*
X015851Y008615D02*
X015781Y008615D01*
X015725Y008457D02*
X015851Y008457D01*
X015851Y008298D02*
X015569Y008298D01*
X015851Y008140D02*
X010837Y008140D01*
X010861Y008129D02*
X010667Y008210D01*
X010456Y008210D01*
X010366Y008173D01*
X009771Y008767D01*
X009771Y020470D01*
X014392Y020470D01*
X014408Y020431D01*
X014532Y020307D01*
X014694Y020240D01*
X015429Y020240D01*
X015590Y020307D01*
X015714Y020431D01*
X015781Y020592D01*
X015781Y020768D01*
X015714Y020929D01*
X015590Y021053D01*
X015429Y021120D01*
X014694Y021120D01*
X014532Y021053D01*
X014408Y020929D01*
X014392Y020890D01*
X009474Y020890D01*
X009351Y020767D01*
X009351Y008593D01*
X010069Y007876D01*
X010031Y007785D01*
X010031Y007575D01*
X010112Y007380D01*
X010261Y007231D01*
X010456Y007150D01*
X010667Y007150D01*
X010861Y007231D01*
X011011Y007380D01*
X011091Y007575D01*
X011091Y007785D01*
X011011Y007980D01*
X010861Y008129D01*
X011010Y007981D02*
X014460Y007981D01*
X014364Y007823D02*
X011076Y007823D01*
X011091Y007664D02*
X014341Y007664D01*
X014377Y007506D02*
X011063Y007506D01*
X010978Y007347D02*
X014492Y007347D01*
X014956Y006872D02*
X009271Y006872D01*
X009271Y007030D02*
X015114Y007030D01*
X015273Y007189D02*
X010760Y007189D01*
X010363Y007189D02*
X009271Y007189D01*
X009271Y007347D02*
X010145Y007347D01*
X010060Y007506D02*
X009271Y007506D01*
X009271Y007664D02*
X010031Y007664D01*
X010047Y007823D02*
X009271Y007823D01*
X009271Y007981D02*
X009963Y007981D01*
X009805Y008140D02*
X009271Y008140D01*
X009271Y008298D02*
X009646Y008298D01*
X009488Y008457D02*
X009271Y008457D01*
X009271Y008615D02*
X009351Y008615D01*
X009351Y008774D02*
X009271Y008774D01*
X009271Y008932D02*
X009351Y008932D01*
X009351Y009091D02*
X009271Y009091D01*
X009271Y009249D02*
X009351Y009249D01*
X009351Y009408D02*
X009271Y009408D01*
X009271Y009566D02*
X009351Y009566D01*
X009351Y009725D02*
X009271Y009725D01*
X009271Y009883D02*
X009351Y009883D01*
X009351Y010042D02*
X009271Y010042D01*
X009271Y010200D02*
X009351Y010200D01*
X009351Y010359D02*
X009271Y010359D01*
X009271Y010517D02*
X009351Y010517D01*
X009351Y010676D02*
X009271Y010676D01*
X009271Y010834D02*
X009351Y010834D01*
X009351Y010993D02*
X009271Y010993D01*
X009271Y011151D02*
X009351Y011151D01*
X009351Y011310D02*
X009271Y011310D01*
X009271Y011468D02*
X009351Y011468D01*
X009351Y011627D02*
X009271Y011627D01*
X009271Y011785D02*
X009351Y011785D01*
X009351Y011944D02*
X009271Y011944D01*
X009271Y012102D02*
X009351Y012102D01*
X009351Y012261D02*
X009271Y012261D01*
X009271Y012419D02*
X009351Y012419D01*
X009351Y012578D02*
X009271Y012578D01*
X009271Y012736D02*
X009351Y012736D01*
X009351Y012895D02*
X009271Y012895D01*
X009271Y013053D02*
X009351Y013053D01*
X009351Y013212D02*
X009271Y013212D01*
X009271Y013370D02*
X009351Y013370D01*
X009351Y013529D02*
X009271Y013529D01*
X009271Y013687D02*
X009351Y013687D01*
X009351Y013846D02*
X009193Y013846D01*
X009351Y014004D02*
X009034Y014004D01*
X008876Y014163D02*
X009351Y014163D01*
X009351Y014321D02*
X008717Y014321D01*
X008559Y014480D02*
X009351Y014480D01*
X009351Y014638D02*
X008546Y014638D01*
X008546Y014797D02*
X009351Y014797D01*
X009351Y014955D02*
X008546Y014955D01*
X008504Y015114D02*
X009351Y015114D01*
X009351Y015272D02*
X007771Y015272D01*
X007771Y015431D02*
X009351Y015431D01*
X009351Y015589D02*
X007771Y015589D01*
X007771Y015748D02*
X009351Y015748D01*
X009351Y015906D02*
X007771Y015906D01*
X007771Y016065D02*
X009351Y016065D01*
X009351Y016223D02*
X007771Y016223D01*
X007771Y016382D02*
X009351Y016382D01*
X009351Y016540D02*
X007771Y016540D01*
X007771Y016699D02*
X009351Y016699D01*
X009351Y016857D02*
X007771Y016857D01*
X007771Y017016D02*
X009351Y017016D01*
X009351Y017174D02*
X007771Y017174D01*
X007771Y017333D02*
X009351Y017333D01*
X009351Y017491D02*
X007771Y017491D01*
X007771Y017650D02*
X009351Y017650D01*
X009351Y017808D02*
X007771Y017808D01*
X007771Y017967D02*
X009351Y017967D01*
X009351Y018125D02*
X007771Y018125D01*
X007771Y018284D02*
X009351Y018284D01*
X009351Y018442D02*
X007771Y018442D01*
X007771Y018601D02*
X009351Y018601D01*
X009351Y018759D02*
X007771Y018759D01*
X007771Y018918D02*
X009351Y018918D01*
X009351Y019076D02*
X007771Y019076D01*
X007771Y019235D02*
X009351Y019235D01*
X009351Y019393D02*
X007771Y019393D01*
X007771Y019552D02*
X009351Y019552D01*
X009351Y019710D02*
X007771Y019710D01*
X007771Y019869D02*
X009351Y019869D01*
X009351Y020027D02*
X007771Y020027D01*
X007771Y020186D02*
X009351Y020186D01*
X009351Y020344D02*
X008848Y020344D01*
X008744Y020240D02*
X009001Y020498D01*
X009001Y020862D01*
X008744Y021120D01*
X008379Y021120D01*
X008121Y020862D01*
X008121Y020498D01*
X008379Y020240D01*
X008744Y020240D01*
X009001Y020503D02*
X009351Y020503D01*
X009351Y020661D02*
X009001Y020661D01*
X009001Y020820D02*
X009404Y020820D01*
X008885Y020978D02*
X014457Y020978D01*
X014495Y020344D02*
X009771Y020344D01*
X009771Y020186D02*
X021270Y020186D01*
X021428Y020344D02*
X018628Y020344D01*
X018590Y020307D02*
X018714Y020431D01*
X018781Y020592D01*
X018781Y020768D01*
X018714Y020929D01*
X018590Y021053D01*
X018429Y021120D01*
X017694Y021120D01*
X017532Y021053D01*
X017408Y020929D01*
X017341Y020768D01*
X017341Y020592D01*
X017408Y020431D01*
X017532Y020307D01*
X017694Y020240D01*
X018429Y020240D01*
X018590Y020307D01*
X018429Y020120D02*
X018590Y020053D01*
X018714Y019929D01*
X018781Y019768D01*
X018781Y019592D01*
X018714Y019431D01*
X018590Y019307D01*
X018429Y019240D01*
X017694Y019240D01*
X017532Y019307D01*
X017408Y019431D01*
X017341Y019592D01*
X017341Y019768D01*
X017408Y019929D01*
X017532Y020053D01*
X017694Y020120D01*
X018429Y020120D01*
X018616Y020027D02*
X021111Y020027D01*
X020953Y019869D02*
X018739Y019869D01*
X018781Y019710D02*
X020794Y019710D01*
X020636Y019552D02*
X018764Y019552D01*
X018677Y019393D02*
X020477Y019393D01*
X020319Y019235D02*
X009771Y019235D01*
X009771Y019393D02*
X014446Y019393D01*
X014408Y019431D02*
X014532Y019307D01*
X014694Y019240D01*
X015429Y019240D01*
X015590Y019307D01*
X015714Y019431D01*
X015781Y019592D01*
X015781Y019768D01*
X015714Y019929D01*
X015590Y020053D01*
X015429Y020120D01*
X014694Y020120D01*
X014532Y020053D01*
X014408Y019929D01*
X014341Y019768D01*
X014341Y019592D01*
X014408Y019431D01*
X014358Y019552D02*
X009771Y019552D01*
X009771Y019710D02*
X014341Y019710D01*
X014383Y019869D02*
X009771Y019869D01*
X009771Y020027D02*
X014506Y020027D01*
X014694Y019120D02*
X014532Y019053D01*
X014408Y018929D01*
X014341Y018768D01*
X014341Y018592D01*
X014408Y018431D01*
X014532Y018307D01*
X014694Y018240D01*
X015429Y018240D01*
X015590Y018307D01*
X015714Y018431D01*
X015781Y018592D01*
X015781Y018768D01*
X015714Y018929D01*
X015590Y019053D01*
X015429Y019120D01*
X014694Y019120D01*
X014588Y019076D02*
X010915Y019076D01*
X011037Y018918D02*
X014403Y018918D01*
X014341Y018759D02*
X011091Y018759D01*
X011091Y018601D02*
X014341Y018601D01*
X014404Y018442D02*
X011036Y018442D01*
X010914Y018284D02*
X014589Y018284D01*
X014694Y018120D02*
X014532Y018053D01*
X014408Y017929D01*
X014341Y017768D01*
X014341Y017592D01*
X014408Y017431D01*
X014532Y017307D01*
X014694Y017240D01*
X015429Y017240D01*
X015590Y017307D01*
X015714Y017431D01*
X015781Y017592D01*
X015781Y017768D01*
X015714Y017929D01*
X015590Y018053D01*
X015429Y018120D01*
X014694Y018120D01*
X014446Y017967D02*
X010271Y017967D01*
X010271Y017808D02*
X014358Y017808D01*
X014341Y017650D02*
X010271Y017650D01*
X010271Y017491D02*
X014383Y017491D01*
X014506Y017333D02*
X010271Y017333D01*
X010271Y017174D02*
X010369Y017174D01*
X010753Y017174D02*
X018851Y017174D01*
X018851Y017016D02*
X018628Y017016D01*
X018744Y016857D02*
X018851Y016857D01*
X018851Y016699D02*
X018781Y016699D01*
X018760Y016540D02*
X018851Y016540D01*
X018851Y016382D02*
X018665Y016382D01*
X018851Y016223D02*
X017901Y016223D01*
X017457Y016382D02*
X015665Y016382D01*
X015760Y016540D02*
X017363Y016540D01*
X017341Y016699D02*
X015781Y016699D01*
X015744Y016857D02*
X017378Y016857D01*
X017495Y017016D02*
X015628Y017016D01*
X015616Y017333D02*
X017506Y017333D01*
X017532Y017307D02*
X017694Y017240D01*
X018429Y017240D01*
X018590Y017307D01*
X018714Y017431D01*
X018781Y017592D01*
X018781Y017768D01*
X018714Y017929D01*
X018590Y018053D01*
X018429Y018120D01*
X017694Y018120D01*
X017532Y018053D01*
X017408Y017929D01*
X017341Y017768D01*
X017341Y017592D01*
X017408Y017431D01*
X017532Y017307D01*
X017383Y017491D02*
X015739Y017491D01*
X015781Y017650D02*
X017341Y017650D01*
X017358Y017808D02*
X015764Y017808D01*
X015677Y017967D02*
X017446Y017967D01*
X017589Y018284D02*
X015534Y018284D01*
X015719Y018442D02*
X017404Y018442D01*
X017408Y018431D02*
X017532Y018307D01*
X017694Y018240D01*
X018429Y018240D01*
X018590Y018307D01*
X018714Y018431D01*
X018781Y018592D01*
X018781Y018768D01*
X018714Y018929D01*
X018590Y019053D01*
X018429Y019120D01*
X017694Y019120D01*
X017532Y019053D01*
X017408Y018929D01*
X017341Y018768D01*
X017341Y018592D01*
X017408Y018431D01*
X017341Y018601D02*
X015781Y018601D01*
X015781Y018759D02*
X017341Y018759D01*
X017403Y018918D02*
X015719Y018918D01*
X015535Y019076D02*
X017588Y019076D01*
X017446Y019393D02*
X015677Y019393D01*
X015764Y019552D02*
X017358Y019552D01*
X017341Y019710D02*
X015781Y019710D01*
X015739Y019869D02*
X017383Y019869D01*
X017506Y020027D02*
X015616Y020027D01*
X015628Y020344D02*
X017495Y020344D01*
X017379Y020503D02*
X015744Y020503D01*
X015781Y020661D02*
X017341Y020661D01*
X017363Y020820D02*
X015760Y020820D01*
X015665Y020978D02*
X017457Y020978D01*
X018665Y020978D02*
X022062Y020978D01*
X021904Y020820D02*
X018760Y020820D01*
X018781Y020661D02*
X021745Y020661D01*
X021587Y020503D02*
X018744Y020503D01*
X018535Y019076D02*
X020160Y019076D01*
X020002Y018918D02*
X018719Y018918D01*
X018781Y018759D02*
X019843Y018759D01*
X019685Y018601D02*
X018781Y018601D01*
X018719Y018442D02*
X019526Y018442D01*
X019368Y018284D02*
X018534Y018284D01*
X018677Y017967D02*
X019051Y017967D01*
X019209Y018125D02*
X010303Y018125D01*
X010026Y018442D02*
X009771Y018442D01*
X009771Y018284D02*
X009868Y018284D01*
X009851Y018125D02*
X009771Y018125D01*
X009771Y017967D02*
X009851Y017967D01*
X009851Y017808D02*
X009771Y017808D01*
X009771Y017650D02*
X009851Y017650D01*
X009851Y017491D02*
X009771Y017491D01*
X009771Y017333D02*
X009851Y017333D01*
X009851Y017174D02*
X009771Y017174D01*
X009771Y017016D02*
X009851Y017016D01*
X009851Y016857D02*
X009771Y016857D01*
X009771Y016699D02*
X009851Y016699D01*
X009851Y016540D02*
X009771Y016540D01*
X009771Y016382D02*
X009851Y016382D01*
X009851Y016223D02*
X009771Y016223D01*
X009771Y016065D02*
X009851Y016065D01*
X009851Y015906D02*
X009771Y015906D01*
X009771Y015748D02*
X009851Y015748D01*
X009851Y015589D02*
X009771Y015589D01*
X009771Y015431D02*
X009851Y015431D01*
X009851Y015272D02*
X009771Y015272D01*
X009771Y015114D02*
X009851Y015114D01*
X009851Y014955D02*
X009771Y014955D01*
X009771Y014797D02*
X009851Y014797D01*
X009851Y014638D02*
X009771Y014638D01*
X009771Y014480D02*
X009851Y014480D01*
X009851Y014321D02*
X009771Y014321D01*
X009771Y014163D02*
X009851Y014163D01*
X009771Y014004D02*
X009940Y014004D01*
X010056Y013846D02*
X009771Y013846D01*
X009771Y013687D02*
X010031Y013687D01*
X010050Y013529D02*
X009771Y013529D01*
X009771Y013370D02*
X010122Y013370D01*
X010307Y013212D02*
X009771Y013212D01*
X009771Y013053D02*
X013391Y013053D01*
X013233Y013212D02*
X010815Y013212D01*
X011001Y013370D02*
X013074Y013370D01*
X012916Y013529D02*
X011072Y013529D01*
X011091Y013687D02*
X012757Y013687D01*
X012599Y013846D02*
X011066Y013846D01*
X010987Y014004D02*
X012440Y014004D01*
X012282Y014163D02*
X010781Y014163D01*
X010271Y014321D02*
X012123Y014321D01*
X011965Y014480D02*
X010271Y014480D01*
X010271Y014638D02*
X011806Y014638D01*
X011648Y014797D02*
X010271Y014797D01*
X010271Y014955D02*
X011489Y014955D01*
X011331Y015114D02*
X010271Y015114D01*
X010271Y015272D02*
X011172Y015272D01*
X011014Y015431D02*
X010271Y015431D01*
X010271Y015589D02*
X010855Y015589D01*
X010697Y015748D02*
X010271Y015748D01*
X010271Y015906D02*
X010538Y015906D01*
X010380Y016065D02*
X010271Y016065D01*
X010271Y016223D02*
X010280Y016223D01*
X010823Y016215D02*
X010861Y016231D01*
X011011Y016380D01*
X011077Y016540D02*
X014363Y016540D01*
X014341Y016699D02*
X011091Y016699D01*
X011062Y016857D02*
X014378Y016857D01*
X014495Y017016D02*
X010975Y017016D01*
X010843Y016223D02*
X017307Y016223D01*
X017149Y016065D02*
X015563Y016065D01*
X015851Y014163D02*
X012876Y014163D01*
X013550Y012895D02*
X009771Y012895D01*
X009771Y012736D02*
X013708Y012736D01*
X013867Y012578D02*
X010913Y012578D01*
X010861Y012629D02*
X010667Y012710D01*
X010456Y012710D01*
X010261Y012629D01*
X010112Y012480D01*
X010031Y012285D01*
X010031Y012075D01*
X010112Y011880D01*
X010261Y011731D01*
X010456Y011650D01*
X010667Y011650D01*
X010861Y011731D01*
X011011Y011880D01*
X011091Y012075D01*
X011091Y012285D01*
X011011Y012480D01*
X010861Y012629D01*
X011036Y012419D02*
X014025Y012419D01*
X014184Y012261D02*
X011091Y012261D01*
X011091Y012102D02*
X014342Y012102D01*
X014423Y011944D02*
X011037Y011944D01*
X010916Y011785D02*
X014349Y011785D01*
X014341Y011627D02*
X009771Y011627D01*
X009771Y011785D02*
X010207Y011785D01*
X010086Y011944D02*
X009771Y011944D01*
X009771Y012102D02*
X010031Y012102D01*
X010031Y012261D02*
X009771Y012261D01*
X009771Y012419D02*
X010087Y012419D01*
X010209Y012578D02*
X009771Y012578D01*
X009771Y011468D02*
X014393Y011468D01*
X014529Y011310D02*
X009771Y011310D01*
X009771Y009883D02*
X014389Y009883D01*
X014341Y009725D02*
X009771Y009725D01*
X009771Y009566D02*
X010198Y009566D01*
X010261Y009629D02*
X010112Y009480D01*
X010031Y009285D01*
X010031Y009075D01*
X010112Y008880D01*
X010261Y008731D01*
X010456Y008650D01*
X010667Y008650D01*
X010861Y008731D01*
X011011Y008880D01*
X011091Y009075D01*
X011091Y009285D01*
X011011Y009480D01*
X010861Y009629D01*
X010667Y009710D01*
X010456Y009710D01*
X010261Y009629D01*
X010082Y009408D02*
X009771Y009408D01*
X009771Y009249D02*
X010031Y009249D01*
X010031Y009091D02*
X009771Y009091D01*
X009771Y008932D02*
X010090Y008932D01*
X010218Y008774D02*
X009771Y008774D01*
X009923Y008615D02*
X014341Y008615D01*
X014344Y008774D02*
X010904Y008774D01*
X011032Y008932D02*
X014411Y008932D01*
X014623Y009091D02*
X011091Y009091D01*
X011091Y009249D02*
X014672Y009249D01*
X014431Y009408D02*
X011041Y009408D01*
X010925Y009566D02*
X014352Y009566D01*
X014398Y008457D02*
X010082Y008457D01*
X010240Y008298D02*
X014554Y008298D01*
X015662Y007981D02*
X015851Y007981D01*
X015851Y007823D02*
X015758Y007823D01*
X016271Y007823D02*
X016861Y007823D01*
X016861Y007981D02*
X016271Y007981D01*
X016271Y008140D02*
X016861Y008140D01*
X016861Y008298D02*
X016271Y008298D01*
X016271Y008457D02*
X016861Y008457D01*
X016861Y008615D02*
X016271Y008615D01*
X016271Y008774D02*
X016861Y008774D01*
X016861Y008932D02*
X016271Y008932D01*
X016271Y009091D02*
X016861Y009091D01*
X016861Y009249D02*
X016271Y009249D01*
X016271Y009408D02*
X016861Y009408D01*
X016861Y009566D02*
X016271Y009566D01*
X016271Y009725D02*
X016861Y009725D01*
X016861Y009883D02*
X016271Y009883D01*
X016271Y010042D02*
X016861Y010042D01*
X016861Y010200D02*
X016271Y010200D01*
X016271Y010359D02*
X016861Y010359D01*
X016861Y010517D02*
X016271Y010517D01*
X016271Y010676D02*
X016861Y010676D01*
X016932Y010834D02*
X016271Y010834D01*
X016271Y010993D02*
X017091Y010993D01*
X017249Y011151D02*
X016271Y011151D01*
X015851Y010834D02*
X015754Y010834D01*
X015781Y010676D02*
X015851Y010676D01*
X015851Y010517D02*
X015750Y010517D01*
X015851Y010359D02*
X015642Y010359D01*
X017261Y010359D02*
X017480Y010359D01*
X017373Y010517D02*
X017261Y010517D01*
X017340Y010676D02*
X017341Y010676D01*
X017261Y010200D02*
X021851Y010200D01*
X021851Y010042D02*
X018602Y010042D01*
X018733Y009883D02*
X021851Y009883D01*
X021851Y009725D02*
X018781Y009725D01*
X018770Y009566D02*
X021851Y009566D01*
X021851Y009408D02*
X018691Y009408D01*
X018789Y009249D02*
X021851Y009249D01*
X021851Y009091D02*
X018948Y009091D01*
X019106Y008932D02*
X021851Y008932D01*
X021851Y008774D02*
X019265Y008774D01*
X019423Y008615D02*
X021851Y008615D01*
X021988Y008457D02*
X019582Y008457D01*
X019740Y008298D02*
X022146Y008298D01*
X022305Y008140D02*
X019899Y008140D01*
X020057Y007981D02*
X022363Y007981D01*
X022281Y007823D02*
X020216Y007823D01*
X020374Y007664D02*
X022261Y007664D01*
X022294Y007506D02*
X020533Y007506D01*
X020691Y007347D02*
X022395Y007347D01*
X022412Y007030D02*
X021008Y007030D01*
X020850Y007189D02*
X023273Y007189D01*
X023709Y007031D02*
X024271Y007593D01*
X024271Y009767D01*
X024148Y009890D01*
X023709Y010329D01*
X023788Y010408D01*
X023861Y010583D01*
X024351Y010093D01*
X024351Y006390D01*
X023770Y006390D01*
X023788Y006408D01*
X023861Y006585D01*
X023861Y006775D01*
X023788Y006952D01*
X023709Y007031D01*
X023710Y007030D02*
X024351Y007030D01*
X024351Y006872D02*
X023821Y006872D01*
X023861Y006713D02*
X024351Y006713D01*
X024351Y006555D02*
X023849Y006555D01*
X023776Y006396D02*
X024351Y006396D01*
X024771Y006396D02*
X025251Y006396D01*
X025251Y006238D02*
X024771Y006238D01*
X024757Y006079D02*
X025251Y006079D01*
X025251Y005921D02*
X019104Y005921D01*
X018945Y006079D02*
X021365Y006079D01*
X021207Y006238D02*
X018787Y006238D01*
X018628Y006396D02*
X021048Y006396D01*
X020890Y006555D02*
X018470Y006555D01*
X018311Y006713D02*
X020731Y006713D01*
X020573Y006872D02*
X018153Y006872D01*
X017994Y007030D02*
X020414Y007030D01*
X020256Y007189D02*
X017836Y007189D01*
X017587Y006872D02*
X015550Y006872D01*
X015708Y007030D02*
X017428Y007030D01*
X017270Y007189D02*
X015867Y007189D01*
X016025Y007347D02*
X017111Y007347D01*
X016953Y007506D02*
X016184Y007506D01*
X016271Y007664D02*
X016861Y007664D01*
X017261Y007823D02*
X017364Y007823D01*
X017460Y007981D02*
X017261Y007981D01*
X017261Y008140D02*
X019305Y008140D01*
X019146Y008298D02*
X018569Y008298D01*
X018725Y008457D02*
X018988Y008457D01*
X018829Y008615D02*
X018781Y008615D01*
X018662Y007981D02*
X019463Y007981D01*
X019622Y007823D02*
X018758Y007823D01*
X018781Y007664D02*
X019780Y007664D01*
X019939Y007506D02*
X018745Y007506D01*
X018631Y007347D02*
X020097Y007347D01*
X021167Y006872D02*
X022301Y006872D01*
X022261Y006713D02*
X021325Y006713D01*
X021484Y006555D02*
X022274Y006555D01*
X022346Y006396D02*
X021642Y006396D01*
X020213Y004811D02*
X025251Y004811D01*
X025251Y004653D02*
X023805Y004653D01*
X023997Y004494D02*
X025251Y004494D01*
X025251Y004336D02*
X024071Y004336D01*
X024091Y004177D02*
X025251Y004177D01*
X025251Y004019D02*
X024068Y004019D01*
X023991Y003860D02*
X025251Y003860D01*
X025251Y003702D02*
X023791Y003702D01*
X023331Y003702D02*
X022791Y003702D01*
X022991Y003860D02*
X023132Y003860D01*
X023126Y004494D02*
X022997Y004494D01*
X022805Y004653D02*
X023317Y004653D01*
X022317Y004653D02*
X020372Y004653D01*
X020530Y004494D02*
X022126Y004494D01*
X020055Y004970D02*
X025251Y004970D01*
X025251Y005128D02*
X019896Y005128D01*
X019738Y005287D02*
X025251Y005287D01*
X025251Y005445D02*
X019579Y005445D01*
X019421Y005604D02*
X025251Y005604D01*
X025251Y005762D02*
X019262Y005762D01*
X019013Y005445D02*
X014123Y005445D01*
X013965Y005287D02*
X019172Y005287D01*
X018855Y005604D02*
X014282Y005604D01*
X014440Y005762D02*
X018696Y005762D01*
X018538Y005921D02*
X014599Y005921D01*
X014757Y006079D02*
X018379Y006079D01*
X018221Y006238D02*
X014916Y006238D01*
X015074Y006396D02*
X018062Y006396D01*
X017904Y006555D02*
X015233Y006555D01*
X015391Y006713D02*
X017745Y006713D01*
X017554Y008298D02*
X017261Y008298D01*
X017261Y008457D02*
X017398Y008457D01*
X017341Y008615D02*
X017261Y008615D01*
X017261Y008774D02*
X017344Y008774D01*
X017411Y008932D02*
X017261Y008932D01*
X017261Y009091D02*
X017623Y009091D01*
X017672Y009249D02*
X017261Y009249D01*
X017261Y009408D02*
X017431Y009408D01*
X017352Y009566D02*
X017261Y009566D01*
X017261Y009725D02*
X017341Y009725D01*
X017389Y009883D02*
X017261Y009883D01*
X017261Y010042D02*
X017521Y010042D01*
X018642Y010359D02*
X021851Y010359D01*
X021851Y010517D02*
X018750Y010517D01*
X018781Y010676D02*
X021851Y010676D01*
X021851Y010834D02*
X018754Y010834D01*
X018651Y010993D02*
X021851Y010993D01*
X022271Y010993D02*
X022375Y010993D01*
X022334Y010952D02*
X022271Y010800D01*
X022271Y011560D01*
X022334Y011408D01*
X022469Y011273D01*
X022646Y011200D01*
X023244Y011200D01*
X023284Y011160D01*
X022646Y011160D01*
X022469Y011087D01*
X022334Y010952D01*
X022286Y010834D02*
X022271Y010834D01*
X022271Y010560D02*
X022334Y010408D01*
X022469Y010273D01*
X022646Y010200D01*
X023244Y010200D01*
X023284Y010160D01*
X022646Y010160D01*
X022469Y010087D01*
X022334Y009952D01*
X022271Y009800D01*
X022271Y010560D01*
X022271Y010517D02*
X022289Y010517D01*
X022271Y010359D02*
X022384Y010359D01*
X022271Y010200D02*
X022646Y010200D01*
X022424Y010042D02*
X022271Y010042D01*
X022271Y009883D02*
X022306Y009883D01*
X022271Y009560D02*
X022334Y009408D01*
X022469Y009273D01*
X022646Y009200D01*
X023477Y009200D01*
X023653Y009273D01*
X023788Y009408D01*
X023851Y009560D01*
X023851Y008800D01*
X023788Y008952D01*
X023653Y009087D01*
X023477Y009160D01*
X022646Y009160D01*
X022469Y009087D01*
X022334Y008952D01*
X022271Y008800D01*
X022271Y009560D01*
X022271Y009408D02*
X022335Y009408D01*
X022271Y009249D02*
X022527Y009249D01*
X022478Y009091D02*
X022271Y009091D01*
X022271Y008932D02*
X022326Y008932D01*
X022838Y008200D02*
X023477Y008200D01*
X023653Y008273D01*
X023788Y008408D01*
X023851Y008560D01*
X023851Y007800D01*
X023788Y007952D01*
X023653Y008087D01*
X023477Y008160D01*
X022878Y008160D01*
X022838Y008200D01*
X023526Y008140D02*
X023851Y008140D01*
X023851Y008298D02*
X023678Y008298D01*
X023808Y008457D02*
X023851Y008457D01*
X024271Y008457D02*
X024351Y008457D01*
X024351Y008615D02*
X024271Y008615D01*
X024271Y008774D02*
X024351Y008774D01*
X024351Y008932D02*
X024271Y008932D01*
X024271Y009091D02*
X024351Y009091D01*
X024351Y009249D02*
X024271Y009249D01*
X024271Y009408D02*
X024351Y009408D01*
X024351Y009566D02*
X024271Y009566D01*
X024271Y009725D02*
X024351Y009725D01*
X024351Y009883D02*
X024155Y009883D01*
X023997Y010042D02*
X024351Y010042D01*
X024244Y010200D02*
X023838Y010200D01*
X023739Y010359D02*
X024086Y010359D01*
X023927Y010517D02*
X023833Y010517D01*
X024204Y010834D02*
X025251Y010834D01*
X025251Y010676D02*
X024363Y010676D01*
X024521Y010517D02*
X025251Y010517D01*
X025251Y010359D02*
X024680Y010359D01*
X024771Y010200D02*
X025251Y010200D01*
X025251Y010042D02*
X024771Y010042D01*
X024771Y009883D02*
X025251Y009883D01*
X025251Y009725D02*
X024771Y009725D01*
X024771Y009566D02*
X025251Y009566D01*
X025251Y009408D02*
X024771Y009408D01*
X024771Y009249D02*
X025251Y009249D01*
X025251Y009091D02*
X024771Y009091D01*
X024771Y008932D02*
X025251Y008932D01*
X025251Y008774D02*
X024771Y008774D01*
X024771Y008615D02*
X025251Y008615D01*
X025251Y008457D02*
X024771Y008457D01*
X024771Y008298D02*
X025251Y008298D01*
X025251Y008140D02*
X024771Y008140D01*
X024771Y007981D02*
X025251Y007981D01*
X025251Y007823D02*
X024771Y007823D01*
X024771Y007664D02*
X025251Y007664D01*
X025251Y007506D02*
X024771Y007506D01*
X024771Y007347D02*
X025251Y007347D01*
X025251Y007189D02*
X024771Y007189D01*
X024771Y007030D02*
X025251Y007030D01*
X025251Y006872D02*
X024771Y006872D01*
X024771Y006713D02*
X025251Y006713D01*
X025251Y006555D02*
X024771Y006555D01*
X024351Y007189D02*
X023867Y007189D01*
X024025Y007347D02*
X024351Y007347D01*
X024351Y007506D02*
X024184Y007506D01*
X024271Y007664D02*
X024351Y007664D01*
X024351Y007823D02*
X024271Y007823D01*
X024271Y007981D02*
X024351Y007981D01*
X024351Y008140D02*
X024271Y008140D01*
X024271Y008298D02*
X024351Y008298D01*
X023851Y007981D02*
X023759Y007981D01*
X023842Y007823D02*
X023851Y007823D01*
X023851Y008932D02*
X023796Y008932D01*
X023851Y009091D02*
X023644Y009091D01*
X023595Y009249D02*
X023851Y009249D01*
X023851Y009408D02*
X023788Y009408D01*
X024046Y010993D02*
X025251Y010993D01*
X025251Y011151D02*
X023887Y011151D01*
X023729Y011310D02*
X025251Y011310D01*
X025251Y011468D02*
X023813Y011468D01*
X023861Y011627D02*
X025251Y011627D01*
X025251Y011785D02*
X023857Y011785D01*
X023792Y011944D02*
X025251Y011944D01*
X025251Y012102D02*
X023617Y012102D01*
X023623Y012261D02*
X025251Y012261D01*
X025251Y012419D02*
X023793Y012419D01*
X023858Y012578D02*
X025251Y012578D01*
X025251Y012736D02*
X023861Y012736D01*
X023812Y012895D02*
X025251Y012895D01*
X025251Y013053D02*
X023687Y013053D01*
X023505Y013212D02*
X025251Y013212D01*
X025251Y013370D02*
X023750Y013370D01*
X023838Y013529D02*
X025251Y013529D01*
X025251Y013687D02*
X023861Y013687D01*
X023832Y013846D02*
X025251Y013846D01*
X025251Y014004D02*
X023736Y014004D01*
X022330Y012419D02*
X022271Y012419D01*
X022271Y012261D02*
X022500Y012261D01*
X022506Y012102D02*
X022271Y012102D01*
X022271Y011944D02*
X022331Y011944D01*
X022310Y011468D02*
X022271Y011468D01*
X022271Y011310D02*
X022433Y011310D01*
X022271Y011151D02*
X022624Y011151D01*
X018832Y015748D02*
X018781Y015748D01*
X018724Y015906D02*
X018851Y015906D01*
X018851Y016065D02*
X018563Y016065D01*
X018616Y017333D02*
X018851Y017333D01*
X018851Y017491D02*
X018739Y017491D01*
X018781Y017650D02*
X018851Y017650D01*
X018892Y017808D02*
X018764Y017808D01*
X020279Y018601D02*
X021851Y018601D01*
X021851Y018759D02*
X020437Y018759D01*
X020596Y018918D02*
X021851Y018918D01*
X021851Y019076D02*
X020754Y019076D01*
X020913Y019235D02*
X021851Y019235D01*
X021851Y019393D02*
X021071Y019393D01*
X021230Y019552D02*
X021851Y019552D01*
X021851Y019710D02*
X021388Y019710D01*
X021547Y019869D02*
X021953Y019869D01*
X022111Y020027D02*
X021705Y020027D01*
X021864Y020186D02*
X022270Y020186D01*
X022398Y020344D02*
X022022Y020344D01*
X022181Y020503D02*
X022295Y020503D01*
X022864Y020186D02*
X025251Y020186D01*
X022562Y019235D02*
X022271Y019235D01*
X022271Y019393D02*
X022349Y019393D01*
X022275Y019552D02*
X022271Y019552D01*
X022271Y019076D02*
X022458Y019076D01*
X022320Y018918D02*
X022271Y018918D01*
X015590Y013053D02*
X015429Y013120D01*
X014694Y013120D01*
X014532Y013053D01*
X014408Y012929D01*
X014341Y012768D01*
X014341Y012697D01*
X010823Y016215D01*
X010031Y018601D02*
X009771Y018601D01*
X009771Y018759D02*
X010031Y018759D01*
X010086Y018918D02*
X009771Y018918D01*
X009771Y019076D02*
X010208Y019076D01*
X008275Y020344D02*
X007848Y020344D01*
X008001Y020503D02*
X008121Y020503D01*
X008121Y020661D02*
X008001Y020661D01*
X008001Y020820D02*
X008121Y020820D01*
X008237Y020978D02*
X007885Y020978D01*
X007351Y019393D02*
X006280Y019393D01*
X006331Y019235D02*
X007351Y019235D01*
X007351Y019076D02*
X006331Y019076D01*
X006266Y018918D02*
X007351Y018918D01*
X007351Y018759D02*
X006121Y018759D01*
X006122Y018601D02*
X007351Y018601D01*
X007351Y018442D02*
X006266Y018442D01*
X006331Y018284D02*
X007351Y018284D01*
X007351Y018125D02*
X006331Y018125D01*
X006280Y017967D02*
X007351Y017967D01*
X007351Y017808D02*
X006154Y017808D01*
X005889Y017650D02*
X007351Y017650D01*
X007351Y017491D02*
X006047Y017491D01*
X006206Y017333D02*
X007351Y017333D01*
X007351Y017174D02*
X006364Y017174D01*
X006523Y017016D02*
X007351Y017016D01*
X007351Y016857D02*
X006681Y016857D01*
X006840Y016699D02*
X007351Y016699D01*
X007351Y016540D02*
X006998Y016540D01*
X007157Y016382D02*
X007351Y016382D01*
X007351Y016223D02*
X007271Y016223D01*
X007271Y016065D02*
X007351Y016065D01*
X007351Y015906D02*
X007271Y015906D01*
X007271Y015748D02*
X007351Y015748D01*
X007351Y015589D02*
X007271Y015589D01*
X007271Y015431D02*
X007351Y015431D01*
X007351Y015272D02*
X007271Y015272D01*
X007282Y015114D02*
X007351Y015114D01*
X005561Y018601D02*
X005342Y018601D01*
X005341Y018759D02*
X005561Y018759D01*
X013985Y013053D02*
X014532Y013053D01*
X014394Y012895D02*
X014144Y012895D01*
X014302Y012736D02*
X014341Y012736D01*
X008351Y009566D02*
X007271Y009566D01*
X007271Y009408D02*
X008351Y009408D01*
X008351Y009249D02*
X007271Y009249D01*
X007271Y009091D02*
X008351Y009091D01*
X008351Y008932D02*
X007271Y008932D01*
X007271Y008774D02*
X008351Y008774D01*
X008351Y008615D02*
X007271Y008615D01*
X007271Y008457D02*
X008351Y008457D01*
X008351Y008298D02*
X007271Y008298D01*
X007271Y008140D02*
X008351Y008140D01*
X008351Y007981D02*
X007271Y007981D01*
X007271Y007823D02*
X008351Y007823D01*
X008351Y007664D02*
X007271Y007664D01*
X007271Y007506D02*
X008351Y007506D01*
X008351Y007347D02*
X007271Y007347D01*
X007271Y007189D02*
X008351Y007189D01*
X008351Y007030D02*
X007271Y007030D01*
X007271Y006872D02*
X008351Y006872D01*
X008351Y006713D02*
X007271Y006713D01*
X007233Y006555D02*
X008351Y006555D01*
X009271Y006555D02*
X014639Y006555D01*
X014797Y006713D02*
X009271Y006713D01*
X009271Y006396D02*
X014480Y006396D01*
X014322Y006238D02*
X009301Y006238D01*
X009459Y006079D02*
X014163Y006079D01*
X014005Y005921D02*
X009618Y005921D01*
X009776Y005762D02*
X013846Y005762D01*
X013688Y005604D02*
X009935Y005604D01*
X010093Y005445D02*
X013529Y005445D01*
X013371Y005287D02*
X010252Y005287D01*
X010863Y005128D02*
X013212Y005128D01*
X013054Y004970D02*
X011015Y004970D01*
X011081Y004811D02*
X012895Y004811D01*
X012737Y004653D02*
X011091Y004653D01*
X011058Y004494D02*
X012578Y004494D01*
X012420Y004336D02*
X010966Y004336D01*
X010732Y004177D02*
X012261Y004177D01*
X015944Y004970D02*
X017179Y004970D01*
X025251Y000690D02*
X002741Y000690D01*
X002741Y000532D02*
X025251Y000532D01*
X025251Y000373D02*
X002741Y000373D01*
X006271Y001483D02*
X006804Y001483D01*
X006761Y001641D02*
X006271Y001641D01*
X006271Y001800D02*
X006771Y001800D01*
X006840Y001958D02*
X006271Y001958D01*
X006678Y003860D02*
X006796Y003860D01*
X006901Y004019D02*
X006520Y004019D01*
X005351Y005267D02*
X005351Y005267D01*
X005371Y005287D02*
X002741Y005287D01*
X002741Y005445D02*
X005529Y005445D01*
X005474Y005390D02*
X005474Y005390D01*
X005688Y005604D02*
X002741Y005604D01*
X002741Y005762D02*
X005846Y005762D01*
X006005Y005921D02*
X002741Y005921D01*
X002741Y006079D02*
X006163Y006079D01*
X004641Y005128D02*
X002741Y005128D01*
X002741Y004970D02*
X004400Y004970D01*
X004318Y004811D02*
X002741Y004811D01*
X002741Y004653D02*
X004301Y004653D01*
X004340Y004494D02*
X002741Y004494D01*
X002741Y004336D02*
X004455Y004336D01*
X005654Y007823D02*
X006851Y007823D01*
X006851Y007981D02*
X005777Y007981D01*
X005821Y008140D02*
X006851Y008140D01*
X006851Y008298D02*
X005810Y008298D01*
X005735Y008457D02*
X006851Y008457D01*
X006851Y008615D02*
X005513Y008615D01*
X005582Y008774D02*
X006851Y008774D01*
X006851Y008932D02*
X005756Y008932D01*
X005765Y009408D02*
X006851Y009408D01*
X006851Y009566D02*
X005626Y009566D01*
X004497Y009566D02*
X003771Y009566D01*
X003771Y009408D02*
X004358Y009408D01*
X004301Y009249D02*
X003771Y009249D01*
X003771Y009091D02*
X004301Y009091D01*
X004366Y008932D02*
X003771Y008932D01*
X003771Y008774D02*
X004541Y008774D01*
X004609Y008615D02*
X003923Y008615D01*
X004082Y008457D02*
X004387Y008457D01*
X004312Y008298D02*
X004240Y008298D01*
X007271Y009725D02*
X007640Y009725D01*
X007576Y009883D02*
X007450Y009883D01*
X007529Y010042D02*
X007576Y010042D01*
X007576Y010200D02*
X007546Y010200D01*
X007576Y010359D02*
X007512Y010359D01*
X007427Y010517D02*
X007410Y010517D01*
M02*
