G75*
G70*
%OFA0B0*%
%FSLAX24Y24*%
%IPPOS*%
%LPD*%
%AMOC8*
5,1,8,0,0,1.08239X$1,22.5*
%
%ADD10C,0.0560*%
%ADD11C,0.0640*%
%ADD12C,0.0650*%
%ADD13R,0.0650X0.0650*%
%ADD14OC8,0.0560*%
%ADD15C,0.0560*%
%ADD16C,0.0740*%
%ADD17C,0.0660*%
%ADD18C,0.1300*%
%ADD19C,0.0600*%
%ADD20C,0.0100*%
%ADD21C,0.0080*%
%ADD22C,0.0160*%
D10*
X014781Y007680D02*
X015341Y007680D01*
X015341Y008680D02*
X014781Y008680D01*
X014781Y009680D02*
X015341Y009680D01*
X015341Y010680D02*
X014781Y010680D01*
X014781Y011680D02*
X015341Y011680D01*
X015341Y012680D02*
X014781Y012680D01*
X014781Y013680D02*
X015341Y013680D01*
X015341Y014680D02*
X014781Y014680D01*
X014781Y015680D02*
X015341Y015680D01*
X015341Y016680D02*
X014781Y016680D01*
X014781Y017680D02*
X015341Y017680D01*
X015341Y018680D02*
X014781Y018680D01*
X014781Y019680D02*
X015341Y019680D01*
X015341Y020680D02*
X014781Y020680D01*
X017781Y020680D02*
X018341Y020680D01*
X018341Y019680D02*
X017781Y019680D01*
X017781Y018680D02*
X018341Y018680D01*
X018341Y017680D02*
X017781Y017680D01*
X017781Y016680D02*
X018341Y016680D01*
X018341Y015680D02*
X017781Y015680D01*
X017781Y014680D02*
X018341Y014680D01*
X018341Y013680D02*
X017781Y013680D01*
X017781Y012680D02*
X018341Y012680D01*
X018341Y011680D02*
X017781Y011680D01*
X017781Y010680D02*
X018341Y010680D01*
X018341Y009680D02*
X017781Y009680D01*
X017781Y008680D02*
X018341Y008680D01*
X018341Y007680D02*
X017781Y007680D01*
D11*
X022741Y007680D02*
X023381Y007680D01*
X023381Y006680D02*
X022741Y006680D01*
X022741Y008680D02*
X023381Y008680D01*
X023381Y009680D02*
X022741Y009680D01*
X022741Y010680D02*
X023381Y010680D01*
X023381Y011680D02*
X022741Y011680D01*
X022741Y012680D02*
X023381Y012680D01*
X023381Y013680D02*
X022741Y013680D01*
X022741Y014680D02*
X023381Y014680D01*
X023381Y015680D02*
X022741Y015680D01*
X022741Y016680D02*
X023381Y016680D01*
X023381Y017680D02*
X022741Y017680D01*
X022741Y018680D02*
X023381Y018680D01*
X023381Y019680D02*
X022741Y019680D01*
X022741Y020680D02*
X023381Y020680D01*
X023381Y021680D02*
X022741Y021680D01*
X007881Y003680D02*
X007241Y003680D01*
X007241Y002680D02*
X007881Y002680D01*
X007881Y001680D02*
X007241Y001680D01*
D12*
X007061Y010180D03*
X007061Y014680D03*
D13*
X008061Y014680D03*
X008061Y010180D03*
D14*
X007561Y020680D03*
X008561Y020680D03*
D15*
X015611Y004680D03*
X017511Y004680D03*
D16*
X014561Y001680D03*
X011561Y001680D03*
X010561Y004680D03*
X010561Y007680D03*
X010561Y009180D03*
X010561Y012180D03*
X010561Y013680D03*
X010561Y016680D03*
X010561Y018680D03*
X010561Y021680D03*
X004061Y013680D03*
X004061Y012680D03*
X004061Y011680D03*
X022561Y004180D03*
X023561Y004180D03*
D17*
X005841Y018188D03*
X005061Y018188D03*
X005061Y019172D03*
X005841Y019172D03*
D18*
X003991Y021050D03*
X003991Y016310D03*
D19*
X004761Y009180D02*
X005361Y009180D01*
X005361Y008180D02*
X004761Y008180D01*
X004761Y007180D02*
X005361Y007180D01*
X005361Y004680D02*
X004761Y004680D01*
X004761Y003680D02*
X005361Y003680D01*
X005361Y002680D02*
X004761Y002680D01*
D20*
X005061Y002680D02*
X006061Y003680D01*
X007561Y003680D01*
X007561Y004680D01*
X010561Y004680D01*
X007561Y002680D02*
X013561Y002680D01*
X015561Y004680D01*
X015611Y004680D01*
X017511Y004680D02*
X021061Y004680D01*
X023061Y006680D01*
X023061Y007680D02*
X020561Y005180D01*
X007061Y005180D01*
X005061Y007180D01*
X005061Y008180D02*
X003561Y008180D01*
X003561Y013180D01*
X004561Y013180D01*
X007561Y016180D01*
X017561Y016180D01*
X018061Y015680D01*
X018061Y014680D02*
X016061Y014680D01*
X015061Y013680D01*
X010561Y013680D01*
X008061Y013680D01*
X007061Y014680D01*
X008061Y014680D02*
X015061Y014680D01*
X015561Y015180D02*
X020561Y015180D01*
X023061Y017680D01*
X022561Y018180D02*
X024561Y018180D01*
X024561Y010180D01*
X023061Y008680D01*
X023061Y009680D02*
X019061Y009680D01*
X018061Y010680D01*
X015561Y011180D02*
X023561Y011180D01*
X024061Y011680D01*
X024061Y016680D01*
X023061Y016680D01*
X022561Y018180D02*
X023061Y018680D01*
X022561Y018180D02*
X016561Y018180D01*
X015061Y016680D01*
X015061Y015680D02*
X015561Y015180D01*
X015061Y012680D02*
X011061Y012680D01*
X010561Y012180D01*
X012061Y011680D02*
X005061Y011680D01*
X004061Y012680D01*
X004061Y013680D02*
X005061Y014680D01*
X005561Y014680D01*
X005561Y018180D01*
X005841Y018188D01*
X008561Y020680D02*
X009561Y021680D01*
X010561Y021680D01*
X015061Y017680D02*
X016561Y019180D01*
X022561Y019180D01*
X023061Y019680D01*
X015561Y011180D02*
X015061Y010680D01*
X015061Y008680D02*
X012061Y011680D01*
X010561Y009180D02*
X005061Y009180D01*
X007061Y005180D02*
X007561Y004680D01*
D21*
X011561Y001680D02*
X012061Y002180D01*
X021561Y002180D01*
X023561Y004180D01*
X004061Y012180D02*
X003883Y012180D01*
D22*
X002741Y022496D02*
X002741Y000360D01*
X025251Y000360D01*
X025251Y022496D01*
X002741Y022496D01*
X002741Y022405D02*
X025251Y022405D01*
X025251Y022246D02*
X002741Y022246D01*
X002741Y022088D02*
X010219Y022088D01*
X010261Y022129D02*
X010112Y021980D01*
X010075Y021890D01*
X009474Y021890D01*
X009351Y021767D01*
X008704Y021120D01*
X008379Y021120D01*
X008121Y020862D01*
X008121Y020498D01*
X008379Y020240D01*
X008744Y020240D01*
X009001Y020498D01*
X009001Y020823D01*
X009648Y021470D01*
X010075Y021470D01*
X010112Y021380D01*
X010261Y021231D01*
X010456Y021150D01*
X010667Y021150D01*
X010861Y021231D01*
X011011Y021380D01*
X011091Y021575D01*
X011091Y021785D01*
X011011Y021980D01*
X010861Y022129D01*
X010667Y022210D01*
X010456Y022210D01*
X010261Y022129D01*
X010091Y021929D02*
X002741Y021929D01*
X002741Y021771D02*
X003614Y021771D01*
X003532Y021737D02*
X003305Y021509D01*
X003181Y021211D01*
X003181Y020889D01*
X003305Y020591D01*
X003532Y020363D01*
X003830Y020240D01*
X004152Y020240D01*
X004450Y020363D01*
X004678Y020591D01*
X004801Y020889D01*
X004801Y021211D01*
X004678Y021509D01*
X004450Y021737D01*
X004152Y021860D01*
X003830Y021860D01*
X003532Y021737D01*
X003408Y021612D02*
X002741Y021612D01*
X002741Y021454D02*
X003282Y021454D01*
X003216Y021295D02*
X002741Y021295D01*
X002741Y021137D02*
X003181Y021137D01*
X003181Y020978D02*
X002741Y020978D01*
X002741Y020820D02*
X003210Y020820D01*
X003276Y020661D02*
X002741Y020661D01*
X002741Y020503D02*
X003393Y020503D01*
X003579Y020344D02*
X002741Y020344D01*
X002741Y020186D02*
X025251Y020186D01*
X025251Y020344D02*
X023724Y020344D01*
X023788Y020408D02*
X023653Y020273D01*
X023477Y020200D01*
X022646Y020200D01*
X022469Y020273D01*
X022334Y020408D01*
X022261Y020585D01*
X022261Y020775D01*
X022334Y020952D01*
X022469Y021087D01*
X022646Y021160D01*
X023477Y021160D01*
X023653Y021087D01*
X023788Y020952D01*
X023861Y020775D01*
X023861Y020585D01*
X023788Y020408D01*
X023827Y020503D02*
X025251Y020503D01*
X025251Y020661D02*
X023861Y020661D01*
X023843Y020820D02*
X025251Y020820D01*
X025251Y020978D02*
X023762Y020978D01*
X023533Y021137D02*
X025251Y021137D01*
X025251Y021295D02*
X023675Y021295D01*
X023653Y021273D02*
X023788Y021408D01*
X023861Y021585D01*
X023861Y021775D01*
X023788Y021952D01*
X023653Y022087D01*
X023477Y022160D01*
X022646Y022160D01*
X022469Y022087D01*
X022334Y021952D01*
X022261Y021775D01*
X022261Y021585D01*
X022334Y021408D01*
X022469Y021273D01*
X022646Y021200D01*
X023477Y021200D01*
X023653Y021273D01*
X023807Y021454D02*
X025251Y021454D01*
X025251Y021612D02*
X023861Y021612D01*
X023861Y021771D02*
X025251Y021771D01*
X025251Y021929D02*
X023798Y021929D01*
X023652Y022088D02*
X025251Y022088D01*
X023653Y020087D02*
X023477Y020160D01*
X022646Y020160D01*
X022469Y020087D01*
X022334Y019952D01*
X022261Y019775D01*
X022261Y019585D01*
X022334Y019408D01*
X022352Y019390D01*
X018674Y019390D01*
X018714Y019431D01*
X018781Y019592D01*
X018781Y019768D01*
X018714Y019929D01*
X018590Y020053D01*
X018429Y020120D01*
X017694Y020120D01*
X017532Y020053D01*
X017408Y019929D01*
X017341Y019768D01*
X017341Y019592D01*
X017408Y019431D01*
X017449Y019390D01*
X016474Y019390D01*
X016351Y019267D01*
X015781Y018697D01*
X015781Y018768D01*
X015714Y018929D01*
X015590Y019053D01*
X015429Y019120D01*
X014694Y019120D01*
X014532Y019053D01*
X014408Y018929D01*
X014341Y018768D01*
X014341Y018592D01*
X014408Y018431D01*
X014532Y018307D01*
X014694Y018240D01*
X015324Y018240D01*
X015204Y018120D01*
X014694Y018120D01*
X014532Y018053D01*
X014408Y017929D01*
X014341Y017768D01*
X014341Y017592D01*
X014408Y017431D01*
X014532Y017307D01*
X014694Y017240D01*
X015324Y017240D01*
X015204Y017120D01*
X014694Y017120D01*
X014532Y017053D01*
X014408Y016929D01*
X014341Y016768D01*
X014341Y016592D01*
X014408Y016431D01*
X014449Y016390D01*
X011015Y016390D01*
X011091Y016575D01*
X011091Y016785D01*
X011011Y016980D01*
X010861Y017129D01*
X010667Y017210D01*
X010456Y017210D01*
X010261Y017129D01*
X010112Y016980D01*
X010031Y016785D01*
X010031Y016575D01*
X010108Y016390D01*
X007474Y016390D01*
X005771Y014687D01*
X005771Y017698D01*
X005939Y017698D01*
X006119Y017772D01*
X006257Y017910D01*
X006331Y018090D01*
X006331Y018285D01*
X006257Y018465D01*
X006119Y018603D01*
X005939Y018678D01*
X005744Y018678D01*
X005564Y018603D01*
X005451Y018491D01*
X005339Y018603D01*
X005159Y018678D01*
X004964Y018678D01*
X004784Y018603D01*
X004646Y018465D01*
X004571Y018285D01*
X004571Y018090D01*
X004646Y017910D01*
X004784Y017772D01*
X004964Y017698D01*
X005159Y017698D01*
X005339Y017772D01*
X005351Y017785D01*
X005351Y014890D01*
X004974Y014890D01*
X004257Y014173D01*
X004167Y014210D01*
X003956Y014210D01*
X003761Y014129D01*
X003612Y013980D01*
X003531Y013785D01*
X003531Y013575D01*
X003608Y013390D01*
X003474Y013390D01*
X003351Y013267D01*
X003351Y008093D01*
X003474Y007970D01*
X004350Y007970D01*
X004371Y007919D01*
X004501Y007790D01*
X004670Y007720D01*
X005453Y007720D01*
X005622Y007790D01*
X005751Y007919D01*
X005821Y008088D01*
X005821Y008271D01*
X005751Y008441D01*
X005622Y008570D01*
X005453Y008640D01*
X004670Y008640D01*
X004501Y008570D01*
X004371Y008441D01*
X004350Y008390D01*
X003771Y008390D01*
X003771Y011226D01*
X003956Y011150D01*
X004167Y011150D01*
X004361Y011231D01*
X004511Y011380D01*
X004591Y011575D01*
X004591Y011785D01*
X004659Y011785D01*
X004591Y011785D02*
X004543Y011901D01*
X004974Y011470D01*
X011974Y011470D01*
X014462Y008983D01*
X014408Y008929D01*
X014341Y008768D01*
X014341Y008592D01*
X014408Y008431D01*
X014532Y008307D01*
X014694Y008240D01*
X015429Y008240D01*
X015590Y008307D01*
X015714Y008431D01*
X015781Y008592D01*
X015781Y008768D01*
X015714Y008929D01*
X015590Y009053D01*
X015429Y009120D01*
X014918Y009120D01*
X014798Y009240D01*
X015429Y009240D01*
X015590Y009307D01*
X015714Y009431D01*
X015781Y009592D01*
X015781Y009768D01*
X015714Y009929D01*
X015590Y010053D01*
X015429Y010120D01*
X014694Y010120D01*
X014532Y010053D01*
X014408Y009929D01*
X014341Y009768D01*
X014341Y009697D01*
X012271Y011767D01*
X012148Y011890D01*
X011015Y011890D01*
X011091Y012075D01*
X011091Y012285D01*
X011054Y012376D01*
X011148Y012470D01*
X014392Y012470D01*
X014408Y012431D01*
X014532Y012307D01*
X014694Y012240D01*
X015429Y012240D01*
X015590Y012307D01*
X015714Y012431D01*
X015781Y012592D01*
X015781Y012768D01*
X015714Y012929D01*
X015590Y013053D01*
X017532Y013053D01*
X017408Y012929D01*
X017341Y012768D01*
X017341Y012592D01*
X017408Y012431D01*
X017532Y012307D01*
X017694Y012240D01*
X018429Y012240D01*
X018590Y012307D01*
X018714Y012431D01*
X018781Y012592D01*
X018781Y012768D01*
X018714Y012929D01*
X018590Y013053D01*
X022435Y013053D01*
X022469Y013087D02*
X022334Y012952D01*
X022261Y012775D01*
X022261Y012585D01*
X022334Y012408D01*
X022469Y012273D01*
X022646Y012200D01*
X023477Y012200D01*
X023653Y012273D01*
X023788Y012408D01*
X023851Y012560D01*
X023851Y011800D01*
X023788Y011952D01*
X023653Y012087D01*
X023477Y012160D01*
X022646Y012160D01*
X022469Y012087D01*
X022334Y011952D01*
X022261Y011775D01*
X022261Y011585D01*
X022334Y011408D01*
X022352Y011390D01*
X018674Y011390D01*
X018714Y011431D01*
X018781Y011592D01*
X018781Y011768D01*
X018714Y011929D01*
X018590Y012053D01*
X018429Y012120D01*
X017694Y012120D01*
X017532Y012053D01*
X017408Y011929D01*
X017341Y011768D01*
X017341Y011592D01*
X017408Y011431D01*
X017449Y011390D01*
X015674Y011390D01*
X015714Y011431D01*
X015781Y011592D01*
X015781Y011768D01*
X015714Y011929D01*
X015590Y012053D01*
X015429Y012120D01*
X014694Y012120D01*
X014532Y012053D01*
X014408Y011929D01*
X014341Y011768D01*
X014341Y011592D01*
X014408Y011431D01*
X014532Y011307D01*
X014694Y011240D01*
X015324Y011240D01*
X015204Y011120D01*
X014694Y011120D01*
X014532Y011053D01*
X014408Y010929D01*
X014341Y010768D01*
X014341Y010592D01*
X014408Y010431D01*
X014532Y010307D01*
X014694Y010240D01*
X015429Y010240D01*
X015590Y010307D01*
X015714Y010431D01*
X015781Y010592D01*
X015781Y010768D01*
X015714Y010929D01*
X015674Y010970D01*
X017449Y010970D01*
X017408Y010929D01*
X017341Y010768D01*
X017341Y010592D01*
X017408Y010431D01*
X017532Y010307D01*
X017694Y010240D01*
X018204Y010240D01*
X018324Y010120D01*
X017694Y010120D01*
X017532Y010053D01*
X017408Y009929D01*
X017341Y009768D01*
X017341Y009592D01*
X017408Y009431D01*
X017532Y009307D01*
X017694Y009240D01*
X018429Y009240D01*
X018590Y009307D01*
X018714Y009431D01*
X018781Y009592D01*
X018781Y009663D01*
X018851Y009593D01*
X018974Y009470D01*
X022309Y009470D01*
X022334Y009408D01*
X022469Y009273D01*
X022646Y009200D01*
X023284Y009200D01*
X023244Y009160D01*
X022646Y009160D01*
X022469Y009087D01*
X022334Y008952D01*
X022261Y008775D01*
X022261Y008585D01*
X022334Y008408D01*
X022469Y008273D01*
X022646Y008200D01*
X023477Y008200D01*
X023653Y008273D01*
X023788Y008408D01*
X023861Y008585D01*
X023861Y008775D01*
X023788Y008952D01*
X023709Y009031D01*
X024648Y009970D01*
X024771Y010093D01*
X024771Y018267D01*
X024648Y018390D01*
X023770Y018390D01*
X023788Y018408D01*
X023861Y018585D01*
X023861Y018775D01*
X023788Y018952D01*
X023653Y019087D01*
X023477Y019160D01*
X022838Y019160D01*
X022878Y019200D01*
X023477Y019200D01*
X023653Y019273D01*
X023788Y019408D01*
X023861Y019585D01*
X023861Y019775D01*
X023788Y019952D01*
X023653Y020087D01*
X023713Y020027D02*
X025251Y020027D01*
X025251Y019869D02*
X023823Y019869D01*
X023861Y019710D02*
X025251Y019710D01*
X025251Y019552D02*
X023848Y019552D01*
X023773Y019393D02*
X025251Y019393D01*
X025251Y019235D02*
X023560Y019235D01*
X023664Y019076D02*
X025251Y019076D01*
X025251Y018918D02*
X023802Y018918D01*
X023861Y018759D02*
X025251Y018759D01*
X025251Y018601D02*
X023861Y018601D01*
X023802Y018442D02*
X025251Y018442D01*
X025251Y018284D02*
X024755Y018284D01*
X024771Y018125D02*
X025251Y018125D01*
X025251Y017967D02*
X024771Y017967D01*
X024771Y017808D02*
X025251Y017808D01*
X025251Y017650D02*
X024771Y017650D01*
X024771Y017491D02*
X025251Y017491D01*
X025251Y017333D02*
X024771Y017333D01*
X024771Y017174D02*
X025251Y017174D01*
X025251Y017016D02*
X024771Y017016D01*
X024771Y016857D02*
X025251Y016857D01*
X025251Y016699D02*
X024771Y016699D01*
X024771Y016540D02*
X025251Y016540D01*
X025251Y016382D02*
X024771Y016382D01*
X024771Y016223D02*
X025251Y016223D01*
X025251Y016065D02*
X024771Y016065D01*
X024771Y015906D02*
X025251Y015906D01*
X025251Y015748D02*
X024771Y015748D01*
X024771Y015589D02*
X025251Y015589D01*
X025251Y015431D02*
X024771Y015431D01*
X024771Y015272D02*
X025251Y015272D01*
X025251Y015114D02*
X024771Y015114D01*
X024771Y014955D02*
X025251Y014955D01*
X025251Y014797D02*
X024771Y014797D01*
X024771Y014638D02*
X025251Y014638D01*
X025251Y014480D02*
X024771Y014480D01*
X024771Y014321D02*
X025251Y014321D01*
X025251Y014163D02*
X024771Y014163D01*
X024771Y014004D02*
X025251Y014004D01*
X025251Y013846D02*
X024771Y013846D01*
X024771Y013687D02*
X025251Y013687D01*
X025251Y013529D02*
X024771Y013529D01*
X024771Y013370D02*
X025251Y013370D01*
X025251Y013212D02*
X024771Y013212D01*
X024771Y013053D02*
X025251Y013053D01*
X025251Y012895D02*
X024771Y012895D01*
X024771Y012736D02*
X025251Y012736D01*
X025251Y012578D02*
X024771Y012578D01*
X024771Y012419D02*
X025251Y012419D01*
X025251Y012261D02*
X024771Y012261D01*
X024771Y012102D02*
X025251Y012102D01*
X025251Y011944D02*
X024771Y011944D01*
X024771Y011785D02*
X025251Y011785D01*
X025251Y011627D02*
X024771Y011627D01*
X024771Y011468D02*
X025251Y011468D01*
X025251Y011310D02*
X024771Y011310D01*
X024771Y011151D02*
X025251Y011151D01*
X025251Y010993D02*
X024771Y010993D01*
X024771Y010834D02*
X025251Y010834D01*
X025251Y010676D02*
X024771Y010676D01*
X024771Y010517D02*
X025251Y010517D01*
X025251Y010359D02*
X024771Y010359D01*
X024771Y010200D02*
X025251Y010200D01*
X025251Y010042D02*
X024720Y010042D01*
X024561Y009883D02*
X025251Y009883D01*
X025251Y009725D02*
X024403Y009725D01*
X024244Y009566D02*
X025251Y009566D01*
X025251Y009408D02*
X024086Y009408D01*
X023927Y009249D02*
X025251Y009249D01*
X025251Y009091D02*
X023769Y009091D01*
X023796Y008932D02*
X025251Y008932D01*
X025251Y008774D02*
X023861Y008774D01*
X023861Y008615D02*
X025251Y008615D01*
X025251Y008457D02*
X023808Y008457D01*
X023678Y008298D02*
X025251Y008298D01*
X025251Y008140D02*
X023526Y008140D01*
X023477Y008160D02*
X022646Y008160D01*
X022469Y008087D01*
X022334Y007952D01*
X022261Y007775D01*
X022261Y007585D01*
X022334Y007408D01*
X022413Y007329D01*
X020474Y005390D01*
X007148Y005390D01*
X005685Y006853D01*
X005751Y006919D01*
X005821Y007088D01*
X005821Y007271D01*
X005751Y007441D01*
X005622Y007570D01*
X005453Y007640D01*
X004670Y007640D01*
X004501Y007570D01*
X004371Y007441D01*
X004301Y007271D01*
X004301Y007088D01*
X004371Y006919D01*
X004501Y006790D01*
X004670Y006720D01*
X005224Y006720D01*
X006851Y005093D01*
X006974Y004970D01*
X007351Y004593D01*
X007351Y004160D01*
X007146Y004160D01*
X006969Y004087D01*
X006834Y003952D01*
X006809Y003890D01*
X005974Y003890D01*
X005851Y003767D01*
X005821Y003737D01*
X005821Y003771D01*
X005751Y003941D01*
X005622Y004070D01*
X005453Y004140D01*
X004670Y004140D01*
X004501Y004070D01*
X004371Y003941D01*
X004301Y003771D01*
X004301Y003588D01*
X004371Y003419D01*
X004501Y003290D01*
X004670Y003220D01*
X005304Y003220D01*
X005224Y003140D01*
X004670Y003140D01*
X004501Y003070D01*
X004371Y002941D01*
X004301Y002771D01*
X004301Y002588D01*
X004371Y002419D01*
X004501Y002290D01*
X004670Y002220D01*
X005453Y002220D01*
X005622Y002290D01*
X005751Y002419D01*
X005821Y002588D01*
X005821Y002771D01*
X005751Y002941D01*
X005685Y003007D01*
X006148Y003470D01*
X006809Y003470D01*
X006834Y003408D01*
X006969Y003273D01*
X007146Y003200D01*
X007977Y003200D01*
X008153Y003273D01*
X008288Y003408D01*
X008361Y003585D01*
X008361Y003775D01*
X008288Y003952D01*
X008153Y004087D01*
X007977Y004160D01*
X007771Y004160D01*
X007771Y004470D01*
X010075Y004470D01*
X010112Y004380D01*
X010261Y004231D01*
X010456Y004150D01*
X010667Y004150D01*
X010861Y004231D01*
X011011Y004380D01*
X011091Y004575D01*
X011091Y004785D01*
X011015Y004970D01*
X015279Y004970D01*
X015238Y004929D01*
X015171Y004768D01*
X015171Y004592D01*
X015173Y004589D01*
X013474Y002890D01*
X008314Y002890D01*
X008288Y002952D01*
X008153Y003087D01*
X007977Y003160D01*
X007146Y003160D01*
X006969Y003087D01*
X006834Y002952D01*
X006761Y002775D01*
X006761Y002585D01*
X006834Y002408D01*
X006969Y002273D01*
X007146Y002200D01*
X007977Y002200D01*
X008153Y002273D01*
X008288Y002408D01*
X008314Y002470D01*
X013648Y002470D01*
X013771Y002593D01*
X015449Y004271D01*
X015524Y004240D01*
X015699Y004240D01*
X015860Y004307D01*
X015984Y004431D01*
X016051Y004592D01*
X016051Y004768D01*
X015984Y004929D01*
X015944Y004970D01*
X017179Y004970D01*
X017138Y004929D01*
X017071Y004768D01*
X017071Y004592D01*
X017138Y004431D01*
X017262Y004307D01*
X017424Y004240D01*
X017599Y004240D01*
X017760Y004307D01*
X017884Y004431D01*
X017901Y004470D01*
X021148Y004470D01*
X021271Y004593D01*
X022878Y006200D01*
X023477Y006200D01*
X023653Y006273D01*
X023788Y006408D01*
X023861Y006585D01*
X023861Y006775D01*
X023788Y006952D01*
X023653Y007087D01*
X023477Y007160D01*
X022838Y007160D01*
X022878Y007200D01*
X023477Y007200D01*
X023653Y007273D01*
X023788Y007408D01*
X023861Y007585D01*
X023861Y007775D01*
X023788Y007952D01*
X023653Y008087D01*
X023477Y008160D01*
X023759Y007981D02*
X025251Y007981D01*
X025251Y007823D02*
X023842Y007823D01*
X023861Y007664D02*
X025251Y007664D01*
X025251Y007506D02*
X023829Y007506D01*
X023727Y007347D02*
X025251Y007347D01*
X025251Y007189D02*
X022867Y007189D01*
X022395Y007347D02*
X018631Y007347D01*
X018590Y007307D02*
X018714Y007431D01*
X018781Y007592D01*
X018781Y007768D01*
X018714Y007929D01*
X018590Y008053D01*
X018429Y008120D01*
X017694Y008120D01*
X017532Y008053D01*
X017408Y007929D01*
X017341Y007768D01*
X017341Y007592D01*
X017408Y007431D01*
X017532Y007307D01*
X017694Y007240D01*
X018429Y007240D01*
X018590Y007307D01*
X018745Y007506D02*
X022294Y007506D01*
X022261Y007664D02*
X018781Y007664D01*
X018758Y007823D02*
X022281Y007823D01*
X022363Y007981D02*
X018662Y007981D01*
X018569Y008298D02*
X022444Y008298D01*
X022314Y008457D02*
X018725Y008457D01*
X018714Y008431D02*
X018781Y008592D01*
X018781Y008768D01*
X018714Y008929D01*
X018590Y009053D01*
X018429Y009120D01*
X017694Y009120D01*
X017532Y009053D01*
X017408Y008929D01*
X017341Y008768D01*
X017341Y008592D01*
X017408Y008431D01*
X017532Y008307D01*
X017694Y008240D01*
X018429Y008240D01*
X018590Y008307D01*
X018714Y008431D01*
X018781Y008615D02*
X022261Y008615D01*
X022261Y008774D02*
X018779Y008774D01*
X018711Y008932D02*
X022326Y008932D01*
X022478Y009091D02*
X018500Y009091D01*
X018451Y009249D02*
X022527Y009249D01*
X022335Y009408D02*
X018691Y009408D01*
X018770Y009566D02*
X018878Y009566D01*
X018851Y009593D02*
X018851Y009593D01*
X019148Y009890D02*
X018661Y010377D01*
X018714Y010431D01*
X018781Y010592D01*
X018781Y010768D01*
X018714Y010929D01*
X018674Y010970D01*
X022352Y010970D01*
X022334Y010952D01*
X022261Y010775D01*
X022261Y010585D01*
X022334Y010408D01*
X022469Y010273D01*
X022646Y010200D01*
X023477Y010200D01*
X024284Y010200D01*
X024351Y010267D02*
X024351Y017970D01*
X023770Y017970D01*
X023788Y017952D01*
X023861Y017775D01*
X023861Y017585D01*
X023788Y017408D01*
X023653Y017273D01*
X023477Y017200D01*
X022878Y017200D01*
X022838Y017160D01*
X023477Y017160D01*
X023653Y017087D01*
X023788Y016952D01*
X023814Y016890D01*
X024148Y016890D01*
X024271Y016767D01*
X024271Y011593D01*
X024148Y011470D01*
X023709Y011031D01*
X023788Y010952D01*
X023861Y010775D01*
X023861Y010585D01*
X023788Y010408D01*
X023653Y010273D01*
X023477Y010200D01*
X023477Y010160D02*
X022646Y010160D01*
X022469Y010087D01*
X022334Y009952D01*
X022309Y009890D01*
X019148Y009890D01*
X018997Y010042D02*
X022424Y010042D01*
X022646Y010200D02*
X018838Y010200D01*
X018680Y010359D02*
X022384Y010359D01*
X022289Y010517D02*
X018750Y010517D01*
X018781Y010676D02*
X022261Y010676D01*
X022286Y010834D02*
X018754Y010834D01*
X018730Y011468D02*
X022310Y011468D01*
X022261Y011627D02*
X018781Y011627D01*
X018774Y011785D02*
X022265Y011785D01*
X022331Y011944D02*
X018700Y011944D01*
X018472Y012102D02*
X022506Y012102D01*
X022500Y012261D02*
X018478Y012261D01*
X018703Y012419D02*
X022330Y012419D01*
X022264Y012578D02*
X018775Y012578D01*
X018781Y012736D02*
X022261Y012736D01*
X022311Y012895D02*
X018729Y012895D01*
X018590Y013053D02*
X018429Y013120D01*
X017694Y013120D01*
X017532Y013053D01*
X017394Y012895D02*
X015729Y012895D01*
X015781Y012736D02*
X017341Y012736D01*
X017347Y012578D02*
X015775Y012578D01*
X015703Y012419D02*
X017420Y012419D01*
X017644Y012261D02*
X015478Y012261D01*
X015472Y012102D02*
X017650Y012102D01*
X017423Y011944D02*
X015700Y011944D01*
X015774Y011785D02*
X017349Y011785D01*
X017341Y011627D02*
X015781Y011627D01*
X015730Y011468D02*
X017393Y011468D01*
X017369Y010834D02*
X015754Y010834D01*
X015781Y010676D02*
X017341Y010676D01*
X017373Y010517D02*
X015750Y010517D01*
X015642Y010359D02*
X017480Y010359D01*
X017521Y010042D02*
X015602Y010042D01*
X015733Y009883D02*
X017389Y009883D01*
X017341Y009725D02*
X015781Y009725D01*
X015770Y009566D02*
X017352Y009566D01*
X017431Y009408D02*
X015691Y009408D01*
X015451Y009249D02*
X017672Y009249D01*
X017623Y009091D02*
X015500Y009091D01*
X015711Y008932D02*
X017411Y008932D01*
X017344Y008774D02*
X015779Y008774D01*
X015781Y008615D02*
X017341Y008615D01*
X017398Y008457D02*
X015725Y008457D01*
X015569Y008298D02*
X017554Y008298D01*
X017460Y007981D02*
X015662Y007981D01*
X015714Y007929D02*
X015590Y008053D01*
X015429Y008120D01*
X014694Y008120D01*
X014532Y008053D01*
X014408Y007929D01*
X014341Y007768D01*
X014341Y007592D01*
X014408Y007431D01*
X014532Y007307D01*
X014694Y007240D01*
X015429Y007240D01*
X015590Y007307D01*
X015714Y007431D01*
X015781Y007592D01*
X015781Y007768D01*
X015714Y007929D01*
X015758Y007823D02*
X017364Y007823D01*
X017341Y007664D02*
X015781Y007664D01*
X015745Y007506D02*
X017377Y007506D01*
X017492Y007347D02*
X015631Y007347D01*
X014554Y008298D02*
X005810Y008298D01*
X005821Y008140D02*
X010286Y008140D01*
X010261Y008129D02*
X010456Y008210D01*
X010667Y008210D01*
X010861Y008129D01*
X011011Y007980D01*
X011091Y007785D01*
X011091Y007575D01*
X011011Y007380D01*
X010861Y007231D01*
X010667Y007150D01*
X010456Y007150D01*
X010261Y007231D01*
X010112Y007380D01*
X010031Y007575D01*
X010031Y007785D01*
X010112Y007980D01*
X010261Y008129D01*
X010113Y007981D02*
X005777Y007981D01*
X005654Y007823D02*
X010047Y007823D01*
X010031Y007664D02*
X002741Y007664D01*
X002741Y007506D02*
X004436Y007506D01*
X004333Y007347D02*
X002741Y007347D01*
X002741Y007189D02*
X004301Y007189D01*
X004325Y007030D02*
X002741Y007030D01*
X002741Y006872D02*
X004419Y006872D01*
X005231Y006713D02*
X002741Y006713D01*
X002741Y006555D02*
X005390Y006555D01*
X005548Y006396D02*
X002741Y006396D01*
X002741Y006238D02*
X005707Y006238D01*
X005865Y006079D02*
X002741Y006079D01*
X002741Y005921D02*
X006024Y005921D01*
X006182Y005762D02*
X002741Y005762D01*
X002741Y005604D02*
X006341Y005604D01*
X006499Y005445D02*
X002741Y005445D01*
X002741Y005287D02*
X006658Y005287D01*
X006816Y005128D02*
X005482Y005128D01*
X005453Y005140D02*
X004670Y005140D01*
X004501Y005070D01*
X004371Y004941D01*
X004301Y004771D01*
X004301Y004588D01*
X004371Y004419D01*
X004501Y004290D01*
X004670Y004220D01*
X005453Y004220D01*
X005622Y004290D01*
X005751Y004419D01*
X005821Y004588D01*
X005821Y004771D01*
X005751Y004941D01*
X005622Y005070D01*
X005453Y005140D01*
X005722Y004970D02*
X006975Y004970D01*
X007133Y004811D02*
X005805Y004811D01*
X005821Y004653D02*
X007292Y004653D01*
X007351Y004494D02*
X005782Y004494D01*
X005667Y004336D02*
X007351Y004336D01*
X007351Y004177D02*
X002741Y004177D01*
X002741Y004019D02*
X004449Y004019D01*
X004338Y003860D02*
X002741Y003860D01*
X002741Y003702D02*
X004301Y003702D01*
X004320Y003543D02*
X002741Y003543D01*
X002741Y003385D02*
X004406Y003385D01*
X004655Y003226D02*
X002741Y003226D01*
X002741Y003068D02*
X004498Y003068D01*
X004358Y002909D02*
X002741Y002909D01*
X002741Y002751D02*
X004301Y002751D01*
X004301Y002592D02*
X002741Y002592D01*
X002741Y002434D02*
X004365Y002434D01*
X004537Y002275D02*
X002741Y002275D01*
X002741Y002117D02*
X007041Y002117D01*
X006969Y002087D02*
X006834Y001952D01*
X006761Y001775D01*
X006761Y001585D01*
X006834Y001408D01*
X006969Y001273D01*
X007146Y001200D01*
X007977Y001200D01*
X008153Y001273D01*
X008288Y001408D01*
X008361Y001585D01*
X008361Y001775D01*
X008288Y001952D01*
X008153Y002087D01*
X007977Y002160D01*
X007146Y002160D01*
X006969Y002087D01*
X006840Y001958D02*
X002741Y001958D01*
X002741Y001800D02*
X006771Y001800D01*
X006761Y001641D02*
X002741Y001641D01*
X002741Y001483D02*
X006804Y001483D01*
X006918Y001324D02*
X002741Y001324D01*
X002741Y001166D02*
X011418Y001166D01*
X011456Y001150D02*
X011667Y001150D01*
X011861Y001231D01*
X012011Y001380D01*
X012091Y001575D01*
X012091Y001785D01*
X012050Y001886D01*
X012144Y001980D01*
X014112Y001980D01*
X014031Y001785D01*
X014031Y001575D01*
X014112Y001380D01*
X014261Y001231D01*
X014456Y001150D01*
X014667Y001150D01*
X014861Y001231D01*
X015011Y001380D01*
X015091Y001575D01*
X015091Y001785D01*
X015011Y001980D01*
X021644Y001980D01*
X021761Y002097D01*
X023356Y003692D01*
X023456Y003650D01*
X023667Y003650D01*
X023861Y003731D01*
X024011Y003880D01*
X024091Y004075D01*
X024091Y004285D01*
X024011Y004480D01*
X023861Y004629D01*
X023667Y004710D01*
X023456Y004710D01*
X023261Y004629D01*
X023112Y004480D01*
X023061Y004358D01*
X023011Y004480D01*
X022861Y004629D01*
X022667Y004710D01*
X022456Y004710D01*
X022261Y004629D01*
X022112Y004480D01*
X022031Y004285D01*
X022031Y004075D01*
X022112Y003880D01*
X022261Y003731D01*
X022456Y003650D01*
X022667Y003650D01*
X022806Y003708D01*
X021478Y002380D01*
X011978Y002380D01*
X011861Y002263D01*
X011767Y002168D01*
X011667Y002210D01*
X011456Y002210D01*
X011261Y002129D01*
X011112Y001980D01*
X011031Y001785D01*
X011031Y001575D01*
X011112Y001380D01*
X011261Y001231D01*
X011456Y001150D01*
X011704Y001166D02*
X014418Y001166D01*
X014704Y001166D02*
X025251Y001166D01*
X025251Y001324D02*
X014955Y001324D01*
X015053Y001483D02*
X025251Y001483D01*
X025251Y001641D02*
X015091Y001641D01*
X015085Y001800D02*
X025251Y001800D01*
X025251Y001958D02*
X015020Y001958D01*
X014103Y001958D02*
X012122Y001958D01*
X012085Y001800D02*
X014037Y001800D01*
X014031Y001641D02*
X012091Y001641D01*
X012053Y001483D02*
X014069Y001483D01*
X014168Y001324D02*
X011955Y001324D01*
X011168Y001324D02*
X008204Y001324D01*
X008319Y001483D02*
X011069Y001483D01*
X011031Y001641D02*
X008361Y001641D01*
X008351Y001800D02*
X011037Y001800D01*
X011103Y001958D02*
X008282Y001958D01*
X008082Y002117D02*
X011248Y002117D01*
X011873Y002275D02*
X008155Y002275D01*
X008299Y002434D02*
X021532Y002434D01*
X021690Y002592D02*
X013770Y002592D01*
X013929Y002751D02*
X021849Y002751D01*
X022007Y002909D02*
X014087Y002909D01*
X014246Y003068D02*
X022166Y003068D01*
X022324Y003226D02*
X014404Y003226D01*
X014563Y003385D02*
X022483Y003385D01*
X022641Y003543D02*
X014721Y003543D01*
X014880Y003702D02*
X022331Y003702D01*
X022132Y003860D02*
X015038Y003860D01*
X015197Y004019D02*
X022054Y004019D01*
X022031Y004177D02*
X015355Y004177D01*
X015078Y004494D02*
X011058Y004494D01*
X011091Y004653D02*
X015171Y004653D01*
X015189Y004811D02*
X011081Y004811D01*
X011015Y004970D02*
X015279Y004970D01*
X015944Y004970D02*
X017179Y004970D01*
X017089Y004811D02*
X016033Y004811D01*
X016051Y004653D02*
X017071Y004653D01*
X017112Y004494D02*
X016010Y004494D01*
X015889Y004336D02*
X017233Y004336D01*
X017789Y004336D02*
X022052Y004336D01*
X022126Y004494D02*
X021172Y004494D01*
X021331Y004653D02*
X022317Y004653D01*
X022805Y004653D02*
X023317Y004653D01*
X023126Y004494D02*
X022997Y004494D01*
X023061Y004002D02*
X023033Y003935D01*
X023073Y003974D01*
X023061Y004002D01*
X022800Y003702D02*
X022791Y003702D01*
X023049Y003385D02*
X025251Y003385D01*
X025251Y003543D02*
X023207Y003543D01*
X022890Y003226D02*
X025251Y003226D01*
X025251Y003068D02*
X022732Y003068D01*
X022573Y002909D02*
X025251Y002909D01*
X025251Y002751D02*
X022415Y002751D01*
X022256Y002592D02*
X025251Y002592D01*
X025251Y002434D02*
X022098Y002434D01*
X021939Y002275D02*
X025251Y002275D01*
X025251Y002117D02*
X021781Y002117D01*
X021761Y002097D02*
X021761Y002097D01*
X023791Y003702D02*
X025251Y003702D01*
X025251Y003860D02*
X023991Y003860D01*
X024068Y004019D02*
X025251Y004019D01*
X025251Y004177D02*
X024091Y004177D01*
X024071Y004336D02*
X025251Y004336D01*
X025251Y004494D02*
X023997Y004494D01*
X023805Y004653D02*
X025251Y004653D01*
X025251Y004811D02*
X021489Y004811D01*
X021648Y004970D02*
X025251Y004970D01*
X025251Y005128D02*
X021806Y005128D01*
X021965Y005287D02*
X025251Y005287D01*
X025251Y005445D02*
X022123Y005445D01*
X022282Y005604D02*
X025251Y005604D01*
X025251Y005762D02*
X022440Y005762D01*
X022599Y005921D02*
X025251Y005921D01*
X025251Y006079D02*
X022757Y006079D01*
X022413Y006329D02*
X020974Y004890D01*
X017901Y004890D01*
X017884Y004929D01*
X017844Y004970D01*
X021054Y004970D01*
X021212Y005128D02*
X020806Y005128D01*
X020771Y005093D02*
X022262Y006583D01*
X022334Y006408D01*
X022413Y006329D01*
X022346Y006396D02*
X022074Y006396D01*
X021916Y006238D02*
X022322Y006238D01*
X022163Y006079D02*
X021757Y006079D01*
X021599Y005921D02*
X022005Y005921D01*
X021846Y005762D02*
X021440Y005762D01*
X021282Y005604D02*
X021688Y005604D01*
X021529Y005445D02*
X021123Y005445D01*
X020965Y005287D02*
X021371Y005287D01*
X020846Y005762D02*
X006776Y005762D01*
X006618Y005921D02*
X021005Y005921D01*
X021163Y006079D02*
X006459Y006079D01*
X006301Y006238D02*
X021322Y006238D01*
X021480Y006396D02*
X006142Y006396D01*
X005984Y006555D02*
X021639Y006555D01*
X021797Y006713D02*
X005825Y006713D01*
X005703Y006872D02*
X021956Y006872D01*
X022114Y007030D02*
X005797Y007030D01*
X005821Y007189D02*
X010363Y007189D01*
X010145Y007347D02*
X005790Y007347D01*
X005686Y007506D02*
X010060Y007506D01*
X010760Y007189D02*
X022273Y007189D01*
X022274Y006555D02*
X022233Y006555D01*
X023567Y006238D02*
X025251Y006238D01*
X025251Y006396D02*
X023776Y006396D01*
X023849Y006555D02*
X025251Y006555D01*
X025251Y006713D02*
X023861Y006713D01*
X023821Y006872D02*
X025251Y006872D01*
X025251Y007030D02*
X023710Y007030D01*
X022596Y008140D02*
X010837Y008140D01*
X011010Y007981D02*
X014460Y007981D01*
X014364Y007823D02*
X011076Y007823D01*
X011091Y007664D02*
X014341Y007664D01*
X014377Y007506D02*
X011063Y007506D01*
X010978Y007347D02*
X014492Y007347D01*
X014398Y008457D02*
X005735Y008457D01*
X005513Y008615D02*
X014341Y008615D01*
X014344Y008774D02*
X010904Y008774D01*
X010861Y008731D02*
X011011Y008880D01*
X011091Y009075D01*
X011091Y009285D01*
X011011Y009480D01*
X010861Y009629D01*
X010667Y009710D01*
X010456Y009710D01*
X010261Y009629D01*
X010112Y009480D01*
X010075Y009390D01*
X005772Y009390D01*
X005751Y009441D01*
X005622Y009570D01*
X005453Y009640D01*
X004670Y009640D01*
X004501Y009570D01*
X004371Y009441D01*
X004301Y009271D01*
X004301Y009088D01*
X004371Y008919D01*
X004501Y008790D01*
X004670Y008720D01*
X005453Y008720D01*
X005622Y008790D01*
X005751Y008919D01*
X005772Y008970D01*
X010075Y008970D01*
X010112Y008880D01*
X010261Y008731D01*
X010456Y008650D01*
X010667Y008650D01*
X010861Y008731D01*
X011032Y008932D02*
X014411Y008932D01*
X014354Y009091D02*
X011091Y009091D01*
X011091Y009249D02*
X014195Y009249D01*
X014037Y009408D02*
X011041Y009408D01*
X010925Y009566D02*
X013878Y009566D01*
X013720Y009725D02*
X008482Y009725D01*
X008453Y009695D02*
X008546Y009789D01*
X008546Y010571D01*
X008453Y010665D01*
X007670Y010665D01*
X007576Y010571D01*
X007576Y009789D01*
X007670Y009695D01*
X008453Y009695D01*
X008546Y009883D02*
X013561Y009883D01*
X013403Y010042D02*
X008546Y010042D01*
X008546Y010200D02*
X013244Y010200D01*
X013086Y010359D02*
X008546Y010359D01*
X008546Y010517D02*
X012927Y010517D01*
X012769Y010676D02*
X003771Y010676D01*
X003771Y010834D02*
X012610Y010834D01*
X012452Y010993D02*
X003771Y010993D01*
X003771Y011151D02*
X003953Y011151D01*
X004169Y011151D02*
X012293Y011151D01*
X012135Y011310D02*
X004440Y011310D01*
X004547Y011468D02*
X011976Y011468D01*
X012253Y011785D02*
X014349Y011785D01*
X014341Y011627D02*
X012412Y011627D01*
X012570Y011468D02*
X014393Y011468D01*
X014529Y011310D02*
X012729Y011310D01*
X012887Y011151D02*
X015235Y011151D01*
X014472Y010993D02*
X013046Y010993D01*
X013204Y010834D02*
X014369Y010834D01*
X014341Y010676D02*
X013363Y010676D01*
X013521Y010517D02*
X014373Y010517D01*
X014480Y010359D02*
X013680Y010359D01*
X013838Y010200D02*
X018244Y010200D01*
X018429Y013240D02*
X017694Y013240D01*
X017532Y013307D01*
X017408Y013431D01*
X017341Y013592D01*
X017341Y013768D01*
X017408Y013929D01*
X017532Y014053D01*
X017694Y014120D01*
X018429Y014120D01*
X018590Y014053D01*
X018714Y013929D01*
X018781Y013768D01*
X018781Y013592D01*
X018714Y013431D01*
X018590Y013307D01*
X018429Y013240D01*
X018654Y013370D02*
X022372Y013370D01*
X022334Y013408D02*
X022469Y013273D01*
X022646Y013200D01*
X023477Y013200D01*
X023653Y013273D01*
X023788Y013408D01*
X023851Y013560D01*
X023851Y012800D01*
X023788Y012952D01*
X023653Y013087D01*
X023477Y013160D01*
X022646Y013160D01*
X022469Y013087D01*
X022618Y013212D02*
X010815Y013212D01*
X010861Y013231D02*
X011011Y013380D01*
X011048Y013470D01*
X014392Y013470D01*
X014408Y013431D01*
X014532Y013307D01*
X014694Y013240D01*
X015429Y013240D01*
X015590Y013307D01*
X015714Y013431D01*
X015781Y013592D01*
X015781Y013768D01*
X015714Y013929D01*
X015661Y013983D01*
X016148Y014470D01*
X017392Y014470D01*
X017408Y014431D01*
X017532Y014307D01*
X017694Y014240D01*
X018429Y014240D01*
X018590Y014307D01*
X018714Y014431D01*
X018781Y014592D01*
X018781Y014768D01*
X018714Y014929D01*
X018674Y014970D01*
X020648Y014970D01*
X022262Y016583D01*
X022334Y016408D01*
X022469Y016273D01*
X022646Y016200D01*
X023477Y016200D01*
X023653Y016273D01*
X023788Y016408D01*
X023814Y016470D01*
X023851Y016470D01*
X023851Y015800D01*
X023788Y015952D01*
X023653Y016087D01*
X023477Y016160D01*
X022646Y016160D01*
X022469Y016087D01*
X022334Y015952D01*
X022261Y015775D01*
X022261Y015585D01*
X022334Y015408D01*
X022469Y015273D01*
X022646Y015200D01*
X023477Y015200D01*
X023653Y015273D01*
X023788Y015408D01*
X023851Y015560D01*
X023851Y014800D01*
X023788Y014952D01*
X023653Y015087D01*
X023477Y015160D01*
X022646Y015160D01*
X022469Y015087D01*
X022334Y014952D01*
X022261Y014775D01*
X022261Y014585D01*
X022334Y014408D01*
X022469Y014273D01*
X022646Y014200D01*
X023477Y014200D01*
X023653Y014273D01*
X023788Y014408D01*
X023851Y014560D01*
X023851Y013800D01*
X023788Y013952D01*
X023653Y014087D01*
X023477Y014160D01*
X022646Y014160D01*
X022469Y014087D01*
X022334Y013952D01*
X022261Y013775D01*
X022261Y013585D01*
X022334Y013408D01*
X022284Y013529D02*
X018755Y013529D01*
X018781Y013687D02*
X022261Y013687D01*
X022290Y013846D02*
X018749Y013846D01*
X018639Y014004D02*
X022386Y014004D01*
X022421Y014321D02*
X018605Y014321D01*
X018734Y014480D02*
X022305Y014480D01*
X022261Y014638D02*
X018781Y014638D01*
X018769Y014797D02*
X022270Y014797D01*
X022337Y014955D02*
X018688Y014955D01*
X018674Y015390D02*
X018714Y015431D01*
X018781Y015592D01*
X018781Y015768D01*
X018714Y015929D01*
X018590Y016053D01*
X018429Y016120D01*
X017918Y016120D01*
X017798Y016240D01*
X018429Y016240D01*
X018590Y016307D01*
X018714Y016431D01*
X018781Y016592D01*
X018781Y016768D01*
X018714Y016929D01*
X018590Y017053D01*
X018429Y017120D01*
X017694Y017120D01*
X017532Y017053D01*
X017408Y016929D01*
X017341Y016768D01*
X017341Y016592D01*
X017408Y016431D01*
X017449Y016390D01*
X015674Y016390D01*
X015714Y016431D01*
X015781Y016592D01*
X015781Y016768D01*
X015714Y016929D01*
X015661Y016983D01*
X016648Y017970D01*
X017449Y017970D01*
X017408Y017929D01*
X017341Y017768D01*
X017341Y017592D01*
X017408Y017431D01*
X017532Y017307D01*
X017694Y017240D01*
X018429Y017240D01*
X018590Y017307D01*
X018714Y017431D01*
X018781Y017592D01*
X018781Y017768D01*
X018714Y017929D01*
X018674Y017970D01*
X022352Y017970D01*
X022334Y017952D01*
X022261Y017775D01*
X022261Y017585D01*
X022334Y017408D01*
X022413Y017329D01*
X020474Y015390D01*
X018674Y015390D01*
X018714Y015431D02*
X020515Y015431D01*
X020673Y015589D02*
X018780Y015589D01*
X018781Y015748D02*
X020832Y015748D01*
X020990Y015906D02*
X018724Y015906D01*
X018563Y016065D02*
X021149Y016065D01*
X021307Y016223D02*
X017815Y016223D01*
X017449Y015970D02*
X017408Y015929D01*
X017341Y015768D01*
X017341Y015592D01*
X017408Y015431D01*
X017449Y015390D01*
X015674Y015390D01*
X015714Y015431D01*
X015781Y015592D01*
X015781Y015768D01*
X015714Y015929D01*
X015674Y015970D01*
X017449Y015970D01*
X017399Y015906D02*
X015724Y015906D01*
X015781Y015748D02*
X017341Y015748D01*
X017343Y015589D02*
X015780Y015589D01*
X015714Y015431D02*
X017408Y015431D01*
X017449Y014970D02*
X017408Y014929D01*
X017392Y014890D01*
X015974Y014890D01*
X015851Y014767D01*
X015781Y014697D01*
X015781Y014768D01*
X015714Y014929D01*
X015674Y014970D01*
X017449Y014970D01*
X017434Y014955D02*
X015688Y014955D01*
X015769Y014797D02*
X015881Y014797D01*
X015999Y014321D02*
X017518Y014321D01*
X017483Y014004D02*
X015682Y014004D01*
X015749Y013846D02*
X017374Y013846D01*
X017341Y013687D02*
X015781Y013687D01*
X015755Y013529D02*
X017368Y013529D01*
X017469Y013370D02*
X015654Y013370D01*
X015590Y013053D02*
X015429Y013120D01*
X014694Y013120D01*
X014532Y013053D01*
X014408Y012929D01*
X014392Y012890D01*
X010974Y012890D01*
X010757Y012673D01*
X010667Y012710D01*
X010456Y012710D01*
X010261Y012629D01*
X010112Y012480D01*
X010031Y012285D01*
X010031Y012075D01*
X010108Y011890D01*
X005148Y011890D01*
X004554Y012484D01*
X004591Y012575D01*
X004591Y012785D01*
X004515Y012970D01*
X004648Y012970D01*
X004771Y013093D01*
X007648Y015970D01*
X014449Y015970D01*
X014408Y015929D01*
X014341Y015768D01*
X014341Y015592D01*
X014408Y015431D01*
X014532Y015307D01*
X014694Y015240D01*
X015204Y015240D01*
X015324Y015120D01*
X014694Y015120D01*
X014532Y015053D01*
X014408Y014929D01*
X014392Y014890D01*
X008546Y014890D01*
X008546Y015071D01*
X008453Y015165D01*
X007670Y015165D01*
X007576Y015071D01*
X007576Y014462D01*
X007519Y014519D01*
X007546Y014584D01*
X007546Y014776D01*
X007472Y014955D01*
X007576Y014955D01*
X007472Y014955D02*
X007336Y015091D01*
X007158Y015165D01*
X006965Y015165D01*
X006787Y015091D01*
X006650Y014955D01*
X006576Y014776D01*
X006576Y014584D01*
X006650Y014405D01*
X006787Y014269D01*
X006965Y014195D01*
X007158Y014195D01*
X007222Y014222D01*
X007851Y013593D01*
X007974Y013470D01*
X010075Y013470D01*
X010112Y013380D01*
X010261Y013231D01*
X010456Y013150D01*
X010667Y013150D01*
X010861Y013231D01*
X011001Y013370D02*
X014469Y013370D01*
X014532Y013053D02*
X004731Y013053D01*
X004890Y013212D02*
X010307Y013212D01*
X010122Y013370D02*
X005048Y013370D01*
X005207Y013529D02*
X007916Y013529D01*
X007757Y013687D02*
X005365Y013687D01*
X005524Y013846D02*
X007599Y013846D01*
X007440Y014004D02*
X005682Y014004D01*
X005841Y014163D02*
X007282Y014163D01*
X007559Y014480D02*
X007576Y014480D01*
X007576Y014638D02*
X007546Y014638D01*
X007538Y014797D02*
X007576Y014797D01*
X007619Y015114D02*
X007282Y015114D01*
X007109Y015431D02*
X014408Y015431D01*
X014343Y015589D02*
X007267Y015589D01*
X007426Y015748D02*
X014341Y015748D01*
X014399Y015906D02*
X007584Y015906D01*
X007307Y016223D02*
X005771Y016223D01*
X005771Y016065D02*
X007149Y016065D01*
X006990Y015906D02*
X005771Y015906D01*
X005771Y015748D02*
X006832Y015748D01*
X006673Y015589D02*
X005771Y015589D01*
X005771Y015431D02*
X006515Y015431D01*
X006356Y015272D02*
X005771Y015272D01*
X005771Y015114D02*
X006198Y015114D01*
X006039Y014955D02*
X005771Y014955D01*
X005771Y014797D02*
X005881Y014797D01*
X006158Y014480D02*
X006619Y014480D01*
X006576Y014638D02*
X006316Y014638D01*
X006475Y014797D02*
X006585Y014797D01*
X006633Y014955D02*
X006650Y014955D01*
X006792Y015114D02*
X006841Y015114D01*
X006950Y015272D02*
X014616Y015272D01*
X014678Y015114D02*
X008504Y015114D01*
X008546Y014955D02*
X014434Y014955D01*
X014392Y014470D02*
X014408Y014431D01*
X014532Y014307D01*
X014694Y014240D01*
X015324Y014240D01*
X015204Y014120D01*
X014694Y014120D01*
X014532Y014053D01*
X014408Y013929D01*
X014392Y013890D01*
X011048Y013890D01*
X011011Y013980D01*
X010861Y014129D01*
X010667Y014210D01*
X010456Y014210D01*
X010261Y014129D01*
X010112Y013980D01*
X010075Y013890D01*
X008148Y013890D01*
X007843Y014195D01*
X008453Y014195D01*
X008546Y014289D01*
X008546Y014470D01*
X014392Y014470D01*
X014518Y014321D02*
X008546Y014321D01*
X008034Y014004D02*
X010136Y014004D01*
X010341Y014163D02*
X007876Y014163D01*
X006734Y014321D02*
X005999Y014321D01*
X005554Y014470D02*
X004543Y013459D01*
X004591Y013575D01*
X004591Y013785D01*
X004554Y013876D01*
X005148Y014470D01*
X005554Y014470D01*
X005405Y014321D02*
X004999Y014321D01*
X004841Y014163D02*
X005247Y014163D01*
X005088Y014004D02*
X004682Y014004D01*
X004566Y013846D02*
X004930Y013846D01*
X004771Y013687D02*
X004591Y013687D01*
X004572Y013529D02*
X004613Y013529D01*
X004546Y012895D02*
X014394Y012895D01*
X014420Y012419D02*
X011097Y012419D01*
X011091Y012261D02*
X014644Y012261D01*
X014650Y012102D02*
X011091Y012102D01*
X011037Y011944D02*
X014423Y011944D01*
X014521Y010042D02*
X013997Y010042D01*
X014155Y009883D02*
X014389Y009883D01*
X014341Y009725D02*
X014314Y009725D01*
X010820Y012736D02*
X004591Y012736D01*
X004591Y012578D02*
X010209Y012578D01*
X010087Y012419D02*
X004619Y012419D01*
X004778Y012261D02*
X010031Y012261D01*
X010031Y012102D02*
X004936Y012102D01*
X005095Y011944D02*
X010086Y011944D01*
X010987Y014004D02*
X014483Y014004D01*
X015247Y014163D02*
X010781Y014163D01*
X011077Y016540D02*
X014363Y016540D01*
X014341Y016699D02*
X011091Y016699D01*
X011062Y016857D02*
X014378Y016857D01*
X014495Y017016D02*
X010975Y017016D01*
X010753Y017174D02*
X015258Y017174D01*
X015694Y017016D02*
X017495Y017016D01*
X017378Y016857D02*
X015744Y016857D01*
X015781Y016699D02*
X017341Y016699D01*
X017363Y016540D02*
X015760Y016540D01*
X015852Y017174D02*
X022258Y017174D01*
X022410Y017333D02*
X018616Y017333D01*
X018739Y017491D02*
X022300Y017491D01*
X022261Y017650D02*
X018781Y017650D01*
X018764Y017808D02*
X022275Y017808D01*
X022349Y017967D02*
X018677Y017967D01*
X018674Y018390D02*
X018714Y018431D01*
X018781Y018592D01*
X018781Y018768D01*
X018714Y018929D01*
X018674Y018970D01*
X022352Y018970D01*
X022334Y018952D01*
X022261Y018775D01*
X022261Y018585D01*
X022334Y018408D01*
X022352Y018390D01*
X018674Y018390D01*
X018719Y018442D02*
X022320Y018442D01*
X022261Y018601D02*
X018781Y018601D01*
X018781Y018759D02*
X022261Y018759D01*
X022320Y018918D02*
X018719Y018918D01*
X018677Y019393D02*
X022349Y019393D01*
X022275Y019552D02*
X018764Y019552D01*
X018781Y019710D02*
X022261Y019710D01*
X022300Y019869D02*
X018739Y019869D01*
X018616Y020027D02*
X022409Y020027D01*
X022398Y020344D02*
X018628Y020344D01*
X018590Y020307D02*
X018714Y020431D01*
X018781Y020592D01*
X018781Y020768D01*
X018714Y020929D01*
X018590Y021053D01*
X018429Y021120D01*
X017694Y021120D01*
X017532Y021053D01*
X017408Y020929D01*
X017341Y020768D01*
X017341Y020592D01*
X017408Y020431D01*
X017532Y020307D01*
X017694Y020240D01*
X018429Y020240D01*
X018590Y020307D01*
X018744Y020503D02*
X022295Y020503D01*
X022261Y020661D02*
X018781Y020661D01*
X018760Y020820D02*
X022280Y020820D01*
X022360Y020978D02*
X018665Y020978D01*
X017457Y020978D02*
X015665Y020978D01*
X015714Y020929D02*
X015590Y021053D01*
X015429Y021120D01*
X014694Y021120D01*
X014532Y021053D01*
X014408Y020929D01*
X014341Y020768D01*
X014341Y020592D01*
X014408Y020431D01*
X014532Y020307D01*
X014694Y020240D01*
X015429Y020240D01*
X015590Y020307D01*
X015714Y020431D01*
X015781Y020592D01*
X015781Y020768D01*
X015714Y020929D01*
X015760Y020820D02*
X017363Y020820D01*
X017341Y020661D02*
X015781Y020661D01*
X015744Y020503D02*
X017379Y020503D01*
X017495Y020344D02*
X015628Y020344D01*
X015590Y020053D02*
X015429Y020120D01*
X014694Y020120D01*
X014532Y020053D01*
X014408Y019929D01*
X014341Y019768D01*
X014341Y019592D01*
X014408Y019431D01*
X014532Y019307D01*
X014694Y019240D01*
X015429Y019240D01*
X015590Y019307D01*
X015714Y019431D01*
X015781Y019592D01*
X015781Y019768D01*
X015714Y019929D01*
X015590Y020053D01*
X015616Y020027D02*
X017506Y020027D01*
X017383Y019869D02*
X015739Y019869D01*
X015781Y019710D02*
X017341Y019710D01*
X017358Y019552D02*
X015764Y019552D01*
X015677Y019393D02*
X017446Y019393D01*
X017449Y018970D02*
X017408Y018929D01*
X017341Y018768D01*
X017341Y018592D01*
X017408Y018431D01*
X017449Y018390D01*
X016474Y018390D01*
X016351Y018267D01*
X015781Y017697D01*
X015781Y017768D01*
X015714Y017929D01*
X015661Y017983D01*
X016648Y018970D01*
X017449Y018970D01*
X017403Y018918D02*
X016596Y018918D01*
X016437Y018759D02*
X017341Y018759D01*
X017341Y018601D02*
X016279Y018601D01*
X016120Y018442D02*
X017404Y018442D01*
X017446Y017967D02*
X016645Y017967D01*
X016486Y017808D02*
X017358Y017808D01*
X017341Y017650D02*
X016328Y017650D01*
X016169Y017491D02*
X017383Y017491D01*
X017506Y017333D02*
X016011Y017333D01*
X015892Y017808D02*
X015764Y017808D01*
X015677Y017967D02*
X016051Y017967D01*
X016209Y018125D02*
X015803Y018125D01*
X015962Y018284D02*
X016368Y018284D01*
X015843Y018759D02*
X015781Y018759D01*
X015719Y018918D02*
X016002Y018918D01*
X016160Y019076D02*
X015535Y019076D01*
X016319Y019235D02*
X006331Y019235D01*
X006331Y019270D02*
X006257Y019450D01*
X006119Y019588D01*
X005939Y019662D01*
X005744Y019662D01*
X005564Y019588D01*
X005451Y019475D01*
X005339Y019588D01*
X005159Y019662D01*
X004964Y019662D01*
X004784Y019588D01*
X004646Y019450D01*
X004571Y019270D01*
X004571Y019075D01*
X004646Y018895D01*
X004784Y018757D01*
X004964Y018682D01*
X005159Y018682D01*
X005339Y018757D01*
X005451Y018869D01*
X005564Y018757D01*
X005744Y018682D01*
X005939Y018682D01*
X006119Y018757D01*
X006257Y018895D01*
X006331Y019075D01*
X006331Y019270D01*
X006280Y019393D02*
X014446Y019393D01*
X014358Y019552D02*
X006155Y019552D01*
X006331Y019076D02*
X010208Y019076D01*
X010261Y019129D02*
X010112Y018980D01*
X010031Y018785D01*
X010031Y018575D01*
X010112Y018380D01*
X010261Y018231D01*
X010456Y018150D01*
X010667Y018150D01*
X010861Y018231D01*
X011011Y018380D01*
X011091Y018575D01*
X011091Y018785D01*
X011011Y018980D01*
X010861Y019129D01*
X010667Y019210D01*
X010456Y019210D01*
X010261Y019129D01*
X010086Y018918D02*
X006266Y018918D01*
X006121Y018759D02*
X010031Y018759D01*
X010031Y018601D02*
X006122Y018601D01*
X006266Y018442D02*
X010086Y018442D01*
X010208Y018284D02*
X006331Y018284D01*
X006331Y018125D02*
X015209Y018125D01*
X014589Y018284D02*
X010914Y018284D01*
X011036Y018442D02*
X014404Y018442D01*
X014341Y018601D02*
X011091Y018601D01*
X011091Y018759D02*
X014341Y018759D01*
X014403Y018918D02*
X011037Y018918D01*
X010915Y019076D02*
X014588Y019076D01*
X014341Y019710D02*
X002741Y019710D01*
X002741Y019552D02*
X004748Y019552D01*
X004622Y019393D02*
X002741Y019393D01*
X002741Y019235D02*
X004571Y019235D01*
X004571Y019076D02*
X002741Y019076D01*
X002741Y018918D02*
X004636Y018918D01*
X004781Y018759D02*
X002741Y018759D01*
X002741Y018601D02*
X004781Y018601D01*
X004636Y018442D02*
X002741Y018442D01*
X002741Y018284D02*
X004571Y018284D01*
X004571Y018125D02*
X002741Y018125D01*
X002741Y017967D02*
X004623Y017967D01*
X004748Y017808D02*
X002741Y017808D01*
X002741Y017650D02*
X005351Y017650D01*
X005351Y017491D02*
X002741Y017491D01*
X002741Y017333D02*
X005351Y017333D01*
X005351Y017174D02*
X002741Y017174D01*
X002741Y017016D02*
X003578Y017016D01*
X003532Y016997D02*
X003305Y016769D01*
X003181Y016471D01*
X003181Y016149D01*
X003305Y015851D01*
X003532Y015623D01*
X003830Y015500D01*
X004152Y015500D01*
X004450Y015623D01*
X004678Y015851D01*
X004801Y016149D01*
X004801Y016471D01*
X004678Y016769D01*
X004450Y016997D01*
X004152Y017120D01*
X003830Y017120D01*
X003532Y016997D01*
X003393Y016857D02*
X002741Y016857D01*
X002741Y016699D02*
X003275Y016699D01*
X003210Y016540D02*
X002741Y016540D01*
X002741Y016382D02*
X003181Y016382D01*
X003181Y016223D02*
X002741Y016223D01*
X002741Y016065D02*
X003216Y016065D01*
X003282Y015906D02*
X002741Y015906D01*
X002741Y015748D02*
X003408Y015748D01*
X003615Y015589D02*
X002741Y015589D01*
X002741Y015431D02*
X005351Y015431D01*
X005351Y015589D02*
X004367Y015589D01*
X004574Y015748D02*
X005351Y015748D01*
X005351Y015906D02*
X004701Y015906D01*
X004766Y016065D02*
X005351Y016065D01*
X005351Y016223D02*
X004801Y016223D01*
X004801Y016382D02*
X005351Y016382D01*
X005351Y016540D02*
X004773Y016540D01*
X004707Y016699D02*
X005351Y016699D01*
X005351Y016857D02*
X004590Y016857D01*
X004405Y017016D02*
X005351Y017016D01*
X005771Y017016D02*
X010147Y017016D01*
X010061Y016857D02*
X005771Y016857D01*
X005771Y016699D02*
X010031Y016699D01*
X010046Y016540D02*
X005771Y016540D01*
X005771Y016382D02*
X007466Y016382D01*
X006154Y017808D02*
X014358Y017808D01*
X014341Y017650D02*
X005771Y017650D01*
X005771Y017491D02*
X014383Y017491D01*
X014506Y017333D02*
X005771Y017333D01*
X005771Y017174D02*
X010369Y017174D01*
X008848Y020344D02*
X014495Y020344D01*
X014379Y020503D02*
X009001Y020503D01*
X009001Y020661D02*
X014341Y020661D01*
X014363Y020820D02*
X009001Y020820D01*
X009156Y020978D02*
X014457Y020978D01*
X014506Y020027D02*
X002741Y020027D01*
X002741Y019869D02*
X014383Y019869D01*
X014446Y017967D02*
X006280Y017967D01*
X005561Y018601D02*
X005342Y018601D01*
X005341Y018759D02*
X005561Y018759D01*
X005528Y019552D02*
X005375Y019552D01*
X004589Y020503D02*
X007121Y020503D01*
X007121Y020498D02*
X007379Y020240D01*
X007744Y020240D01*
X008001Y020498D01*
X008001Y020862D01*
X007744Y021120D01*
X007379Y021120D01*
X007121Y020862D01*
X007121Y020498D01*
X007121Y020661D02*
X004707Y020661D01*
X004773Y020820D02*
X007121Y020820D01*
X007237Y020978D02*
X004801Y020978D01*
X004801Y021137D02*
X008721Y021137D01*
X008879Y021295D02*
X004766Y021295D01*
X004701Y021454D02*
X009038Y021454D01*
X009196Y021612D02*
X004575Y021612D01*
X004368Y021771D02*
X009355Y021771D01*
X009632Y021454D02*
X010081Y021454D01*
X010197Y021295D02*
X009473Y021295D01*
X009315Y021137D02*
X022589Y021137D01*
X022447Y021295D02*
X010926Y021295D01*
X011041Y021454D02*
X022316Y021454D01*
X022261Y021612D02*
X011091Y021612D01*
X011091Y021771D02*
X022261Y021771D01*
X022325Y021929D02*
X011032Y021929D01*
X010903Y022088D02*
X022471Y022088D01*
X023774Y017967D02*
X024351Y017967D01*
X024351Y017808D02*
X023848Y017808D01*
X023861Y017650D02*
X024351Y017650D01*
X024351Y017491D02*
X023823Y017491D01*
X023713Y017333D02*
X024351Y017333D01*
X024351Y017174D02*
X022852Y017174D01*
X022100Y017016D02*
X018628Y017016D01*
X018744Y016857D02*
X021941Y016857D01*
X021783Y016699D02*
X018781Y016699D01*
X018760Y016540D02*
X021624Y016540D01*
X021466Y016382D02*
X018665Y016382D01*
X020792Y015114D02*
X022534Y015114D01*
X022472Y015272D02*
X020950Y015272D01*
X021109Y015431D02*
X022325Y015431D01*
X022261Y015589D02*
X021267Y015589D01*
X021426Y015748D02*
X022261Y015748D01*
X022315Y015906D02*
X021584Y015906D01*
X021743Y016065D02*
X022447Y016065D01*
X022590Y016223D02*
X021901Y016223D01*
X022060Y016382D02*
X022361Y016382D01*
X022280Y016540D02*
X022218Y016540D01*
X023532Y016223D02*
X023851Y016223D01*
X023851Y016065D02*
X023676Y016065D01*
X023807Y015906D02*
X023851Y015906D01*
X024271Y015906D02*
X024351Y015906D01*
X024351Y015748D02*
X024271Y015748D01*
X024271Y015589D02*
X024351Y015589D01*
X024351Y015431D02*
X024271Y015431D01*
X024271Y015272D02*
X024351Y015272D01*
X024351Y015114D02*
X024271Y015114D01*
X024271Y014955D02*
X024351Y014955D01*
X024351Y014797D02*
X024271Y014797D01*
X024271Y014638D02*
X024351Y014638D01*
X024351Y014480D02*
X024271Y014480D01*
X024271Y014321D02*
X024351Y014321D01*
X024351Y014163D02*
X024271Y014163D01*
X024271Y014004D02*
X024351Y014004D01*
X024351Y013846D02*
X024271Y013846D01*
X024271Y013687D02*
X024351Y013687D01*
X024351Y013529D02*
X024271Y013529D01*
X024271Y013370D02*
X024351Y013370D01*
X024351Y013212D02*
X024271Y013212D01*
X024271Y013053D02*
X024351Y013053D01*
X024351Y012895D02*
X024271Y012895D01*
X024271Y012736D02*
X024351Y012736D01*
X024351Y012578D02*
X024271Y012578D01*
X024271Y012419D02*
X024351Y012419D01*
X024351Y012261D02*
X024271Y012261D01*
X024271Y012102D02*
X024351Y012102D01*
X024351Y011944D02*
X024271Y011944D01*
X024271Y011785D02*
X024351Y011785D01*
X024351Y011627D02*
X024271Y011627D01*
X024351Y011468D02*
X024146Y011468D01*
X023988Y011310D02*
X024351Y011310D01*
X024351Y011151D02*
X023829Y011151D01*
X023748Y010993D02*
X024351Y010993D01*
X024351Y010834D02*
X023837Y010834D01*
X023861Y010676D02*
X024351Y010676D01*
X024351Y010517D02*
X023833Y010517D01*
X023739Y010359D02*
X024351Y010359D01*
X024351Y010267D02*
X023861Y009777D01*
X023788Y009952D01*
X023653Y010087D01*
X023477Y010160D01*
X023699Y010042D02*
X024126Y010042D01*
X023967Y009883D02*
X023817Y009883D01*
X023792Y011944D02*
X023851Y011944D01*
X023851Y012102D02*
X023617Y012102D01*
X023623Y012261D02*
X023851Y012261D01*
X023851Y012419D02*
X023793Y012419D01*
X023812Y012895D02*
X023851Y012895D01*
X023851Y013053D02*
X023687Y013053D01*
X023851Y013212D02*
X023505Y013212D01*
X023750Y013370D02*
X023851Y013370D01*
X023838Y013529D02*
X023851Y013529D01*
X023832Y013846D02*
X023851Y013846D01*
X023851Y014004D02*
X023736Y014004D01*
X023851Y014163D02*
X015841Y014163D01*
X010198Y009566D02*
X005626Y009566D01*
X005765Y009408D02*
X010082Y009408D01*
X010090Y008932D02*
X005756Y008932D01*
X005582Y008774D02*
X010218Y008774D01*
X007640Y009725D02*
X007229Y009725D01*
X007158Y009695D02*
X007336Y009769D01*
X007472Y009905D01*
X007546Y010084D01*
X007546Y010276D01*
X007472Y010455D01*
X007336Y010591D01*
X007158Y010665D01*
X006965Y010665D01*
X006787Y010591D01*
X006650Y010455D01*
X006576Y010276D01*
X006576Y010084D01*
X006650Y009905D01*
X006787Y009769D01*
X006965Y009695D01*
X007158Y009695D01*
X006893Y009725D02*
X003771Y009725D01*
X003771Y009883D02*
X006672Y009883D01*
X006594Y010042D02*
X003771Y010042D01*
X003771Y010200D02*
X006576Y010200D01*
X006610Y010359D02*
X003771Y010359D01*
X003771Y010517D02*
X006712Y010517D01*
X007410Y010517D02*
X007576Y010517D01*
X007576Y010359D02*
X007512Y010359D01*
X007546Y010200D02*
X007576Y010200D01*
X007576Y010042D02*
X007529Y010042D01*
X007576Y009883D02*
X007450Y009883D01*
X004818Y011627D02*
X004591Y011627D01*
X004282Y012162D02*
X004261Y012183D01*
X004261Y012171D01*
X004282Y012162D01*
X003351Y012102D02*
X002741Y012102D01*
X002741Y011944D02*
X003351Y011944D01*
X003351Y011785D02*
X002741Y011785D01*
X002741Y011627D02*
X003351Y011627D01*
X003351Y011468D02*
X002741Y011468D01*
X002741Y011310D02*
X003351Y011310D01*
X003351Y011151D02*
X002741Y011151D01*
X002741Y010993D02*
X003351Y010993D01*
X003351Y010834D02*
X002741Y010834D01*
X002741Y010676D02*
X003351Y010676D01*
X003351Y010517D02*
X002741Y010517D01*
X002741Y010359D02*
X003351Y010359D01*
X003351Y010200D02*
X002741Y010200D01*
X002741Y010042D02*
X003351Y010042D01*
X003351Y009883D02*
X002741Y009883D01*
X002741Y009725D02*
X003351Y009725D01*
X003351Y009566D02*
X002741Y009566D01*
X002741Y009408D02*
X003351Y009408D01*
X003351Y009249D02*
X002741Y009249D01*
X002741Y009091D02*
X003351Y009091D01*
X003351Y008932D02*
X002741Y008932D01*
X002741Y008774D02*
X003351Y008774D01*
X003351Y008615D02*
X002741Y008615D01*
X002741Y008457D02*
X003351Y008457D01*
X003351Y008298D02*
X002741Y008298D01*
X002741Y008140D02*
X003351Y008140D01*
X003463Y007981D02*
X002741Y007981D01*
X002741Y007823D02*
X004468Y007823D01*
X004387Y008457D02*
X003771Y008457D01*
X003771Y008615D02*
X004609Y008615D01*
X004541Y008774D02*
X003771Y008774D01*
X003771Y008932D02*
X004366Y008932D01*
X004301Y009091D02*
X003771Y009091D01*
X003771Y009249D02*
X004301Y009249D01*
X004358Y009408D02*
X003771Y009408D01*
X003771Y009566D02*
X004497Y009566D01*
X003351Y012261D02*
X002741Y012261D01*
X002741Y012419D02*
X003351Y012419D01*
X003351Y012578D02*
X002741Y012578D01*
X002741Y012736D02*
X003351Y012736D01*
X003351Y012895D02*
X002741Y012895D01*
X002741Y013053D02*
X003351Y013053D01*
X003351Y013212D02*
X002741Y013212D01*
X002741Y013370D02*
X003454Y013370D01*
X003550Y013529D02*
X002741Y013529D01*
X002741Y013687D02*
X003531Y013687D01*
X003556Y013846D02*
X002741Y013846D01*
X002741Y014004D02*
X003636Y014004D01*
X003841Y014163D02*
X002741Y014163D01*
X002741Y014321D02*
X004405Y014321D01*
X004564Y014480D02*
X002741Y014480D01*
X002741Y014638D02*
X004722Y014638D01*
X004881Y014797D02*
X002741Y014797D01*
X002741Y014955D02*
X005351Y014955D01*
X005351Y015114D02*
X002741Y015114D01*
X002741Y015272D02*
X005351Y015272D01*
X004404Y020344D02*
X007275Y020344D01*
X007848Y020344D02*
X008275Y020344D01*
X008121Y020503D02*
X008001Y020503D01*
X008001Y020661D02*
X008121Y020661D01*
X008121Y020820D02*
X008001Y020820D01*
X007885Y020978D02*
X008237Y020978D01*
X023725Y017016D02*
X024351Y017016D01*
X024351Y016857D02*
X024181Y016857D01*
X024271Y016699D02*
X024351Y016699D01*
X024351Y016540D02*
X024271Y016540D01*
X024271Y016382D02*
X024351Y016382D01*
X024351Y016223D02*
X024271Y016223D01*
X024271Y016065D02*
X024351Y016065D01*
X023851Y016382D02*
X023762Y016382D01*
X023797Y015431D02*
X023851Y015431D01*
X023851Y015272D02*
X023651Y015272D01*
X023589Y015114D02*
X023851Y015114D01*
X023851Y014955D02*
X023785Y014955D01*
X023818Y014480D02*
X023851Y014480D01*
X023851Y014321D02*
X023701Y014321D01*
X020688Y005604D02*
X006935Y005604D01*
X007093Y005445D02*
X020529Y005445D01*
X020771Y005093D02*
X020648Y004970D01*
X017844Y004970D01*
X014920Y004336D02*
X010966Y004336D01*
X010732Y004177D02*
X014761Y004177D01*
X014603Y004019D02*
X008222Y004019D01*
X008326Y003860D02*
X014444Y003860D01*
X014286Y003702D02*
X008361Y003702D01*
X008344Y003543D02*
X014127Y003543D01*
X013969Y003385D02*
X008265Y003385D01*
X008040Y003226D02*
X013810Y003226D01*
X013652Y003068D02*
X008173Y003068D01*
X008306Y002909D02*
X013493Y002909D01*
X010391Y004177D02*
X007771Y004177D01*
X007771Y004336D02*
X010156Y004336D01*
X010075Y004890D02*
X010108Y004970D01*
X007568Y004970D01*
X007648Y004890D01*
X010075Y004890D01*
X010108Y004970D02*
X007569Y004970D01*
X006901Y004019D02*
X005673Y004019D01*
X005785Y003860D02*
X005944Y003860D01*
X006063Y003385D02*
X006858Y003385D01*
X007083Y003226D02*
X005904Y003226D01*
X005746Y003068D02*
X006950Y003068D01*
X006817Y002909D02*
X005764Y002909D01*
X005821Y002751D02*
X006761Y002751D01*
X006761Y002592D02*
X005821Y002592D01*
X005757Y002434D02*
X006824Y002434D01*
X006967Y002275D02*
X005586Y002275D01*
X004455Y004336D02*
X002741Y004336D01*
X002741Y004494D02*
X004340Y004494D01*
X004301Y004653D02*
X002741Y004653D01*
X002741Y004811D02*
X004318Y004811D01*
X004400Y004970D02*
X002741Y004970D01*
X002741Y005128D02*
X004641Y005128D01*
X002741Y001007D02*
X025251Y001007D01*
X025251Y000849D02*
X002741Y000849D01*
X002741Y000690D02*
X025251Y000690D01*
X025251Y000532D02*
X002741Y000532D01*
X002741Y000373D02*
X025251Y000373D01*
M02*
