G75*
G70*
%OFA0B0*%
%FSLAX24Y24*%
%IPPOS*%
%LPD*%
%AMOC8*
5,1,8,0,0,1.08239X$1,22.5*
%
%ADD10C,0.0640*%
%ADD11C,0.0720*%
%ADD12C,0.0730*%
%ADD13R,0.0730X0.0730*%
%ADD14OC8,0.0640*%
%ADD15C,0.0640*%
%ADD16C,0.0820*%
%ADD17C,0.0740*%
%ADD18C,0.1380*%
%ADD19C,0.0680*%
D10*
X014781Y007680D02*
X015341Y007680D01*
X015341Y008680D02*
X014781Y008680D01*
X014781Y009680D02*
X015341Y009680D01*
X015341Y010680D02*
X014781Y010680D01*
X014781Y011680D02*
X015341Y011680D01*
X015341Y012680D02*
X014781Y012680D01*
X014781Y013680D02*
X015341Y013680D01*
X015341Y014680D02*
X014781Y014680D01*
X014781Y015680D02*
X015341Y015680D01*
X015341Y016680D02*
X014781Y016680D01*
X014781Y017680D02*
X015341Y017680D01*
X015341Y018680D02*
X014781Y018680D01*
X014781Y019680D02*
X015341Y019680D01*
X015341Y020680D02*
X014781Y020680D01*
X017781Y020680D02*
X018341Y020680D01*
X018341Y019680D02*
X017781Y019680D01*
X017781Y018680D02*
X018341Y018680D01*
X018341Y017680D02*
X017781Y017680D01*
X017781Y016680D02*
X018341Y016680D01*
X018341Y015680D02*
X017781Y015680D01*
X017781Y014680D02*
X018341Y014680D01*
X018341Y013680D02*
X017781Y013680D01*
X017781Y012680D02*
X018341Y012680D01*
X018341Y011680D02*
X017781Y011680D01*
X017781Y010680D02*
X018341Y010680D01*
X018341Y009680D02*
X017781Y009680D01*
X017781Y008680D02*
X018341Y008680D01*
X018341Y007680D02*
X017781Y007680D01*
D11*
X022741Y007680D02*
X023381Y007680D01*
X023381Y006680D02*
X022741Y006680D01*
X022741Y008680D02*
X023381Y008680D01*
X023381Y009680D02*
X022741Y009680D01*
X022741Y010680D02*
X023381Y010680D01*
X023381Y011680D02*
X022741Y011680D01*
X022741Y012680D02*
X023381Y012680D01*
X023381Y013680D02*
X022741Y013680D01*
X022741Y014680D02*
X023381Y014680D01*
X023381Y015680D02*
X022741Y015680D01*
X022741Y016680D02*
X023381Y016680D01*
X023381Y017680D02*
X022741Y017680D01*
X022741Y018680D02*
X023381Y018680D01*
X023381Y019680D02*
X022741Y019680D01*
X022741Y020680D02*
X023381Y020680D01*
X023381Y021680D02*
X022741Y021680D01*
X007881Y003680D02*
X007241Y003680D01*
X007241Y002680D02*
X007881Y002680D01*
X007881Y001680D02*
X007241Y001680D01*
D12*
X007061Y010180D03*
X007061Y014680D03*
D13*
X008061Y014680D03*
X008061Y010180D03*
D14*
X007561Y020680D03*
X008561Y020680D03*
D15*
X015611Y004680D03*
X017511Y004680D03*
D16*
X014561Y001680D03*
X011561Y001680D03*
X010561Y004680D03*
X010561Y007680D03*
X010561Y009180D03*
X010561Y012180D03*
X010561Y013680D03*
X010561Y016680D03*
X010561Y018680D03*
X010561Y021680D03*
X004061Y013680D03*
X004061Y012680D03*
X004061Y011680D03*
X022561Y004180D03*
X023561Y004180D03*
D17*
X005841Y018188D03*
X005061Y018188D03*
X005061Y019172D03*
X005841Y019172D03*
D18*
X003991Y021050D03*
X003991Y016310D03*
D19*
X004761Y002680D02*
X005361Y002680D01*
X005361Y003680D02*
X004761Y003680D01*
X004761Y004680D02*
X005361Y004680D01*
X005361Y007180D02*
X004761Y007180D01*
X004761Y008180D02*
X005361Y008180D01*
X005361Y009180D02*
X004761Y009180D01*
M02*
